<?xml version="1.0" encoding="UTF-8"?>
<svg width="24px" height="29px" viewBox="0 0 24 29" version="1.1" xmlns="http://www.w3.org/2000/svg" xmlns:xlink="http://www.w3.org/1999/xlink">
    <!-- Generator: Sketch 48.1 (47250) - http://www.bohemiancoding.com/sketch -->
    <title>Glyphs/Accessibility</title>
    <desc>Created with Sketch.</desc>
    <defs>
        <path d="M23.9736,30.5416518 C22.836,30.5549435 22.1388,31.6243177 21.6,32.4846504 C20.442,34.3394408 19.188,36.3041893 18.1092,37.9571881 C17.7348,38.5311461 17.3292,38.9951457 16.6464,38.9999791 C15.9624,39.0048124 15.384,38.1722713 15.714,37.4714385 C16.5912,35.6118148 20.4,28.9200697 20.4,23.2916571 C20.4,21.3426168 19.3704,20.8749921 18,20.8749921 L13.2,20.8749921 C12.5376,20.8749921 12,20.3336592 12,19.6666597 C12,18.9996602 12.5376,18.4583272 13.2,18.4583272 L34.8,18.4583272 C35.4636,18.4583272 36,19.0008685 36,19.6666597 C36,20.3324509 35.4636,20.8749921 34.8,20.8749921 L30,20.8749921 C28.6308,20.8749921 27.6,21.3426168 27.6,23.2916571 C27.6,28.9200697 31.41,35.6118148 32.2872,37.4714385 C32.6172,38.1722713 32.0388,39.0048124 31.3548,38.9999791 C30.672,38.9951457 30.2652,38.5311461 29.892,37.9571881 C28.8132,36.3041893 27.5592,34.3394408 26.4,32.4846504 C25.8588,31.6182761 25.1544,30.5380268 24,30.5416518 L23.9736,30.5416518 Z M24,10 C25.9884,10 27.6,11.6239988 27.6,13.6249974 C27.6,15.6259959 25.9884,17.2499948 24,17.2499948 C22.014,17.2499948 20.4,15.6259959 20.4,13.6249974 C20.4,11.6239988 22.014,10 24,10 Z" id="path-1"></path>
    </defs>
    <g id="Glyphs" stroke="none" stroke-width="1" fill="none" fill-rule="evenodd" transform="translate(-332.000000, -430.000000)">
        <g id="Navigation" transform="translate(0.000000, 308.000000)">
            <g id="Glyphs/Accessibility" transform="translate(320.000000, 112.000000)">
                <mask id="mask-2" fill="white">
                    <use xlink:href="#path-1"></use>
                </mask>
                <use id="Accessibility" fill="#FFFFFF" xlink:href="#path-1"></use>
                <g id="⮑-Palette" mask="url(#mask-2)" fill="#2B2B2B">
                    <rect id="Color" x="0" y="0" width="48" height="48"></rect>
                </g>
            </g>
        </g>
    </g>
</svg>