<?xml version="1.0" encoding="UTF-8"?>
<svg width="24px" height="24px" viewBox="0 0 24 24" version="1.1" xmlns="http://www.w3.org/2000/svg" xmlns:xlink="http://www.w3.org/1999/xlink">
    <!-- Generator: Sketch 48.1 (47250) - http://www.bohemiancoding.com/sketch -->
    <title>Glyphs/Calendar</title>
    <desc>Created with Sketch.</desc>
    <defs>
        <path d="M36,16.11675 C36,14.86575 34.990875,13.848375 33.75,13.848375 L31.3695,13.848375 L31.3695,12.756375 C31.3695,12.33825 31.033875,12 30.6195,12 C30.205125,12 29.8695,12.33825 29.8695,12.756375 L29.8695,13.848375 L18.09675,13.848375 L18.09675,12.756375 C18.09675,12.33825 17.761125,12 17.34675,12 C16.932375,12 16.59675,12.33825 16.59675,12.756375 L16.59675,13.848375 L14.25,13.848375 C13.009125,13.848375 12,14.86575 12,16.11675 L12,19.570125 C12,19.611375 12.016875,19.647 12.023625,19.68675 C12.016875,19.7265 12,19.762125 12,19.803375 C12,19.8045 12.00075,19.806375 12.00075,19.8075 C12.00075,19.809375 12,19.810875 12,19.812375 L12,33.732 C12,34.982625 13.009125,36 14.25,36 L33.75,36 C34.990875,36 36,34.982625 36,33.731625 L36,19.812375 C36,19.810875 35.99925,19.809375 35.99925,19.807875 C35.99925,19.80675 36,19.804875 36,19.80375 C36,19.7625 35.983125,19.726875 35.976375,19.68675 C35.983125,19.647 36,19.611375 36,19.570125 L36,16.11675 Z M34.5,33.731625 C34.5,34.148625 34.164,34.487625 33.75,34.487625 L14.25,34.487625 C13.836,34.487625 13.5,34.148625 13.5,33.731625 L13.5,20.559375 L34.5,20.559375 L34.5,33.731625 Z M34.5,19.047 L13.5,19.047 L13.5,16.116375 C13.5,15.699 13.836,15.36 14.25,15.36 L16.59675,15.36 L16.59675,16.452375 C16.59675,16.870125 16.932375,17.208375 17.34675,17.208375 C17.761125,17.208375 18.09675,16.870125 18.09675,16.452375 L18.09675,15.360375 L29.869875,15.360375 L29.869875,16.45275 C29.869875,16.8705 30.2055,17.20875 30.619875,17.20875 C31.034625,17.20875 31.369875,16.8705 31.369875,16.45275 L31.369875,15.360375 L33.75,15.360375 C34.164,15.360375 34.5,15.699375 34.5,16.11675 L34.5,19.047 Z M19.94325,25.4415 C19.5290364,25.4415 19.19325,25.1030273 19.19325,24.6855 C19.19325,24.2679727 19.5290364,23.9295 19.94325,23.9295 C20.3574636,23.9295 20.69325,24.2679727 20.69325,24.6855 C20.69325,25.1030273 20.3574636,25.4415 19.94325,25.4415 Z M23.5695,25.4415 C23.1552864,25.4415 22.8195,25.1030273 22.8195,24.6855 C22.8195,24.2679727 23.1552864,23.9295 23.5695,23.9295 C23.9837136,23.9295 24.3195,24.2679727 24.3195,24.6855 C24.3195,25.1030273 23.9837136,25.4415 23.5695,25.4415 Z M27.62325,25.4415 C27.2090364,25.4415 26.87325,25.1030273 26.87325,24.6855 C26.87325,24.2679727 27.2090364,23.9295 27.62325,23.9295 C28.0374636,23.9295 28.37325,24.2679727 28.37325,24.6855 C28.37325,25.1030273 28.0374636,25.4415 27.62325,25.4415 Z M31.761375,25.4415 C31.3471614,25.4415 31.011375,25.1030273 31.011375,24.6855 C31.011375,24.2679727 31.3471614,23.9295 31.761375,23.9295 C32.1755886,23.9295 32.511375,24.2679727 32.511375,24.6855 C32.511375,25.1030273 32.1755886,25.4415 31.761375,25.4415 Z M16.238625,28.05825 C15.8244114,28.05825 15.488625,27.7197773 15.488625,27.30225 C15.488625,26.8847227 15.8244114,26.54625 16.238625,26.54625 C16.6528386,26.54625 16.988625,26.8847227 16.988625,27.30225 C16.988625,27.7197773 16.6528386,28.05825 16.238625,28.05825 Z M19.94325,28.05825 C19.5290364,28.05825 19.19325,27.7197773 19.19325,27.30225 C19.19325,26.8847227 19.5290364,26.54625 19.94325,26.54625 C20.3574636,26.54625 20.69325,26.8847227 20.69325,27.30225 C20.69325,27.7197773 20.3574636,28.05825 19.94325,28.05825 Z M23.5695,28.05825 C23.1552864,28.05825 22.8195,27.7197773 22.8195,27.30225 C22.8195,26.8847227 23.1552864,26.54625 23.5695,26.54625 C23.9837136,26.54625 24.3195,26.8847227 24.3195,27.30225 C24.3195,27.7197773 23.9837136,28.05825 23.5695,28.05825 Z M27.62325,28.05825 C27.2090364,28.05825 26.87325,27.7197773 26.87325,27.30225 C26.87325,26.8847227 27.2090364,26.54625 27.62325,26.54625 C28.0374636,26.54625 28.37325,26.8847227 28.37325,27.30225 C28.37325,27.7197773 28.0374636,28.05825 27.62325,28.05825 Z M31.761375,28.05825 C31.3471614,28.05825 31.011375,27.7197773 31.011375,27.30225 C31.011375,26.8847227 31.3471614,26.54625 31.761375,26.54625 C32.1755886,26.54625 32.511375,26.8847227 32.511375,27.30225 C32.511375,27.7197773 32.1755886,28.05825 31.761375,28.05825 Z M16.238625,30.664125 C15.8244114,30.664125 15.488625,30.3256523 15.488625,29.908125 C15.488625,29.4905977 15.8244114,29.152125 16.238625,29.152125 C16.6528386,29.152125 16.988625,29.4905977 16.988625,29.908125 C16.988625,30.3256523 16.6528386,30.664125 16.238625,30.664125 Z M19.94325,30.664125 C19.5290364,30.664125 19.19325,30.3256523 19.19325,29.908125 C19.19325,29.4905977 19.5290364,29.152125 19.94325,29.152125 C20.3574636,29.152125 20.69325,29.4905977 20.69325,29.908125 C20.69325,30.3256523 20.3574636,30.664125 19.94325,30.664125 Z M23.5695,30.664125 C23.1552864,30.664125 22.8195,30.3256523 22.8195,29.908125 C22.8195,29.4905977 23.1552864,29.152125 23.5695,29.152125 C23.9837136,29.152125 24.3195,29.4905977 24.3195,29.908125 C24.3195,30.3256523 23.9837136,30.664125 23.5695,30.664125 Z M27.62325,30.664125 C27.2090364,30.664125 26.87325,30.3256523 26.87325,29.908125 C26.87325,29.4905977 27.2090364,29.152125 27.62325,29.152125 C28.0374636,29.152125 28.37325,29.4905977 28.37325,29.908125 C28.37325,30.3256523 28.0374636,30.664125 27.62325,30.664125 Z M31.761375,30.664125 C31.3471614,30.664125 31.011375,30.3256523 31.011375,29.908125 C31.011375,29.4905977 31.3471614,29.152125 31.761375,29.152125 C32.1755886,29.152125 32.511375,29.4905977 32.511375,29.908125 C32.511375,30.3256523 32.1755886,30.664125 31.761375,30.664125 Z M16.238625,33.28125 C15.8244114,33.28125 15.488625,32.9427773 15.488625,32.52525 C15.488625,32.1077227 15.8244114,31.76925 16.238625,31.76925 C16.6528386,31.76925 16.988625,32.1077227 16.988625,32.52525 C16.988625,32.9427773 16.6528386,33.28125 16.238625,33.28125 Z M19.94325,33.28125 C19.5290364,33.28125 19.19325,32.9427773 19.19325,32.52525 C19.19325,32.1077227 19.5290364,31.76925 19.94325,31.76925 C20.3574636,31.76925 20.69325,32.1077227 20.69325,32.52525 C20.69325,32.9427773 20.3574636,33.28125 19.94325,33.28125 Z M23.5695,33.28125 C23.1552864,33.28125 22.8195,32.9427773 22.8195,32.52525 C22.8195,32.1077227 23.1552864,31.76925 23.5695,31.76925 C23.9837136,31.76925 24.3195,32.1077227 24.3195,32.52525 C24.3195,32.9427773 23.9837136,33.28125 23.5695,33.28125 Z" id="path-1"></path>
    </defs>
    <g id="Glyphs" stroke="none" stroke-width="1" fill="none" fill-rule="evenodd" transform="translate(-332.000000, -632.000000)">
        <g id="Fields" transform="translate(0.000000, 508.000000)">
            <g id="Glyphs/Calendar" transform="translate(320.000000, 112.000000)">
                <mask id="mask-2" fill="white">
                    <use xlink:href="#path-1"></use>
                </mask>
                <use id="Calendar" fill="#1D1D1B" fill-rule="nonzero" xlink:href="#path-1"></use>
                <g id="⮑-Palette" mask="url(#mask-2)" fill="#2B2B2B">
                    <rect id="Color" x="0" y="0" width="48" height="48"></rect>
                </g>
            </g>
        </g>
    </g>
</svg>