<?xml version="1.0" encoding="UTF-8"?>
<svg width="160px" height="61px" viewBox="0 0 160 61" version="1.1" xmlns="http://www.w3.org/2000/svg" xmlns:xlink="http://www.w3.org/1999/xlink">
    <!-- Generator: Sketch 48.1 (47250) - http://www.bohemiancoding.com/sketch -->
    <title>DHA Logo</title>
    <desc>Created with Sketch.</desc>
    <defs>
        <polygon id="path-1" points="29.5697865 0.181290948 29.5697865 29.7112069 0.0605057471 29.7112069 0.0605057471 0.181290948 29.5697865 0.181290948"></polygon>
        <polygon id="path-3" points="0.0604006568 0.0357586207 29.5687094 0.0357586207 29.5687094 29.5691453 0.0604006568 29.5691453 0.0604006568 0.0357586207"></polygon>
        <polygon id="path-5" points="7.12119654e-21 0.0311310345 7.12119654e-21 15.5096181 124.018076 15.5096181 124.018076 0.0311310345 0 0.0311310345"></polygon>
        <polygon id="path-7" points="0 60.9642414 159.881773 60.9642414 159.881773 0.262931034 0 0.262931034"></polygon>
    </defs>
    <g id="Logos" stroke="none" stroke-width="1" fill="none" fill-rule="evenodd" transform="translate(-242.000000, -268.000000)">
        <g id="DHA" transform="translate(216.000000, 140.000000)">
            <g id="Logo/DHA" transform="translate(0.000000, 102.000000)">
                <g id="Page-1" transform="translate(26.000000, 26.000000)">
                    <path d="M99.2262989,29.7953711 C114.170667,27.0025177 125.945248,15.2200522 128.735658,0.264797845 L128.735658,19.5026728 C128.735658,25.1869789 124.13244,29.7953711 118.451521,29.7953711 L99.2262989,29.7953711 Z" id="Fill-1" fill="#95C01F"></path>
                    <g id="Group-5" transform="translate(130.311987, 31.253034)">
                        <mask id="mask-2" fill="white">
                            <use xlink:href="#path-1"></use>
                        </mask>
                        <g id="Clip-4"></g>
                        <path d="M29.5698654,0.181290948 L10.3451691,0.181290948 C4.66372414,0.181290948 0.0605057471,4.78915733 0.0605057471,10.4742522 L0.0605057471,29.7113384 C2.85091626,14.7568728 14.6247094,2.97282974 29.5698654,0.181290948" id="Fill-3" fill="#95C01F" mask="url(#mask-2)"></path>
                    </g>
                    <g id="Group-8" transform="translate(130.311987, 0.227172)">
                        <mask id="mask-4" fill="white">
                            <use xlink:href="#path-3"></use>
                        </mask>
                        <g id="Clip-7"></g>
                        <path d="M0.0604006568,0.0356797414 L0.0614515599,19.276447 C0.0604006568,24.960753 4.6651954,29.5691453 10.3461149,29.5691453 L29.5687094,29.5691453 C14.624867,26.775503 2.85081117,14.9919858 0.0604006568,0.0356797414" id="Fill-6" fill="#008295" mask="url(#mask-4)"></path>
                    </g>
                    <g id="Group-11" transform="translate(0.000000, 35.985793)">
                        <mask id="mask-6" fill="white">
                            <use xlink:href="#path-5"></use>
                        </mask>
                        <g id="Clip-10"></g>
                        <path d="M123.378864,8.29978621 L123.056762,8.29978621 C122.84264,8.29978621 122.580177,8.23352759 122.270686,8.10258793 C121.884217,7.9464069 121.688486,7.75551897 121.688486,7.53202759 C121.688486,7.43973879 121.736828,7.29670431 121.82957,7.09976897 C121.951212,6.82448017 122.083626,6.68644138 122.233379,6.68644138 C122.405727,6.68644138 122.647435,6.91440259 122.954299,7.370325 C123.183133,7.72659655 123.321852,7.98979052 123.378864,8.15517414 L123.378864,8.29978621 Z M120.961524,7.70372155 C120.773938,7.91091121 120.593182,8.01634655 120.418732,8.01634655 C120.286319,8.01634655 120.080342,7.9616569 119.800801,7.85385517 C119.42668,7.71923448 119.239619,7.55963534 119.239619,7.370325 C119.239619,7.3440319 119.313182,7.22308362 119.458207,7.00958362 C119.872263,6.47188966 120.212755,6.20264828 120.479685,6.20264828 C120.666745,6.20264828 120.841721,6.3214931 121.001458,6.55629052 C121.161195,6.79187672 121.242903,6.98960086 121.242903,7.15156638 C121.242903,7.31116552 121.148585,7.49548017 120.961524,7.70372155 L120.961524,7.70372155 Z M86.713642,7.29118276 C86.6064499,7.29118276 86.4530181,7.27330345 86.2515074,7.23964828 C86.0518358,7.2059931 85.769931,7.1221181 85.4063186,6.98960086 C85.1811626,6.92229052 84.9854319,6.80002759 84.8238555,6.6264931 C84.9983054,6.49292414 85.2802102,6.36277328 85.6690443,6.2342 C86.055514,6.10667845 86.3250706,5.99651034 86.4719343,5.90316983 C86.6865813,5.64812672 86.8544631,5.41280345 86.9745287,5.19904052 L87.3171232,7.29118276 L86.713642,7.29118276 Z M123.738273,6.84866983 C123.362049,6.10930776 122.478765,5.16459655 121.087632,4.01269569 C120.833051,3.81102759 120.685924,3.70953621 120.643888,3.70953621 C120.56402,3.70953621 120.448683,3.85730345 120.292624,4.15178621 C120.139192,4.44810948 120.06379,4.64294138 120.06379,4.73733362 C120.038305,4.89824741 120.038305,5.05179914 120.06379,5.19904052 C119.552788,5.6817819 119.124282,6.34647155 118.77512,7.19337241 C118.734923,7.26068276 118.682378,7.47549741 118.61512,7.83518707 C118.560473,8.1065319 118.495317,8.2590319 118.415448,8.29978621 L108.707993,8.29978621 C108.693544,8.17910086 108.678831,8.03080776 108.665957,7.85727328 C108.653346,7.68373879 108.647041,7.58277328 108.647041,7.55411379 L108.647041,6.4290319 C108.647041,6.38775172 108.626286,6.226575 108.586089,5.94602759 C108.548256,5.66416552 108.527238,5.46801897 108.527238,5.36179483 C108.487304,5.37467845 108.329668,5.56951034 108.054332,5.94602759 C107.782936,6.3214931 107.643954,6.56260086 107.643954,6.66987672 C107.643954,6.68249741 107.678108,6.8933681 107.743002,7.30406638 C107.808158,7.71318707 107.839947,7.99715259 107.839947,8.15701466 C107.839947,8.22642845 107.833642,8.27244138 107.821031,8.29978621 L104.474167,8.29978621 C104.257944,8.29978621 104.117386,8.20644569 104.051967,8.01818707 L104.392197,5.72306207 L104.392197,5.17826897 C104.285268,5.26004052 104.058273,5.50167414 103.711475,5.90422155 C103.36021,6.30571724 103.187599,6.54735086 103.187599,6.62885948 L103.187599,7.87725603 C103.135054,7.99715259 103.019718,8.0989069 102.84553,8.17910086 C102.67108,8.2590319 102.532099,8.29978621 102.424906,8.29978621 L89.0219507,8.29978621 C88.6601773,8.29978621 88.4140033,8.21775172 88.2794877,8.05815259 C88.2398161,8.00451466 88.218798,7.94430345 88.218798,7.87725603 C87.9665813,5.71780345 87.7774187,4.10077759 87.6576158,3.02696724 C87.1760394,3.5772819 86.9072709,3.92619138 86.8544631,4.07369569 C86.8418522,4.36791552 86.8544631,4.59666552 86.8943974,4.75731638 C86.7745944,4.82462672 86.4595862,4.93742414 85.9504236,5.10017845 C85.5345287,5.23374741 85.2402759,5.3802 85.0653005,5.54085086 C84.4770575,6.05014828 84.1008342,6.78109655 83.9413596,7.7321181 C84.1299967,7.87909655 84.3425419,7.99373448 84.5842496,8.0752431 C84.7040525,8.12730345 84.8845452,8.18146724 85.1267783,8.23510517 C85.9693399,8.4641181 86.4322627,8.57586379 86.5121314,8.57586379 C86.6046108,8.57586379 86.6781741,8.53563534 86.732821,8.45596724 C86.8124269,8.30951466 86.8862529,8.16726897 86.9532479,8.03264828 C87.0733136,7.83308362 87.2012611,7.70556207 87.3339376,7.65113534 C87.3883218,7.75814828 87.4219507,7.87278621 87.4348243,7.99373448 C87.4873695,8.50408362 87.5354483,8.79856638 87.5753826,8.87849741 C87.6702266,9.10566983 87.8176158,9.27420862 88.0170246,9.38043276 C88.1260558,9.43617414 88.218798,9.46141552 88.2986667,9.46141552 L102.565727,9.46141552 C102.847369,9.03204914 103.013412,8.79120431 103.067796,8.7386181 C103.160539,8.88507069 103.254857,9.03204914 103.347599,9.1808681 C103.484479,9.36781207 103.610588,9.46141552 103.732493,9.46141552 L107.379915,9.46141552 C107.675744,9.04677328 107.850719,8.81776034 107.902739,8.7775319 C108.092164,9.08647586 108.22668,9.31417414 108.304709,9.46141552 L118.413609,9.46141552 C118.266483,9.46141552 118.842115,9.36781207 120.141294,9.1808681 L123.15397,9.46141552 C123.35732,9.39410517 123.548847,9.1808681 123.738273,8.81776034 C123.925333,8.45596724 124.018076,8.12151897 124.018076,7.81283793 C124.018076,7.57120431 123.925333,7.25042845 123.738273,6.84866983 L123.738273,6.84866983 Z M107.299783,11.3905405 C106.629044,10.9761612 106.173215,10.7079716 105.933609,10.5891267 C105.756795,10.8160362 105.563166,11.1507474 105.349044,11.5922086 L106.736236,12.357075 C106.923297,12.0628552 107.057813,11.850144 107.137681,11.716575 C107.72645,12.021575 108.169668,12.2613681 108.464184,12.4341138 C108.611573,12.2195621 108.790227,11.8908983 109.00645,11.4512776 C108.241392,10.996144 107.808158,10.7471483 107.699126,10.7079716 C107.512066,11.0161267 107.379915,11.2440879 107.299783,11.3905405 L107.299783,11.3905405 Z M101.577616,2.64519138 C101.805136,2.69777759 102.036072,2.75062672 102.262805,2.80531638 C102.075744,2.96517845 101.888683,3.1197819 101.701622,3.26781207 C101.352985,3.5620319 101.180637,3.77737241 101.180637,3.91173017 C101.180637,3.95169569 101.205859,3.99166121 101.258141,4.03346724 C102.330062,3.26570862 103.307665,2.84423017 104.190686,2.76272155 C104.377747,2.50741552 104.505957,2.29917414 104.573215,2.13826034 L103.124808,2.13826034 C102.092821,2.07121293 101.575777,1.90977328 101.575777,1.65446724 C101.575777,1.50696293 101.695317,1.34631207 101.928617,1.17041121 C102.16402,0.995825 102.382608,0.908531897 102.584906,0.908531897 C102.811901,0.908531897 103.032591,0.995825 103.246713,1.17041121 C103.435875,0.795997414 103.528092,0.629562069 103.528092,0.667687069 C103.528092,0.602480172 103.454791,0.501514655 103.307665,0.368997414 C103.160539,0.234376724 103.053346,0.167855172 102.986089,0.167855172 C102.542345,0.167855172 102.112,0.39844569 101.687172,0.862256034 C101.264184,1.32527759 101.054266,1.77120862 101.054266,2.20136379 C101.054266,2.40198017 101.228716,2.55079914 101.577616,2.64519138 L101.577616,2.64519138 Z M85.3264499,2.64098448 C85.5573859,2.24106638 85.7045123,2.0141569 85.7741346,1.96314828 C86.4385681,2.34466121 86.8589294,2.57551466 87.0352184,2.65176466 L87.5632972,1.78514397 L86.2134122,0.920363793 C85.9569918,1.3271181 85.8096026,1.56612241 85.769931,1.63763966 C85.2213596,1.34526034 84.7920657,1.10546724 84.4833629,0.920363793 L83.9413596,1.88137672 C84.0882233,1.96157069 84.3191593,2.08751466 84.6346929,2.26026034 C84.9481248,2.43458362 85.1790608,2.56210517 85.3264499,2.64098448 L85.3264499,2.64098448 Z M77.8721314,1.98234224 L78.6227389,9.46141552 C79.0094713,8.68392845 79.2046765,7.99373448 79.2046765,7.39030776 L78.7801117,0.0311310345 C78.1750542,0.982152586 77.8721314,1.63343276 77.8721314,1.98234224 L77.8721314,1.98234224 Z M70.8633957,8.1980319 C70.7564663,8.26534224 70.676335,8.29978621 70.6237898,8.29978621 L64.6370575,8.29978621 C65.3077964,7.94430345 65.9703908,7.59013534 66.6240525,7.23570431 C67.4563678,6.79792414 68.1665156,6.57916552 68.7552841,6.57916552 C69.0369261,6.57916552 69.3038555,6.61991983 69.5581741,6.7035319 C69.6929524,6.74428621 69.9472709,6.90730345 70.3234943,7.19442414 C70.7924598,7.53649741 71.0257603,7.8015319 71.0257603,7.99268276 C71.0257603,8.0599931 70.9732151,8.12993276 70.8633957,8.1980319 L70.8633957,8.1980319 Z M37.7155468,7.29118276 C37.6083547,7.29118276 37.4549228,7.27330345 37.2552512,7.23964828 C37.0532151,7.2059931 36.7715731,7.1221181 36.4103251,6.98960086 C36.1830673,6.92229052 35.9873366,6.80002759 35.8275993,6.6264931 C36.0020493,6.49292414 36.2815895,6.36277328 36.6706864,6.2342 C37.060046,6.10667845 37.3269754,5.99651034 37.4759409,5.90316983 C37.6903251,5.64812672 37.8563678,5.41280345 37.9785353,5.19904052 L38.3185025,7.29118276 L37.7155468,7.29118276 Z M76.2934122,2.06043276 C75.8769918,1.84588103 75.5619836,1.67760517 75.3494384,1.55639397 C75.2551199,1.5024931 75.2088801,1.42072155 75.2088801,1.31370862 L75.2488144,1.1136181 C75.2658916,0.991881034 75.2658916,0.904062069 75.2488144,0.852001724 L75.0470411,0.852001724 C74.700243,1.40179052 74.4498654,1.8311569 74.3027389,2.14036379 C74.2628046,2.20662241 74.2438883,2.30127759 74.2438883,2.42117414 C74.2438883,2.52845 74.2628046,2.60285948 74.3027389,2.642825 C74.409931,2.77639397 74.4961051,2.87052328 74.5633629,2.92521293 C74.7504236,4.15888534 74.8849392,5.11279914 74.9648079,5.78406207 C75.0047422,6.01228621 75.0446765,6.32044138 75.0846108,6.70984224 C75.166844,7.35402328 75.2044138,7.73553621 75.2044138,7.85727328 C75.2044138,8.03080776 75.1960066,8.14229052 75.1752512,8.1896181 C75.1586995,8.22958362 75.1523941,8.2590319 75.1497668,8.28427328 C74.90622,8.27507069 73.9622463,8.28006638 72.316532,8.29978621 L71.7866141,8.29978621 C71.8283875,8.23247586 71.9379442,8.05815259 72.1102923,7.77629052 C72.2448079,7.57409655 72.3120657,7.45209655 72.3120657,7.41213103 C72.3120657,6.91598017 71.9418851,6.44454483 71.2065156,6.00045431 C70.5502266,5.59685517 69.9745944,5.39466121 69.4783054,5.39466121 C68.7699967,5.39466121 67.7569261,5.78590259 66.4451363,6.5654931 C64.8519672,7.5194069 63.7401117,8.0989069 63.1093071,8.29978621 L62.3458259,8.29978621 L62.3458259,8.3116181 C62.0161051,8.30241552 61.814069,8.24430776 61.7531166,8.13361379 C61.9401773,7.90907069 62.0662857,7.53202759 62.1335435,7.01168707 C62.1758424,6.67697586 62.2071067,6.33621724 62.2344302,5.9867819 C61.8455961,6.36566552 61.4817209,6.73455776 61.1501609,7.09898017 C61.1501609,7.31326897 61.1438555,7.522825 61.1286174,7.72554483 C61.1039212,8.11626034 60.9625747,8.31056638 60.7082562,8.31056638 L58.8063842,8.31056638 L58.8063842,8.29978621 L52.1444466,8.29978621 C51.9973202,8.29978621 51.86911,8.19882069 51.7621806,7.99715259 C51.7366962,7.92984224 51.7201445,7.88356638 51.7133136,7.85543276 C51.7051691,7.82756207 51.7030673,7.78260086 51.7030673,7.71371293 C51.9573859,7.60564828 52.2540033,7.52598017 52.5881905,7.47234224 C52.7752512,7.43106207 52.8950542,7.41029052 52.9497011,7.41029052 L53.9942989,7.41029052 L54.4756125,6.20264828 L53.7922627,6.20264828 C53.3782069,6.20264828 53.0821149,6.18371724 52.907665,6.14401466 C51.568289,5.82402759 50.5720328,5.56951034 49.9160066,5.38335517 C49.6742989,5.31446724 49.4055304,5.281075 49.1112775,5.281075 C48.8968933,5.281075 48.7770903,5.28738534 48.7495041,5.30105776 C48.5624433,5.35469569 48.3942989,5.42095431 48.2471724,5.50167414 C47.9258588,5.6894069 47.6565649,6.03226897 47.4440197,6.52657931 C47.3641511,6.7408681 47.3242167,6.86733793 47.3242167,6.90730345 L47.3242167,7.12842845 C47.4040854,7.08872586 47.5661872,6.97435086 47.8060558,6.78635517 C47.9784039,6.66724741 48.1609984,6.59993707 48.3480591,6.58547586 C48.3753826,6.57180345 48.4176814,6.55918276 48.4804729,6.54551034 C48.5395862,6.53473017 48.5897668,6.52552759 48.6297011,6.52552759 C48.9641511,6.52552759 49.8153826,6.72009655 51.1815567,7.11054914 C50.5912118,7.56831207 50.0358095,7.89723879 49.5127225,8.0989069 C49.1241511,8.23352759 48.7770903,8.29978621 48.4678621,8.29978621 L40.0256946,8.29978621 C39.6620821,8.29978621 39.4164335,8.21775172 39.2816552,8.05815259 C39.2414581,8.00451466 39.2207028,7.94430345 39.2207028,7.87725603 C38.9682233,5.71780345 38.7811626,4.10077759 38.6595205,3.02696724 C38.1784696,3.5772819 37.908913,3.92619138 37.8587323,4.07369569 C37.843757,4.36791552 37.8587323,4.59666552 37.8963021,4.75731638 C37.7764992,4.82462672 37.461491,4.93742414 36.9528539,5.10017845 C36.5382726,5.23374741 36.2416552,5.3802 36.0698325,5.54085086 C35.4808013,6.05014828 35.1048407,6.78109655 34.9432644,7.7321181 C35.1303251,7.87909655 35.3444466,7.99373448 35.5858916,8.0752431 C35.7077964,8.12730345 35.8869754,8.18146724 36.1286831,8.23510517 C36.9712447,8.4641181 37.4341675,8.57586379 37.5140361,8.57586379 C37.6065156,8.57586379 37.6795534,8.53563534 37.7347258,8.45596724 C37.8164335,8.30951466 37.8881576,8.16726897 37.9551527,8.03264828 C38.0752184,7.83308362 38.2031658,7.70556207 38.3379442,7.65113534 C38.3907521,7.75814828 38.4238555,7.87278621 38.4364663,7.99373448 C38.4911133,8.50408362 38.5378785,8.79856638 38.5796519,8.87849741 C38.6721314,9.10566983 38.8192578,9.27420862 39.0210312,9.38043276 C39.1282233,9.43617414 39.2207028,9.46141552 39.3005714,9.46141552 L48.8317373,9.46141552 C48.8968933,9.46141552 49.0043481,9.43617414 49.1512118,9.38043276 C49.5946929,9.11460948 49.9228374,8.8911181 50.1372217,8.71758362 C50.5638883,8.40969138 50.8936092,8.17384224 51.1211297,8.01371724 C51.2553826,8.64422586 51.3481248,9.0131181 51.4027718,9.11934224 C51.4952512,9.34782931 51.6082233,9.46141552 51.7430016,9.46141552 L60.4878292,9.46141552 C60.5803087,9.46141552 60.761064,9.32889828 61.0277307,9.05939397 C61.1501609,9.23450603 61.2444795,9.36781207 61.3098982,9.46141552 L75.3856946,9.46141552 C75.5472709,9.24791552 75.6544631,8.98472155 75.7070082,8.67682931 C75.7469425,8.40969138 75.7889787,8.14123879 75.828913,7.87278621 C75.8688473,7.64587672 75.8877635,7.43763534 75.8877635,7.25042845 L75.5283547,3.36877759 L75.6100624,3.42872586 C75.8496683,2.99962241 76.0769261,2.54291121 76.2934122,2.06043276 L76.2934122,2.06043276 Z M36.3283547,2.64098448 C36.5592906,2.24106638 36.7087816,2.0141569 36.7760394,1.96314828 C37.4399475,2.34466121 37.8626732,2.57551466 38.0371232,2.65176466 L38.5649392,1.78514397 L37.2153169,0.920363793 C36.9586338,1.3271181 36.8115074,1.56612241 36.7715731,1.63763966 C36.2211626,1.34526034 35.7944959,1.10546724 35.4876322,0.920363793 L34.9432644,1.88137672 C35.0901281,1.96157069 35.3229031,2.08751466 35.6365977,2.26026034 C35.9518686,2.43458362 36.1812282,2.56210517 36.3283547,2.64098448 L36.3283547,2.64098448 Z M27.6925583,11.8735448 L28.9980427,12.6967819 C29.3469425,12.1196483 29.5403087,11.7862517 29.580243,11.6921224 C28.6827718,11.2114845 28.2348243,10.9624888 28.2348243,10.9488164 C28.1024105,11.1767776 27.9198161,11.4849328 27.6925583,11.8735448 L27.6925583,11.8735448 Z M29.8032972,5.04207069 C29.4123612,5.81955776 29.2189951,6.21500603 29.2189951,6.22920431 C29.7276322,7.28829052 29.9819507,7.93825603 29.9819507,8.17910086 C29.9819507,8.2590319 29.9756453,8.29978621 29.9630345,8.29978621 L27.2700952,8.29978621 L27.2700952,8.29584224 C27.2764007,8.29584224 27.2682562,8.29689397 27.2532808,8.29978621 L26.6458588,8.29978621 L26.6458588,8.30451897 C26.6416552,8.29978621 26.6290443,8.29978621 26.6269425,8.29584224 C26.3200788,7.87909655 26.0930837,7.16208362 25.94333,6.14296293 C25.7835928,4.96371724 25.6141346,4.1788681 25.4409984,3.78946724 C25.3737406,3.92435086 25.2641839,4.13443276 25.1099639,4.42313103 C24.9562693,4.71209224 24.8459245,4.92375172 24.7776158,5.05626897 L25.4207685,7.53123879 C25.3545616,7.97375172 25.1853662,8.22748017 24.9173859,8.29584224 C24.2353498,8.45596724 23.6140033,8.53563534 23.0496683,8.53563534 C22.6755468,8.53563534 22.3213924,8.49593276 21.9858916,8.41679052 C21.8923612,8.34869138 21.8251034,8.2887431 21.784381,8.23510517 C21.7444466,8.18146724 21.7181741,8.08786379 21.7042496,7.95298017 C21.6919015,7.59118707 21.6432972,7.3966181 21.5634286,7.370325 C21.2681248,8.21722586 21.1231002,8.80093276 21.1231002,9.12276034 C21.1231002,9.17639828 21.1622463,9.30260517 21.2429031,9.50348448 C21.3101609,9.55791121 21.3627061,9.59787672 21.4026404,9.62522155 C21.6845452,9.70620431 21.992197,9.74616983 22.3263842,9.74616983 C22.7953498,9.74616983 23.3649392,9.70620431 24.0343645,9.62522155 C24.6105222,9.54529052 24.9384039,9.47166983 25.0193235,9.40330776 C25.3545616,8.95842845 25.5742003,8.60504914 25.6834943,8.33607069 C25.7087159,8.37603621 25.7962036,8.55141121 25.94333,8.85746293 C26.0502594,9.08647586 26.177156,9.24370862 26.3263842,9.33100172 C26.4735107,9.4172431 26.5807028,9.46141552 26.6458588,9.46141552 L30.3497668,9.46141552 C30.5893727,8.47148017 30.7094384,7.83518707 30.7094384,7.55201034 C30.7094384,7.23149741 30.6061872,6.78004483 30.3981084,6.19738966 C30.1900296,5.61604914 29.9924598,5.22980345 29.8032972,5.04207069 L29.8032972,5.04207069 Z M18.3127225,5.04207069 C17.9225747,5.81955776 17.7281576,6.21500603 17.7281576,6.22920431 C18.2378456,7.28829052 18.4911133,7.93825603 18.4911133,8.17910086 C18.4911133,8.2590319 18.4850706,8.29978621 18.4711461,8.29978621 L4.84329721,8.29978621 C4.58792775,8.84195 4.37354351,9.24791552 4.19804269,9.51820862 C4.3336092,9.58551897 4.64888013,9.63258362 5.14595731,9.66150603 C5.64408539,9.68622155 5.99219704,9.74117414 6.19265681,9.8221569 C6.54260755,9.98491121 6.72362562,10.2701914 6.73597373,10.6753681 C6.47035796,10.8772991 6.11278818,11.0602991 5.67035796,11.2230534 C5.18930706,11.3976397 4.58372414,11.5138552 3.85938916,11.5685448 C3.28349425,11.5837948 3.00185222,11.5922086 3.01341215,11.5922086 C1.4465156,11.5922086 0.661228243,11.0297991 0.661228243,9.90313966 C0.661228243,9.6078681 0.815711002,9.12486379 1.12572742,8.45491552 C1.43364204,7.78365259 1.58076847,7.44184224 1.56815764,7.42843276 L1.56815764,7.24595862 C1.54083415,7.24595862 1.50720525,7.23228621 1.46648276,7.2059931 C1.1183711,7.54175603 0.787336617,8.0752431 0.472853859,8.80698017 C0.158896552,9.53503621 -5.2545156e-05,10.1894716 -5.2545156e-05,10.7668681 C-5.2545156e-05,11.491506 0.261885057,12.040769 0.784183908,12.4170233 C1.22766502,12.7393767 1.80250903,12.9010793 2.51081773,12.9010793 C2.9955468,12.9010793 3.52310016,12.8250922 4.1003087,12.6775879 C5.05242693,12.4517302 5.86188506,12.1425233 6.53341215,11.7520707 C6.61354351,11.6597819 6.66687685,11.5785362 6.69420033,11.5122776 C7.28270608,10.6017474 7.6854647,9.91576034 7.89984893,9.46141552 L18.8581412,9.46141552 C19.098798,8.47148017 19.2196519,7.83518707 19.2196519,7.55201034 C19.2196519,7.23149741 19.1156125,6.78004483 18.9072709,6.19738966 C18.6991921,5.61604914 18.5005714,5.22980345 18.3127225,5.04207069 L18.3127225,5.04207069 Z M16.2011954,11.8735448 L17.5085189,12.6967819 C17.8553169,12.1196483 18.049734,11.7862517 18.089931,11.6921224 C17.192197,11.2114845 16.7431987,10.9624888 16.7431987,10.9488164 C16.609734,11.1767776 16.4300296,11.4849328 16.2011954,11.8735448 L16.2011954,11.8735448 Z M3.85755008,14.5890966 L2.61196716,13.8244931 C2.33032512,14.2764716 2.14956979,14.5975103 2.06970115,14.7899759 C2.6592578,15.1186397 3.09433169,15.3584328 3.37597373,15.5096181 C3.6029688,15.0970793 3.72382266,14.8835793 3.7385353,14.8688552 C4.28736946,15.2033034 4.67410181,15.4157517 4.90319869,15.5096181 C4.9420821,15.4423078 5.03666338,15.2940147 5.18378982,15.067894 C5.30359278,14.8806871 5.36585878,14.7671009 5.36585878,14.7271353 L5.36585878,14.5862043 L4.21879803,13.9443897 C4.05906076,14.2265147 3.93715599,14.4408034 3.85755008,14.5890966 L3.85755008,14.5890966 Z" id="Fill-9" fill="#1D1D1B" mask="url(#mask-6)"></path>
                    </g>
                    <path d="M0.982646962,59.9546388 L2.4933202,59.9546388 C3.29095567,59.9546388 3.89627586,59.6788241 4.31059442,59.1271948 C4.72359934,58.5747767 4.93036453,57.8464578 4.93036453,56.9396086 C4.93036453,56.2055052 4.73305747,55.5468629 4.3400197,54.9613155 C3.94566831,54.3776086 3.32983908,54.0841776 2.49095567,54.0841776 L0.982646962,54.0841776 L0.982646962,59.9546388 Z M0.0546995074,60.7434319 L0.0546995074,53.3077422 L2.54665353,53.3077422 C3.59361576,53.3077422 4.41121839,53.6653284 4.99473235,54.3815526 C5.57903448,55.0969879 5.87013465,55.9701819 5.87013465,57.0061302 C5.87013465,58.0570655 5.5863908,58.9410397 5.01653859,59.6622595 C4.448,60.3826905 3.72602956,60.7434319 2.85167816,60.7434319 L0.0546995074,60.7434319 Z" id="Fill-12" fill="#1D1D1B"></path>
                    <path d="M11.5070739,53.3076634 L12.2794877,53.3076634 L12.2794877,58.1653142 C12.2794877,59.1381591 12.0398818,59.8378185 11.5617209,60.2608746 C11.0846108,60.6836677 10.4580099,60.8969047 9.68664696,60.8969047 C8.82569458,60.8969047 8.18753366,60.6781461 7.77374056,60.2427323 C7.36047291,59.8052151 7.15265681,59.1142323 7.15265681,58.1653142 L7.15265681,53.3076634 L8.08270608,53.3076634 L8.08270608,58.1653142 C8.08270608,58.7429737 8.14891297,59.1510427 8.28316585,59.3868918 C8.41899507,59.6240556 8.62181938,59.797853 8.89505419,59.9103875 C9.16750082,60.0239737 9.45203284,60.079978 9.75154023,60.079978 C10.3255961,60.079978 10.7619836,59.9295815 11.0601773,59.6274737 C11.3588966,59.3269435 11.5070739,58.8394694 11.5070739,58.1653142 L11.5070739,53.3076634 Z" id="Fill-14" fill="#1D1D1B"></path>
                    <path d="M14.9208539,59.9273991 L16.9136289,59.9273991 C17.4004598,59.9273991 17.7753695,59.809606 18.0404598,59.5729681 C18.3052874,59.337119 18.4377011,59.0310672 18.4377011,58.65455 C18.4377011,58.3892526 18.3775369,58.1434121 18.2590476,57.9162397 C18.137931,57.6888043 17.9687356,57.5152698 17.7511987,57.3919552 C17.5336617,57.2694293 17.2089327,57.2068517 16.7780624,57.2068517 L14.9208539,57.2068517 L14.9208539,59.9273991 Z M14.9208539,56.4979897 L16.5395074,56.4979897 C17.2099836,56.4979897 17.6587192,56.3699422 17.8846634,56.1138474 C18.1098194,55.8574897 18.222266,55.5566966 18.222266,55.2125198 C18.222266,54.8701836 18.1011494,54.594106 17.8597044,54.3829724 C17.617734,54.1734164 17.2575369,54.0671922 16.7791133,54.0671922 L14.9208539,54.0671922 L14.9208539,56.4979897 Z M14.0199672,60.7435371 L14.0199672,53.3075845 L16.9619704,53.3075845 C17.7018062,53.3075845 18.2506404,53.4900586 18.6089984,53.8518517 C18.9663054,54.2157483 19.1452217,54.6364379 19.1452217,55.1170759 C19.1452217,55.9595069 18.7067323,56.5190241 17.8279146,56.7958905 C18.3504762,56.9313 18.7382594,57.1695155 18.992578,57.514481 C19.2447947,57.8591836 19.371954,58.2485845 19.371954,58.6847871 C19.371954,59.2687569 19.1743842,59.7575457 18.7813465,60.1519422 C18.3872578,60.5460759 17.780624,60.7435371 16.9598686,60.7435371 L14.0199672,60.7435371 Z" id="Fill-16" fill="#1D1D1B"></path>
                    <path d="M23.867376,57.8699112 L22.7216289,54.2995707 L21.5706273,57.8699112 L23.867376,57.8699112 Z M25.7603153,60.7434845 L24.8102989,60.7434845 L24.0638949,58.5672043 L21.3165714,58.5672043 L20.6460952,60.7434845 L19.8671133,60.7434845 L22.2791987,53.3075319 L23.3429754,53.3075319 L25.7603153,60.7434845 Z" id="Fill-18" fill="#1D1D1B"></path>
                    <mask id="mask-8" fill="white">
                        <use xlink:href="#path-7"></use>
                    </mask>
                    <g id="Clip-21"></g>
                    <polygon id="Fill-20" fill="#1D1D1B" mask="url(#mask-8)" points="26.7281445 60.7433793 27.6571429 60.7433793 27.6571429 53.3076897 26.7281445 53.3076897"></polygon>
                    <polygon id="Fill-22" fill="#1D1D1B" mask="url(#mask-8)" points="37.6148177 60.7434319 36.6858194 60.7434319 36.6858194 57.2009621 33.2315008 57.2009621 33.2315008 60.7434319 32.3001379 60.7434319 32.3001379 53.3077422 33.2315008 53.3077422 33.2315008 56.3845612 36.6858194 56.3845612 36.6858194 53.3077422 37.6148177 53.3077422"></polygon>
                    <polygon id="Fill-23" fill="#1D1D1B" mask="url(#mask-8)" points="44.271711 59.9273991 44.271711 60.7435371 39.464092 60.7435371 39.464092 53.3075845 44.1713498 53.3075845 44.1713498 54.1231966 40.391514 54.1231966 40.391514 56.4864207 43.3892151 56.4864207 43.3892151 57.2449767 40.391514 57.2449767 40.391514 59.9273991"></polygon>
                    <path d="M48.6803284,57.8699112 L47.5322167,54.2995707 L46.3846305,57.8699112 L48.6803284,57.8699112 Z M50.5722167,60.7434845 L49.6216749,60.7434845 L48.8755337,58.5672043 L46.130312,58.5672043 L45.457734,60.7434845 L44.679803,60.7434845 L47.0908374,53.3075319 L48.1567159,53.3075319 L50.5722167,60.7434845 Z" id="Fill-24" fill="#1D1D1B" mask="url(#mask-8)"></path>
                    <polygon id="Fill-25" fill="#1D1D1B" mask="url(#mask-8)" points="55.9324795 59.9273991 55.9324795 60.7435371 51.5410181 60.7435371 51.5410181 53.3075845 52.4912972 53.3075845 52.4936617 59.9273991"></polygon>
                    <polygon id="Fill-26" fill="#1D1D1B" mask="url(#mask-8)" points="58.5179376 60.7434319 57.5889392 60.7434319 57.5889392 54.1230914 55.4595468 54.1230914 55.4595468 53.3077422 60.6536355 53.3077422 60.6536355 54.1230914 58.5179376 54.1230914"></polygon>
                    <polygon id="Fill-27" fill="#1D1D1B" mask="url(#mask-8)" points="66.9980164 60.7434319 66.0687553 60.7434319 66.0687553 57.2009621 62.6128604 57.2009621 62.615225 60.7434319 61.6859639 60.7434319 61.6859639 53.3077422 62.6128604 53.3077422 62.6128604 56.3845612 66.0687553 56.3845612 66.0687553 53.3077422 66.9980164 53.3077422"></polygon>
                    <path d="M74.7440657,57.8699112 L73.5964795,54.2995707 L72.4465287,57.8699112 L74.7440657,57.8699112 Z M76.635954,60.7434845 L75.6862003,60.7434845 L74.9400591,58.5672043 L72.194312,58.5672043 L71.5214713,60.7434845 L70.7461675,60.7434845 L73.1553629,53.3075319 L74.2209787,53.3075319 L76.635954,60.7434845 Z" id="Fill-28" fill="#1D1D1B" mask="url(#mask-8)"></path>
                    <path d="M81.5910936,53.3076634 L82.3621938,53.3076634 L82.3621938,58.1653142 C82.3621938,59.1381591 82.1223251,59.8378185 81.6454778,60.2608746 C81.1683678,60.6836677 80.5417668,60.8969047 79.7685649,60.8969047 C78.9086634,60.8969047 78.2715534,60.6781461 77.8574975,60.2427323 C77.4434417,59.8052151 77.2374647,59.1142323 77.2374647,58.1653142 L77.2374647,53.3076634 L78.1643612,53.3076634 L78.1643612,58.1653142 C78.1643612,58.7429737 78.231619,59.1510427 78.3661346,59.3868918 C78.5003875,59.6240556 78.7045255,59.797853 78.9777603,59.9103875 C79.2512578,60.0239737 79.5371034,60.079978 79.8355599,60.079978 C80.409353,60.079978 80.8446897,59.9295815 81.1428834,59.6274737 C81.4416026,59.3269435 81.5910936,58.8394694 81.5910936,58.1653142 L81.5910936,53.3076634 Z" id="Fill-29" fill="#1D1D1B" mask="url(#mask-8)"></path>
                    <polygon id="Fill-30" fill="#1D1D1B" mask="url(#mask-8)" points="86.3458259 60.7434319 85.4165649 60.7434319 85.4165649 54.1230914 83.2869097 54.1230914 83.2869097 53.3077422 88.4812611 53.3077422 88.4812611 54.1230914 86.3458259 54.1230914"></polygon>
                    <polygon id="Fill-31" fill="#1D1D1B" mask="url(#mask-8)" points="94.825642 60.7434319 93.8966437 60.7434319 93.8966437 57.2009621 90.4425878 57.2009621 90.4425878 60.7434319 89.5138522 60.7434319 89.5138522 53.3077422 90.4425878 53.3077422 90.4425878 56.3845612 93.8966437 56.3845612 93.8966437 53.3077422 94.825642 53.3077422"></polygon>
                    <path d="M99.2635008,60.1356405 C99.9126962,60.1356405 100.421596,59.8411578 100.787573,59.2479853 C101.155126,58.6566534 101.335882,57.8952052 101.335882,56.9612741 C101.335882,56.0002612 101.146982,55.2551147 100.768657,54.7203129 C100.390069,54.1860371 99.8853727,53.9188991 99.2571954,53.9188991 C98.6224499,53.9188991 98.1195928,54.2094379 97.745734,54.7865716 C97.3716125,55.364494 97.1863908,56.119369 97.1863908,57.0533 C97.1863908,57.964356 97.3752906,58.7058216 97.7520394,59.2790112 C98.128,59.8493086 98.6326962,60.1356405 99.2635008,60.1356405 M99.2424828,60.8970888 C98.2877373,60.8970888 97.5439606,60.5245155 97.0122036,59.7801578 C96.4775567,59.0381664 96.21089,58.1260586 96.21089,57.0469897 C96.21089,55.9205931 96.4904302,54.9900802 97.0495107,54.2559767 C97.6067521,53.5213474 98.3486897,53.1550845 99.2674417,53.1550845 C100.188558,53.1550845 100.923665,53.5147741 101.47933,54.2365198 C102.031842,54.9582655 102.311645,55.8685328 102.311645,56.9649552 C102.311645,58.0190457 102.04025,58.9372009 101.502187,59.7212612 C100.963862,60.503481 100.209314,60.8970888 99.2424828,60.8970888" id="Fill-32" fill="#1D1D1B" mask="url(#mask-8)"></path>
                    <path d="M104.579337,56.7653116 L106.52377,56.7653116 C107.036874,56.7653116 107.419665,56.6285875 107.671882,56.3590832 C107.923573,56.0893159 108.052309,55.7577599 108.052309,55.3644151 C108.052309,54.9739625 107.917793,54.6676478 107.650864,54.4502039 C107.383672,54.2322341 107.047645,54.1231177 106.639895,54.1231177 L104.579337,54.1231177 L104.579337,56.7653116 Z M109.052768,60.7434582 L108.079632,60.7434582 L106.717399,57.5238677 L104.579337,57.5238677 L104.579337,60.7434582 L103.707087,60.7434582 L103.707087,53.3077685 L106.637268,53.3077685 C107.434115,53.3077685 108.020782,53.5246866 108.405412,53.9587858 C108.787941,54.3923591 108.979205,54.8674754 108.979205,55.3822944 C108.979205,55.7785315 108.872013,56.1592556 108.657629,56.5215746 C108.445346,56.8852082 108.092243,57.1439323 107.598319,57.3009022 L109.052768,60.7434582 Z" id="Fill-33" fill="#1D1D1B" mask="url(#mask-8)"></path>
                    <polygon id="Fill-34" fill="#1D1D1B" mask="url(#mask-8)" points="110.53688 60.7433793 111.465878 60.7433793 111.465878 53.3076897 110.53688 53.3076897"></polygon>
                    <polygon id="Fill-35" fill="#1D1D1B" mask="url(#mask-8)" points="115.567133 60.7434319 114.638135 60.7434319 114.638135 54.1230914 112.508479 54.1230914 112.508479 53.3077422 117.702831 53.3077422 117.702831 54.1230914 115.567133 54.1230914"></polygon>
                    <polygon id="Fill-36" fill="#1D1D1B" mask="url(#mask-8)" points="124.045163 53.3076634 121.5582 57.6144737 121.5582 60.743353 120.631304 60.743353 120.631304 57.6144737 118.144604 53.3076634 119.244112 53.3076634 121.213504 56.721297 123.189465 53.3076634"></polygon>
                </g>
            </g>
        </g>
    </g>
</svg>