<?xml version="1.0" encoding="UTF-8"?>
<svg width="144px" height="62px" viewBox="0 0 144 62" version="1.1" xmlns="http://www.w3.org/2000/svg" xmlns:xlink="http://www.w3.org/1999/xlink">
    <!-- Generator: Sketch 48.1 (47250) - http://www.bohemiancoding.com/sketch -->
    <title>Dubai GOV</title>
    <desc>Created with Sketch.</desc>
    <defs>
        <polygon id="path-1" points="0.14505 0.037275 0.14505 0.537275 0.11545 0.537275 0.11545 0.037275 0.14505 0.037275"></polygon>
        <polygon id="path-3" points="0 8.4784735 0 0.151926496 7.78315499 0.151926496 7.78315499 8.4784735 2.32257959e-16 8.4784735"></polygon>
    </defs>
    <g id="Logos" stroke="none" stroke-width="1" fill="none" fill-rule="evenodd" transform="translate(-243.000000, -552.000000)">
        <g id="Dubai-GOV" transform="translate(0.000000, 396.000000)">
            <g id="Logo/Dubai-GOV" transform="translate(216.000000, 128.000000)">
                <g id="Page-1" transform="translate(27.000000, 28.000000)">
                    <path d="M99.5086399,29.875804 C99.5229476,29.917314 99.4190843,29.917314 99.3503721,29.875804 C99.2768906,29.8463054 97.06909,29.1455818 96.519392,28.2067499 C96.519392,28.2067499 98.4659447,25.895086 99.5086399,29.875804 M93.6022125,31.0024023 C93.8994946,30.4583567 94.2024291,30.316163 94.2941043,30.2329664 C94.3684689,30.1554222 94.5825544,30.3695077 94.5825544,30.3543168 C95.1891299,31.4563624 99.439751,33.8211943 100.31411,33.0104251 C101.184053,32.1970063 101.745056,30.5325447 101.766606,30.140408 C101.798577,29.7544536 100.969968,25.0394507 99.1043151,24.6566758 C97.2330103,24.2700148 95.5159105,27.1584023 95.5159105,27.1584023 C95.5159105,27.1584023 95.2537795,26.9649835 95.1891299,26.9913026 C95.1324291,27.0153254 93.8373179,28.6342142 93.6350672,28.9018211 C91.636053,31.6017356 89.6391584,31.281314 89.6366855,31.2933254 C85.9318764,31.3411943 84.7229647,28.0430063 84.6309362,27.9151202 C83.8049761,26.1157071 83.6802695,26.2490689 83.4573521,26.1157071 C83.1784405,25.948784 82.0636769,26.0558268 80.4808222,27.4189436 C78.8614034,28.7947783 77.5901385,32.4727385 77.5694718,32.5174279 C75.6117909,38.9198553 74.6969818,38.7679464 73.9833635,38.7416274 C73.26109,38.7200775 72.6707652,37.8851088 72.0641897,36.739257 C71.4641499,35.591992 71.1437282,32.6269436 71.1525601,31.4235077 C71.1673977,30.4465219 71.2334604,29.9604137 71.1977795,29.8148638 C71.6436142,29.0371259 71.7223949,28.1800775 71.7610786,27.8086074 C71.7851014,27.5625504 72.0406969,25.2710234 70.9957054,24.2641858 C70.3235972,23.613804 69.8865943,23.2990348 68.4874433,22.6302826 C67.0973009,21.9558781 63.4018536,20.102237 61.9491812,18.3731259 C61.9339903,18.3731259 61.3994832,17.8386188 61.3994832,17.8386188 L61.3403094,17.651559 L62.4095003,17.6452 L62.8784746,17.6245333 C62.8784746,17.6245333 62.7864462,17.2921003 62.4095003,17.0483396 C62.1984177,16.9412969 59.3077339,15.1674963 58.5893464,14.9389265 C58.5677966,14.9509379 58.0396484,18.1894222 58.0396484,18.1894222 C58.0396484,18.1894222 58.755563,18.2341117 58.9306114,18.494653 C59.1031869,18.744596 60.4814946,20.7022769 61.0518593,21.2574507 C61.6135687,21.8136843 63.8771869,24.1188125 68.5234775,25.9989493 C70.2676028,26.4838211 70.7991071,27.5561915 70.7991071,27.5561915 C70.7991071,27.5561915 68.8711014,29.1213823 67.2458536,30.2089436 C66.7376655,30.5563909 59.2190615,35.3632456 56.0222638,36.7775875 C55.9238764,36.8279293 52.9116655,38.2037641 52.1574205,36.9293197 C51.515694,35.8385789 51.3911641,34.7128638 52.6679048,31.3915362 C52.6679048,31.3961288 52.7279618,31.2488125 52.7996769,31.0705846 C53.423033,30.6279293 53.9586,30.1669037 54.370167,29.6890974 C54.5547538,29.4575248 56.0816142,26.5843282 55.9954148,25.7883966 C56.0992781,24.7992228 55.2498251,23.9850974 54.6946513,23.8429037 C54.1361214,23.7030063 51.4409761,22.9607726 51.1710729,22.8680376 C51.2604519,22.9607726 53.8628621,21.3802142 53.811637,18.5070177 C53.9043721,16.2345675 53.3490217,15.6258724 53.2093009,15.301388 C53.0694034,14.9802598 50.9393236,11.6508068 50.9393236,11.6508068 L50.7762866,11.2968239 L50.7139333,11.0442313 L52.2704689,11.1065846 C52.2704689,11.1065846 52.3056199,10.8516957 52.0235288,10.5185561 C51.8180986,10.2811544 48.8122467,7.52471567 48.8122467,7.52471567 L47.8462125,10.7621402 C47.8462125,10.7621402 48.5215003,11.1457983 48.5774946,11.3208467 C48.6340188,11.4966017 49.2637339,13.3407043 49.593694,13.8847499 C49.9172952,14.4280889 51.7294262,17.6688695 52.0827026,18.1682256 C52.0827026,18.1922484 52.4509932,18.6589265 52.4693635,19.4810006 C52.4693635,19.4993709 52.3949989,19.6535761 52.3471299,19.6896103 C52.3056199,19.7222883 50.3007766,20.9967328 47.9838137,21.2341345 L46.5751242,21.263633 L45.2383265,23.8429037 C45.2383265,23.8429037 46.7683664,24.4037299 46.8930729,24.5173083 C47.0241385,24.6298268 48.9641556,25.4232855 50.1873749,25.7883966 C51.3107937,26.1271886 53.0127026,26.4979521 53.2979732,26.7335875 C53.9370501,27.030163 53.9930444,27.6093595 53.9930444,27.6093595 C53.9930444,27.6093595 49.6376769,31.0202427 39.8881328,33.1704593 C39.0061783,33.3103567 26.0533009,36.005502 14.541261,31.7299749 C14.3605601,31.6435989 8.90897607,29.8464821 5.03212137,26.6258382 C4.65411567,26.2573709 1.59809858,23.5161231 1.59809858,23.5161231 L5.2991453e-05,21.8013197 L0.744759544,23.471257 C0.744759544,23.471257 5.40376809,30.3428353 5.62898177,30.5714051 C5.86391054,30.8029778 9.9931812,34.3793709 20.1590615,36.69969 C24.6126399,37.7215419 33.438543,37.3060889 37.4727823,36.6046587 C40.8031185,36.0318211 48.0459903,34.1214792 52.2036997,31.4710234 C51.9864348,31.9809778 51.7453236,32.6085732 51.4886684,33.3753595 C50.9396769,34.7688581 50.1877282,38.4348068 51.550845,39.6882313 C52.9091926,40.9427157 54.2723094,40.4937014 56.7563721,39.3743453 C59.501506,38.1366416 68.6911071,32.5778382 70.7590103,30.4002427 C70.7413464,30.4527043 70.7265088,30.5044593 70.7162638,30.553388 C70.3854205,32.2378097 70.6618593,34.4629208 70.6618593,34.6386758 C70.7897453,36.7625732 72.1537453,40.7318097 74.0522524,40.7376387 C75.9442239,40.7494735 76.7191356,37.9395134 76.8918877,37.4816672 C77.2817282,36.4501003 77.8250672,33.9851145 78.983637,31.5130632 C80.1031698,29.1095476 82.3489476,29.0887043 82.5543778,29.1607726 C82.7677567,29.2286017 84.8626855,34.077143 88.4719333,34.2846929 C92.0787083,34.4957755 93.2996313,31.5513937 93.6022125,31.0024023" id="Fill-1" fill="#EB0029"></path>
                    <polygon id="Fill-3" fill="#EB0029" points="58.7731031 23.5990194 57.3532855 26.417988 60.2736444 28.6015892 61.7118325 25.6757544"></polygon>
                    <polygon id="Fill-5" fill="#EB0029" points="31.3378558 40.0244621 29.9092063 42.8409578 32.8320382 45.0270319 34.2765852 42.1042"></polygon>
                    <polygon id="Fill-7" fill="#EB0029" points="38.9613299 41.4922547 36.032139 39.4125168 34.6059624 42.2344883 37.5286177 44.4119071"></polygon>
                    <polygon id="Fill-9" fill="#EB0029" points="74.8622621 24.2135436 76.3006268 21.2908883 73.368963 19.2109738 71.9396068 22.0363014"></polygon>
                    <polygon id="Fill-11" fill="#EB0029" points="76.6367516 21.418633 79.5539311 23.6022342 80.994592 20.6755162 78.0565692 18.6021373"></polygon>
                    <path d="M36.4033618,21.0500068 C36.4033618,21.0500068 33.0938689,22.4609926 32.1015157,22.8204513 C31.9176353,22.8861607 31.8314359,23.0850553 31.8314359,23.0850553 C31.8314359,23.0850553 35.5715726,22.8269869 36.4777265,22.4170097 C37.6242849,21.5461835 39.0384501,19.2825652 39.1336581,19.0213174 C39.2429972,18.75689 39.2429972,18.635363 39.1543248,18.5754826 C39.0713048,18.5163088 38.5871396,17.6398302 36.2731795,17.5917846 C33.9463248,17.562286 33.5485356,17.6749812 33.5485356,17.6749812 L31.9352991,20.3397447 L31.9352991,20.4259442 C31.9352991,20.4259442 35.9160171,20.4649812 36.4185527,20.6368501 C36.8285299,20.7831066 36.4033618,21.0500068 36.4033618,21.0500068" id="Fill-13" fill="#EB0029"></path>
                    <path d="M54.8075407,3.2638849 L56.0699738,0.810203989 C56.0699738,0.810203989 41.9761903,5.47716125 34.2904866,8.04442051 C26.5993071,10.6076171 15.3796034,15.1915544 15.3796034,15.1915544 L13.760008,17.9785516 C13.760008,17.9785516 32.9810678,10.8840558 33.8718541,10.5516228 C34.7635236,10.2121242 54.8075407,3.2638849 54.8075407,3.2638849" id="Fill-15" fill="#EB0029"></path>
                    <path d="M65.3891744,2.42391738 C65.0918923,2.23297151 65.0918923,1.92138177 65.0918923,1.92138177 C66.2976245,1.08959259 66.7938011,1.61526781 66.9575447,1.97808262 C67.2550034,2.64294872 66.8178239,3.62964957 66.8178239,3.62964957 C66.8178239,3.62964957 65.5762342,2.54208832 65.3891744,2.42391738 M60.2850376,10.1776268 C58.6302912,11.2729601 54.1359094,14.3572393 54.1359094,14.3572393 C54.1359094,14.3572393 55.1459265,13.9792336 55.2912997,13.8785499 C55.9241943,13.5909829 58.8060462,11.9569031 61.2510718,10.5513932 C63.6752541,9.14358689 66.5389123,5.44496011 66.5389123,5.44496011 C66.5389123,5.44496011 66.6788097,5.54246439 66.6962969,5.52250427 C67.1981259,5.74453846 67.7478239,6.83439601 67.7478239,6.83439601 C67.7478239,6.83439601 67.7478239,6.94797436 67.9052085,6.72823647 C68.0625932,6.51079487 68.2113225,5.26037322 68.2113225,4.94012821 C68.2113225,4.61334758 67.4035561,3.97709687 67.4035561,3.97709687 C68.7313453,0.973717949 67.6854707,0.325809117 67.4178638,0.150760684 C66.7938011,-0.265575499 66.0220689,0.254623932 65.3061544,0.809974359 C64.5158752,1.44039601 64.0852313,2.12027635 64.2002228,3.08560399 C64.3169806,3.97709687 65.8263538,4.92723362 66.0603994,5.07914245 C66.0810661,5.09433333 66.0930775,5.09980912 66.0930775,5.09980912 L66.1345875,5.12065242 C65.4898581,5.99713105 62.9026387,8.44533618 60.2850376,10.1776268" id="Fill-17" fill="#EB0029"></path>
                    <path d="M82.5957111,3.21938974 C82.3016085,3.02685413 82.3016085,2.72003362 82.3016085,2.72003362 C83.5073407,1.89460342 84.0010444,2.41727578 84.1640815,2.77991396 C84.458184,3.44795954 84.0250672,4.42918462 84.0250672,4.42918462 C84.0250672,4.42918462 82.7705829,3.34162336 82.5957111,3.21938974 M78.4487766,11.3534011 C80.8906228,9.94559487 83.7429761,6.23813618 83.7429761,6.23813618 C83.7429761,6.23813618 83.8756313,6.34199943 83.902657,6.32115613 C84.4021897,6.54089402 84.9455288,7.62827863 84.9455288,7.62827863 C84.9455288,7.62827863 84.9455288,7.74662621 85.1092724,7.53006781 C85.2723094,7.30715043 85.4178593,6.05920171 85.4178593,5.73878006 C85.4178593,5.4206547 84.6067368,4.77910484 84.6067368,4.77910484 C85.9378821,1.78120171 84.8895345,1.12198803 84.6251071,0.947116239 C84.0010444,0.533959544 83.2195972,1.05645527 82.509335,1.60703647 C81.7165829,2.24222735 81.2827595,2.91892821 81.4074661,3.88496239 C81.5201613,4.77345242 83.0238821,5.73242108 83.2755915,5.87532137 C83.2914889,5.89369174 83.3027937,5.89934416 83.3027937,5.89934416 L83.3354718,5.92566325 C82.7002809,6.79648946 80.1035231,9.24398803 77.4947538,10.9730991 C75.8311755,12.0788541 71.33909,15.1558912 71.33909,15.1558912 C71.33909,15.1558912 72.3586456,14.7819481 72.501016,14.6780849 C73.1217225,14.3896348 76.0125829,12.7643869 78.4487766,11.3534011" id="Fill-19" fill="#EB0029"></path>
                    <path d="M134.500415,10.3193259 C134.736227,10.8570125 134.379065,11.6416393 134.379065,11.6416393 C134.379065,11.6416393 133.389891,10.7739926 133.238866,10.6733088 C133.000757,10.5247561 133.000757,10.268984 133.000757,10.268984 C133.966791,9.60977037 134.364581,10.031759 134.500415,10.3193259 M132.288022,11.2102889 C132.376871,11.920551 133.588786,12.6876906 133.782205,12.8067447 C133.797395,12.8154 133.803048,12.8178729 133.803048,12.8178729 L133.835726,12.8330638 C133.315526,13.536967 131.250979,15.4976507 129.156757,16.8759584 C127.823139,17.7580895 124.239504,20.2269613 124.239504,20.2269613 C124.239504,20.2269613 125.048153,19.9210239 125.170564,19.8434798 C125.669036,19.6094342 127.983703,18.3023117 129.928489,17.1820724 C131.875042,16.0530011 134.156148,13.0974912 134.156148,13.0974912 C134.156148,13.0974912 134.275202,13.1750353 134.290393,13.1534855 C134.693834,13.3315368 135.124478,14.2025396 135.124478,14.2025396 C135.124478,14.2025396 135.124478,14.3000439 135.255544,14.1195197 C135.386609,13.9437647 135.496125,12.9489385 135.496125,12.6931664 C135.496125,12.4319185 134.854398,11.9237305 134.854398,11.9237305 C135.909281,9.52039145 135.083851,8.9945396 134.86641,8.85464217 C134.364581,8.52238575 133.740518,8.93783875 133.182165,9.38685299 C132.546267,9.89186154 132.189811,10.4360838 132.288022,11.2102889" id="Fill-21" fill="#EB0029"></path>
                    <path d="M91.0567504,6.88574473 C91.763833,7.10230313 92.2926877,7.5241151 92.2926877,7.5241151 L92.2926877,7.15264501 L92.3190068,7.12314644 C92.3190068,7.12314644 93.5401066,8.39511795 94.0537704,11.0174883 C94.0537704,11.0174883 94.1703516,10.8392604 94.2710353,10.5954997 C94.3773715,10.3494427 94.4755823,9.98680456 94.624135,8.39105527 C94.7640325,6.79636581 94.8767276,5.85735726 95.4352575,5.89904387 C95.7051607,5.91423476 96.3797419,6.5261094 96.3797419,6.5261094 L96.8080895,5.41470199 C96.8080895,5.41470199 95.9522775,4.60057664 95.473588,4.61258803 C94.9989613,4.6221265 94.6984997,5.30536296 94.6066479,5.68796125 C94.556306,5.97658803 94.2263459,9.02147692 94.2263459,9.02147692 L94.1433259,9.74622336 C94.1433259,9.74622336 93.837212,8.48379031 93.8340325,8.48379031 C93.1421407,5.72646838 91.6415994,5.13278746 91.5681179,5.13278746 C91.4785624,5.13278746 91.2173145,5.26932877 91.1245795,5.37654815 C91.0270752,5.47705527 90.8873544,6.74584729 90.8873544,6.77552251 C90.8873544,6.81385299 91.0415595,6.89139715 91.0567504,6.88574473" id="Fill-23" fill="#EB0029"></path>
                    <path d="M119.522399,13.0583481 C119.463225,13.3404393 119.142097,16.3798524 119.142097,16.3798524 L119.043709,17.1141373 C119.043709,17.1141373 118.749607,15.8453453 118.73212,15.8453453 C118.052239,13.0912028 116.551698,12.4918695 116.468501,12.4918695 C116.385305,12.4918695 116.129709,12.6340632 116.022843,12.734747 C115.930815,12.8449692 115.794274,14.1074023 115.794274,14.140257 C115.794274,14.1697556 115.951481,14.2529521 115.960313,14.2472997 C116.673932,14.4702171 117.208262,14.8913225 117.208262,14.8913225 L117.208262,14.5173795 L117.229282,14.4845248 C117.229282,14.4845248 118.453208,15.7557897 118.958217,18.3822228 C118.958217,18.3822228 119.068615,18.2008154 119.177954,17.9579379 C119.284997,17.7109977 119.382501,17.351539 119.522399,15.7557897 C119.682963,14.1577442 119.783647,13.2252712 120.348536,13.2613054 C120.609783,13.2756131 121.295316,13.8844849 121.295316,13.8844849 L121.714832,12.776257 C121.714832,12.776257 120.867852,11.9716701 120.389162,11.974143 C119.899521,11.9836815 119.602239,12.6637385 119.522399,13.0583481" id="Fill-25" fill="#EB0029"></path>
                    <path d="M92.8238211,19.7931026 C92.8238211,19.7754387 93.177804,19.0268462 93.177804,19.0268462 C93.177804,19.0268462 92.8957128,19.1275299 92.7823111,19.2792621 C92.667143,19.4368234 91.7843054,20.5745499 91.2881288,22.5912279 C90.7742883,24.6863333 91.9392171,25.0632792 91.9392171,25.0632792 C91.9392171,25.0632792 92.6848068,25.4109031 93.3615077,23.7386695 C93.3615077,23.7330171 93.6141003,23.192151 93.5939635,22.9005214 C93.5939635,22.9005214 93.5876046,22.6719516 93.4093766,22.8381681 C93.0705846,23.132094 93.1274621,23.5157521 93.0115875,23.6586524 C92.7823111,23.9144245 92.7680034,23.8808632 92.695935,23.9080655 C92.6192741,23.9255527 91.52871,23.8872222 91.873861,22.2204644 C92.2598154,20.9580313 92.4739009,20.5362194 92.8238211,19.7931026" id="Fill-27" fill="#EB0029"></path>
                    <path d="M41.4271105,24.896886 C41.4271105,24.8792222 41.7747345,24.1306296 41.7747345,24.1306296 C41.7747345,24.1306296 41.4982957,24.2408519 41.3767687,24.3862251 C41.2601875,24.5349544 40.3812359,25.6751538 39.8882387,27.6990741 C39.3743983,29.7987721 40.5386205,30.1702422 40.5386205,30.1702422 C40.5386205,30.1702422 41.2872131,30.5178661 41.9529624,28.8454558 C41.9529624,28.8368006 42.2076746,28.299114 42.193367,28.0081909 C42.193367,28.0081909 42.1815322,27.7813875 42.0008313,27.9362991 C41.6645123,28.2422365 41.7203299,28.6227151 41.6085179,28.7592564 C41.3767687,29.018208 41.3615778,28.9846467 41.2872131,29.0053134 C41.219384,29.0236838 40.1222843,28.9941852 40.4642558,27.3242479 C40.8631048,26.0649943 41.0731276,25.6463618 41.4271105,24.896886" id="Fill-29" fill="#EB0029"></path>
                    <path d="M103.144737,10.6287077 C103.144737,10.6287077 96.017563,13.1177162 92.8423151,14.2323031 C89.666184,15.3548387 83.7216028,17.9245709 83.7216028,17.9245709 L83.1454091,19.4698017 C83.1454091,19.4698017 100.599027,12.6342575 101.994822,12.3721265 C101.970976,12.3489869 103.144737,10.6287077 103.144737,10.6287077" id="Fill-31" fill="#EB0029"></path>
                    <g id="Group-35" transform="translate(143.076923, 26.522399)">
                        <mask id="mask-2" fill="white">
                            <use xlink:href="#path-1"></use>
                        </mask>
                        <g id="Clip-34"></g>
                        <path d="M0.13095,0.037275 L0.11545,0.114275 C0.17195,0.071275 0.13095,0.037275 0.13095,0.037275" id="Fill-33" fill="#000000" mask="url(#mask-2)"></path>
                    </g>
                    <path d="M131.729404,29.4427402 C129.421096,30.2865407 125.939028,31.016763 125.939028,31.016763 C125.939028,31.016763 124.650099,26.8938513 124.724464,26.5847345 C124.783638,26.2722615 125.36619,25.3606319 126.203455,25.0785407 C127.050435,24.7844382 128.856031,24.674216 130.707375,25.6075721 C132.498663,26.4983584 135.348014,27.7344724 135.612441,27.8023014 C135.873866,27.8734866 136.03125,27.9151732 136.03125,27.9151732 C136.03125,27.9151732 132.156868,29.288535 131.729404,29.4427402 M106.492578,30.669139 C106.459723,30.6428199 106.388715,30.4702444 106.45672,30.3992359 C106.51978,30.3273442 106.917746,29.4275493 107.981284,29.664951 C108.001951,29.664951 109.300242,30.1402843 109.74537,31.0854752 C109.74537,31.0854752 107.282857,31.3172245 106.492578,30.669139 M142.168544,26.4983584 C141.019512,26.3586376 137.385535,25.5508712 133.458338,23.5156462 C129.52178,21.4751219 127.469068,22.0248199 127.409894,22.0391276 C123.586561,23.0106376 123.518025,27.2711504 123.553883,27.8383356 C123.586561,28.3968655 124.27545,30.9425749 124.27545,30.9425749 C124.27545,30.9425749 123.946196,30.847367 123.904686,30.847367 C121.070526,29.6889738 119.258395,26.5847345 118.978601,26.166102 C116.616772,22.1724895 111.643877,17.0190707 111.18921,16.5077031 C110.720236,16.0002217 106.451244,12.0099652 106.451244,12.0099652 L108.996777,10.6579766 C116.846225,7.31651225 124.492715,5.15057493 128.355085,4.62472308 C131.078846,4.25643248 130.722566,6.1100735 130.585142,6.29713333 C130.446128,6.48472308 129.156669,8.71001083 128.972789,8.98892251 C128.788202,9.27101368 127.133455,12.6068256 126.771524,13.6352131 C126.227478,15.2396177 126.441387,15.6430593 126.441387,15.6430593 C126.441387,15.6430593 126.958407,14.6067231 126.958407,14.5588541 C127.739854,12.7347117 129.225205,10.1028028 130.487814,7.92785698 C131.292225,6.54707635 132.287934,5.27828433 132.400629,3.09450655 C132.505199,0.860563533 126.507096,2.17086553 126.403233,2.20937265 C114.367638,5.05854644 105.845375,9.54745242 105.845375,9.54745242 L104.915375,11.2677316 L104.26729,13.3531219 C104.26729,13.3531219 106.864048,16.5077031 106.911387,16.5077031 C110.559495,20.9077601 115.236168,28.3465236 115.268316,28.4798855 C115.359991,28.8306889 115.580612,29.1694809 115.390373,29.3803869 C114.998059,29.8438855 112.398828,30.6484724 112.398828,30.6484724 L112.158424,30.253686 C108.206498,23.1001932 105.105438,29.0887573 105.010407,29.4572245 C103.822338,31.8245293 105.057569,32.8649282 105.057569,32.9120906 C106.650139,35.0630137 110.812088,33.6366604 110.958344,33.8212473 C111.097358,34.0114866 111.329108,34.7130934 111.329108,34.7602558 C105.851028,40.7247972 100.084675,42.1453214 99.0898484,42.219686 C93.3266746,42.6353157 93.6557516,37.807441 93.8435179,36.129555 C94.0063783,34.6028712 95.1739567,31.0734638 95.1739567,31.0734638 L94.6306177,31.5873043 C94.6306177,31.5873043 94.5650849,31.729498 94.3780251,32.0562786 C93.0947487,34.4748085 92.7681447,37.8139766 92.7681447,38.2750023 C92.675233,46.6934011 99.4604353,46.5568598 104.801974,42.8677715 C110.295068,39.0764097 111.082168,37.7300735 111.774766,36.6882615 C112.312629,35.8684838 112.597723,33.2987516 112.597723,33.2987516 L114.703957,32.3600963 C114.703957,32.3600963 115.999244,31.3643869 116.246185,29.2222957 C116.495421,27.0809111 115.862703,25.9191618 115.862703,25.9191618 L115.901034,25.6043926 C115.901034,25.6043926 117.377552,28.1179538 119.849603,31.2605236 C122.32978,34.4038 125.060076,34.1418456 125.060076,34.1418456 L125.258971,36.1528712 L125.487541,36.0889282 C125.487541,36.0889282 125.577096,36.0728541 125.781467,35.579857 C125.995729,35.0893328 126.037062,33.9636177 126.037062,33.9636177 C126.037062,33.9636177 126.729837,33.7853897 126.744321,33.8094125 C129.37941,33.3755892 136.271831,29.8375265 138.969096,29.3501818 C140.175005,29.1336234 141.817564,29.3803869 141.817564,29.3803869 L143.158424,26.5759026 C143.107199,26.5870308 142.917843,26.5935664 142.168544,26.4983584" id="Fill-36" fill="#EB0029"></path>
                    <g id="Group-40" transform="translate(0.000000, 53.371402)">
                        <mask id="mask-4" fill="white">
                            <use xlink:href="#path-3"></use>
                        </mask>
                        <g id="Clip-39"></g>
                        <path d="M6.82595271,4.81022849 C6.58872764,4.81022849 6.39848832,4.80475271 6.2739584,4.79256467 C6.14271624,4.78072991 6.0453886,4.76871852 5.96219202,4.75034815 C5.96466496,4.86127692 5.98851111,5.06282108 6.0125339,5.36557892 C6.0365567,5.66356752 6.0453886,6.12688946 6.0453886,6.75978405 L6.0453886,7.22328262 C6.0365567,7.36229687 6.02701823,7.47746496 6.01818632,7.56666724 C5.96466496,7.60040513 5.89030028,7.63555613 5.79279601,7.65622279 C5.68257379,7.68360171 5.58436296,7.70426838 5.4508245,7.72175556 C5.33812934,7.73941937 5.21041994,7.75054758 5.07688148,7.76644501 C4.95235157,7.77227407 4.83877322,7.78410883 4.73808946,7.78410883 C4.29472764,7.78410883 3.88475043,7.70108889 3.54030598,7.53487236 C3.18720627,7.37095214 2.88692137,7.14573846 2.64316068,6.85728832 C2.4114114,6.56883818 2.21887578,6.21891795 2.08781026,5.82572137 C1.96628319,5.42545926 1.90092707,4.99393219 1.90092707,4.52813732 C1.90092707,3.92173846 1.98147407,3.38493504 2.16217493,2.93009174 C2.33475043,2.47542507 2.55766781,2.09512308 2.83092707,1.79784103 C3.10648262,1.48943077 3.42460798,1.26015442 3.77205527,1.11230826 C4.1316906,0.960576068 4.48479031,0.883208547 4.83877322,0.883208547 C5.38211225,0.883208547 5.8399584,0.989368091 6.21708091,1.20433675 C6.5862547,1.42407464 6.89148547,1.69980684 7.14390142,2.05378974 L7.31100114,2.05378974 C7.35251111,1.85153903 7.3996735,1.64928832 7.45319487,1.46152194 C7.51554815,1.26015442 7.572249,1.06443932 7.63778177,0.862188604 C7.21261368,0.639447863 6.79309801,0.457863818 6.36333732,0.338986325 C5.92315499,0.217459259 5.41249402,0.151926496 4.82128604,0.151926496 C4.14052251,0.151926496 3.50215214,0.247134473 2.90847123,0.434194302 C2.32839145,0.627259829 1.80889858,0.897516239 1.37754815,1.27216581 C0.941251852,1.63727692 0.605639316,2.1007755 0.358699145,2.66001197 C0.1151151,3.21854188 -5.2991453e-05,3.86256467 -5.2991453e-05,4.60568148 C-5.2991453e-05,5.20183533 0.103103704,5.73952194 0.334676353,6.21891795 C0.564129345,6.69425128 0.890909972,7.10652479 1.29753105,7.44531681 C1.70821481,7.78410883 2.1916735,8.03422849 2.75974188,8.21245641 C3.31827179,8.39298063 3.9359755,8.4784735 4.60154815,8.4784735 C5.11521197,8.4784735 5.64106382,8.43466724 6.15790712,8.34811453 C6.69259088,8.26527123 7.2039584,8.14374416 7.72080171,8.00066724 C7.69695556,7.92312308 7.69377607,7.81042792 7.68812365,7.64438803 C7.68494416,7.47746496 7.68494416,7.2967641 7.68494416,7.10016581 L7.68494416,6.71756752 C7.68494416,6.52485527 7.68494416,6.33143647 7.68812365,6.12688946 C7.69377607,5.91845641 7.69695556,5.72521425 7.70243134,5.53815442 C7.72080171,5.3599265 7.72963362,5.19618291 7.74164501,5.06034815 C7.75277322,4.91727123 7.7679641,4.81570427 7.78315499,4.75034815 C7.69695556,4.76871852 7.59609516,4.78072991 7.45637436,4.79256467 C7.31965641,4.80475271 7.11122336,4.81022849 6.82595271,4.81022849" id="Fill-38" fill="#EB0029" mask="url(#mask-4)"></path>
                    </g>
                    <path d="M16.0206234,59.096563 C15.8727772,59.563241 15.6913698,59.9530815 15.4500821,60.2551328 C15.212857,60.5610701 14.9364182,60.7839875 14.621649,60.9327168 C14.2946917,61.0747339 13.9656148,61.1554575 13.6148114,61.1554575 C13.2848513,61.1554575 12.9755578,61.0932809 12.6823385,60.9772296 C12.3818769,60.8592353 12.1199225,60.6746484 11.8970051,60.4132239 C11.6772672,60.1512695 11.4933869,59.8068251 11.3632046,59.3786541 C11.232139,58.9541926 11.1722587,58.4253379 11.1722587,57.8046313 C11.1722587,57.3050986 11.2201276,56.8385972 11.3305265,56.3998279 C11.4455179,55.9573493 11.6180934,55.5696285 11.8321789,55.2469105 C12.0462644,54.9194234 12.3163442,54.6634746 12.6224581,54.4765915 C12.9428798,54.2808764 13.2936832,54.1856684 13.6948285,54.1856684 C14.0662986,54.1856684 14.4105664,54.266392 14.7318712,54.4151214 C15.043461,54.5684433 15.3135407,54.783412 15.5364581,55.0623236 C15.7505436,55.3419419 15.925592,55.6832068 16.0510051,56.0841755 C16.1820707,56.486204 16.2412444,56.9366313 16.2412444,57.4448194 C16.2412444,58.0808934 16.1659966,58.6364205 16.0206234,59.096563 M16.8644239,54.5541356 C16.4639852,54.2160501 16.0006632,53.9549789 15.4629766,53.7822268 C14.9275863,53.6128308 14.3538655,53.5232752 13.730686,53.5232752 C13.0562815,53.5232752 12.4410507,53.6391499 11.8913527,53.8565915 C11.3391818,54.0699704 10.8693242,54.3695487 10.480367,54.7539134 C10.0944125,55.1342154 9.793951,55.5696285 9.57421311,56.0841755 C9.36330712,56.5900672 9.26580285,57.1334063 9.26580285,57.7005915 C9.26580285,58.4341698 9.3696661,59.0644148 9.60689117,59.5902667 C9.84199658,60.1120558 10.1599453,60.5492353 10.560914,60.8880274 C10.9588798,61.2209903 11.4312103,61.4702268 11.9632444,61.6189561 C12.5065835,61.770865 13.0857801,61.8498222 13.6948285,61.8498222 C14.3427373,61.8498222 14.9452501,61.743486 15.491592,61.5327567 C16.0358142,61.3282097 16.4959567,61.026865 16.8884467,60.6497425 C17.2894154,60.2726199 17.5921732,59.8331442 17.8096148,59.3258393 C18.0293527,58.8201242 18.1484068,58.2766085 18.1484068,57.694939 C18.1484068,56.9935088 18.0293527,56.3782781 17.7976034,55.8556057 C17.5715066,55.33311 17.2599168,54.8929276 16.8644239,54.5541356" id="Fill-41" fill="#EB0029"></path>
                    <path d="M25.3285368,53.6780456 C25.0225994,54.5905584 24.6806279,55.5493504 24.2944969,56.5505356 C23.9166678,57.5517208 23.5218815,58.5385983 23.1209128,59.5309516 C22.9370325,59.0345983 22.7526222,58.5385983 22.55991,58.0334131 C22.3730268,57.5285812 22.1852604,57.0283419 22.0133915,56.5240399 C21.8321607,56.0246838 21.6595852,55.5316866 21.4901892,55.054057 C21.3239726,54.5690085 21.166588,54.1079829 21.0409983,53.6780456 C20.869306,53.690057 20.69991,53.7020684 20.5336934,53.7109003 C20.3611179,53.7229117 20.18289,53.725208 20.0166735,53.725208 C19.8384456,53.725208 19.6658701,53.7229117 19.4932946,53.7109003 C19.3216023,53.7020684 19.1370154,53.690057 18.9653231,53.6780456 C19.083494,53.9721481 19.2320467,54.328604 19.4102746,54.7472365 C19.5740182,55.1688718 19.7609014,55.6237151 19.9543202,56.1015214 C20.150212,56.5929288 20.352286,57.0914017 20.5600125,57.6172536 C20.7654427,58.1372764 20.9763487,58.6422849 21.1600524,59.1384615 C21.3534712,59.6371111 21.5371749,60.1062621 21.7009185,60.5552764 C21.867135,60.9945755 22.0133915,61.3718746 22.1197276,61.6818746 C22.2739328,61.6760456 22.4496877,61.6658006 22.6367476,61.6658006 C22.8236308,61.6658006 22.9962063,61.6760456 23.1504114,61.6818746 C23.3765083,61.0272536 23.6321037,60.3297094 23.9230268,59.5844729 C24.2114769,58.8404729 24.4992205,58.1038917 24.7963259,57.3823248 C25.0904285,56.6575783 25.3725197,55.9745185 25.6489584,55.332792 C25.9222177,54.6825869 26.153967,54.1358917 26.3537447,53.6780456 C26.153967,53.7109003 25.9789185,53.725208 25.8367248,53.725208 C25.6881721,53.725208 25.5155966,53.7109003 25.3285368,53.6780456" id="Fill-43" fill="#EB0029"></path>
                    <path d="M31.2724821,53.7109886 C30.8273538,53.7221168 30.31369,53.7254729 29.7424422,53.7254729 C29.38369,53.7254729 29.0480775,53.7221168 28.7029265,53.7078091 C28.3584821,53.6903219 28.0133311,53.683963 27.6690632,53.6783105 C27.6897299,54.1824359 27.7169322,54.6826752 27.7257641,55.1868006 C27.734596,55.6838604 27.7497869,56.2621738 27.7497869,56.9014274 L27.7497869,58.4842821 C27.7497869,59.135547 27.734596,59.7083846 27.7257641,60.2047379 C27.7169322,60.7070969 27.6897299,61.1995641 27.6690632,61.681963 C27.7257641,61.681963 27.7999521,61.675604 27.891804,61.675604 C27.9781801,61.6660655 28.1092456,61.6660655 28.2929493,61.6660655 L28.9825447,61.6660655 L30.137935,61.6660655 C30.6724422,61.6660655 31.0976103,61.6660655 31.3978952,61.675604 C31.7064821,61.675604 31.965257,61.681963 32.1818154,61.681963 C32.163445,61.6363903 32.1577926,61.5796895 32.1434849,61.5030285 C32.1403054,61.4406752 32.134653,61.3424644 32.134653,61.2168746 C32.134653,61.0930513 32.1403054,60.9948405 32.1434849,60.9261282 C32.1577926,60.854943 32.163445,60.7782821 32.1818154,60.6952621 C31.7303282,60.7479003 31.278841,60.7902934 30.8386587,60.8167892 C30.3935305,60.8431083 29.9510519,60.854943 29.5083966,60.854943 C29.4819009,60.3884416 29.4755419,59.8963276 29.4755419,59.3967949 L29.4755419,58.6482023 C29.4819009,58.3980826 29.4907328,58.1495527 29.4907328,57.899433 C30.3665048,57.899433 31.2549949,57.9379402 32.1403054,58.0034729 C32.1226416,57.873114 32.1106302,57.783735 32.0954393,57.7148462 C32.0834279,57.64949 32.0747726,57.5878433 32.0747726,57.5168348 C32.0747726,57.439114 32.0834279,57.3672222 32.0834279,57.2962137 C32.1017983,57.2283846 32.1162826,57.1277009 32.1403054,56.9900997 C31.6976501,57.0165954 31.2636501,57.0356724 30.8626815,57.0533362 C30.4558838,57.0644644 29.9925618,57.0796553 29.4907328,57.0884872 L29.4907328,55.8196952 C29.4907328,55.3985897 29.5138724,54.9758946 29.5322427,54.5452507 C29.6209151,54.5452507 29.7696444,54.553906 29.9740148,54.559735 C30.1737926,54.566094 30.4023624,54.5756325 30.661314,54.5901168 C30.9017185,54.6051311 31.1629664,54.6259744 31.4364023,54.6371026 C31.7031259,54.6522934 31.9475932,54.6708405 32.1818154,54.6826752 C32.163445,54.6019516 32.1489607,54.5221111 32.1434849,54.4588746 C32.134653,54.38451 32.134653,54.2808234 32.134653,54.1649487 C32.134653,53.9658775 32.1489607,53.7998376 32.1818154,53.6783105 C32.0244308,53.6903219 31.7183168,53.7014501 31.2724821,53.7109886" id="Fill-45" fill="#EB0029"></path>
                    <path d="M36.2665732,57.5368302 C36.2250632,57.5368302 36.1801972,57.5336507 36.1418667,57.5279983 C36.1003567,57.5279983 36.0524877,57.5225225 36.0053254,57.5136906 C36.0053254,56.4582775 36.0229892,55.3922661 36.0468353,54.3377362 C36.3617812,54.3377362 36.6325675,54.3495709 36.8641402,54.3847219 C37.0895305,54.4151037 37.2797698,54.4839926 37.4194906,54.5901521 C37.5673368,54.6940154 37.6720832,54.8489271 37.7430917,55.0534741 C37.8142769,55.2525453 37.8437755,55.5226251 37.8437755,55.8645966 C37.8437755,56.4287789 37.7128866,56.8442319 37.4428068,57.1279128 C37.1661915,57.397816 36.7804137,57.5368302 36.2665732,57.5368302 M37.8294678,57.759041 C38.4120205,57.6057191 38.8601516,57.3531265 39.1685618,56.9936678 C39.4842142,56.6363288 39.6295875,56.1761863 39.6295875,55.6088245 C39.6295875,55.2613772 39.5728866,54.9584427 39.4306929,54.7003744 C39.2939749,54.4590866 39.1125675,54.2457077 38.8753425,54.0699527 C38.7737755,54.0012405 38.6667328,53.9429499 38.5510348,53.8950809 C38.4469949,53.8406764 38.3104536,53.8000496 38.1650803,53.7671949 C38.0043396,53.7345168 37.8294678,53.7134969 37.6153823,53.7016621 C37.4042997,53.6839983 37.1573595,53.6785225 36.8611373,53.6785225 C36.459992,53.6785225 36.1300319,53.6839983 35.8599521,53.7016621 C35.5978211,53.7134969 35.3549436,53.7256849 35.1406815,53.7256849 C34.9483225,53.7256849 34.7780433,53.7223288 34.6150063,53.710494 C34.4544422,53.7016621 34.3177242,53.6896507 34.1868353,53.6785225 C34.2203966,54.1826479 34.2378838,54.682004 34.2619066,55.1870125 C34.2762142,55.6831892 34.2850462,56.2623858 34.2850462,56.9007561 L34.2850462,58.484494 C34.2850462,59.135759 34.2762142,59.7085966 34.2619066,60.2047732 C34.2378838,60.7064256 34.2203966,61.1994228 34.1868353,61.6814684 C34.3177242,61.675816 34.4544422,61.6662775 34.6118268,61.6662775 L35.1406815,61.6662775 L35.6577014,61.6662775 C35.8182655,61.6662775 35.9574564,61.675816 36.0883453,61.6814684 C36.0588467,61.1994228 36.0468353,60.7064256 36.0325276,60.2047732 C36.0173368,59.7031208 36.0053254,59.1302832 36.0053254,58.484494 L36.0053254,58.0091607 L36.1060091,58.0091607 L38.2065903,61.6814684 C38.3791658,61.675816 38.5510348,61.6662775 38.7267897,61.6662775 L39.2676558,61.6662775 L39.7869721,61.6662775 C39.9563681,61.6662775 40.134596,61.675816 40.3128239,61.6814684 C39.8876558,61.0372689 39.457012,60.3886536 39.0359066,59.7294399 C38.6043795,59.0702262 38.2065903,58.4110125 37.8294678,57.759041" id="Fill-47" fill="#EB0029"></path>
                    <path d="M47.5233709,53.6780456 C47.54969,53.7547066 47.552163,53.900963 47.5673538,54.1325356 C47.5823681,54.3492707 47.5943795,54.6255328 47.5943795,54.9309402 C47.6000319,55.246416 47.6000319,55.585208 47.6088638,55.9566781 L47.6088638,57.0762108 L47.6088638,58.2052821 L47.6088638,59.224661 C46.7419236,58.2851225 45.8917641,57.3558291 45.0631544,56.4496752 C44.2370177,55.5405185 43.3995761,54.6167009 42.5439407,53.6780456 C42.3298553,53.7109003 42.1516274,53.725208 42.0180889,53.725208 C41.893559,53.725208 41.7209835,53.7109003 41.5012456,53.6780456 C41.5076046,53.9543077 41.5250917,54.274906 41.5395761,54.6431966 C41.554767,55.0060114 41.5667783,55.4573219 41.5667783,55.9920057 C41.5667783,56.5895726 41.554767,57.2007407 41.5395761,57.8424672 C41.5164365,58.4815442 41.4924137,59.0761083 41.4652114,59.6258063 C41.4411886,60.1746211 41.4182256,60.6381197 41.3910234,61.0216011 C41.3613481,61.3996068 41.343861,61.6184615 41.3350291,61.681698 C41.5100775,61.6760456 41.6913083,61.6658006 41.8695362,61.6658006 L42.1339635,61.6658006 C42.2235191,61.6658006 42.3242028,61.6760456 42.4135818,61.681698 C42.3983909,61.5953219 42.3983909,61.4787407 42.3809037,61.342906 C42.3809037,61.1934701 42.3720718,61.0097664 42.3688923,60.7875556 C42.3634165,60.5607521 42.3561744,60.2850199 42.3561744,59.9557664 C42.3450462,59.6314587 42.3450462,59.2310199 42.3450462,58.7675214 L42.3450462,57.4127066 C42.3450462,57.1832536 42.3450462,56.949208 42.3561744,56.7287635 C42.3561744,56.5009003 42.3561744,56.2802792 42.3634165,56.0517094 C44.1603567,57.9415613 45.8559066,59.8185185 47.4666701,61.681698 C47.5943795,61.6760456 47.7431088,61.6658006 47.9148011,61.6658006 C48.0873766,61.6658006 48.2415818,61.6760456 48.3957869,61.681698 L48.3957869,60.2850199 C48.3957869,59.7233105 48.3957869,59.1974587 48.4023225,58.7012821 C48.4023225,58.214114 48.4141573,57.7152877 48.4229892,57.2104558 C48.4381801,56.7022678 48.4614963,56.1677607 48.4853425,55.5949231 C48.5125447,55.0203191 48.5445162,54.384245 48.5771943,53.6780456 C48.3606359,53.7109003 48.1880604,53.725208 48.0578781,53.725208 C47.9211601,53.725208 47.7431088,53.7109003 47.5233709,53.6780456" id="Fill-49" fill="#EB0029"></path>
                    <path d="M59.5599556,58.09211 C59.4735795,57.3528792 59.3912661,56.6011071 59.3082462,55.8341442 C59.2066792,55.0622353 59.1268387,54.3438479 59.0438188,53.6784519 C58.8535795,53.7109533 58.6898359,53.7254376 58.5587704,53.7254376 C58.4165766,53.7254376 58.2535396,53.7109533 58.0601208,53.6784519 C57.6383088,54.6171071 57.1892946,55.558412 56.7291521,56.5124348 C56.268833,57.4655744 55.802155,58.377204 55.3331806,59.2450274 C55.1279271,58.8318707 54.9113687,58.3980473 54.6707875,57.9417909 C54.4446906,57.4800587 54.2185937,57.0165601 53.9932034,56.5355744 C53.7582746,56.0577681 53.533061,55.5767823 53.3037846,55.0982695 C53.0695624,54.6171071 52.8554769,54.1385943 52.6413915,53.6784519 C52.5518359,53.6902866 52.4751749,53.7015915 52.3951578,53.7109533 C52.3177903,53.7222581 52.2434256,53.7254376 52.1747134,53.7254376 C52.0916934,53.7254376 52.0084969,53.7222581 51.9341322,53.7109533 C51.8599442,53.7015915 51.7832832,53.6902866 51.6969071,53.6784519 C51.5306906,55.0334433 51.3581151,56.3693578 51.1558644,57.6950274 C50.9666849,59.0189305 50.7460638,60.3477795 50.4902917,61.6819276 C50.5886792,61.6755687 50.6782348,61.6660302 50.7669071,61.6660302 L51.0433459,61.6660302 L51.3100695,61.6660302 C51.4052775,61.6660302 51.5003088,61.6755687 51.5930439,61.6819276 C51.6488615,60.8111014 51.7143943,59.9402752 51.7832832,59.0699789 C51.8454598,58.1989761 51.9341322,57.3202011 52.0597219,56.4260587 L52.0828615,56.4260587 C52.5198644,57.3202011 52.9529812,58.1989761 53.3691407,59.0699789 C53.7822974,59.9402752 54.2009299,60.8111014 54.6292775,61.6819276 C54.6644285,61.6819276 54.6948103,61.6755687 54.7387932,61.6755687 C54.7682917,61.6660302 54.8098017,61.6660302 54.8490154,61.6660302 C54.8848729,61.6660302 54.9256764,61.6660302 54.9560581,61.6755687 C54.9943886,61.6755687 55.0302462,61.6819276 55.0719328,61.6819276 C55.4905652,60.7870786 55.9148501,59.8962923 56.3431977,59.0132781 C56.7704855,58.1320302 57.2044855,57.2283493 57.6503202,56.310184 L57.6655111,56.310184 C57.7630154,57.2283493 57.8548672,58.1495174 57.9444228,59.0819903 C58.0394541,60.0144632 58.0986279,60.8822866 58.1401379,61.6819276 C58.3038815,61.6755687 58.470098,61.6660302 58.6306621,61.6660302 L59.1029926,61.6660302 L59.5783259,61.6660302 C59.7357105,61.6660302 59.8994541,61.6755687 60.0536593,61.6819276 C59.9826507,61.2920872 59.8994541,60.7847823 59.82191,60.1455288 C59.7325311,59.5071584 59.6493345,58.8198593 59.5599556,58.09211" id="Fill-51" fill="#EB0029"></path>
                    <path d="M65.4958638,53.7109886 C65.0443766,53.7221168 64.5370718,53.7254729 63.9601715,53.7254729 C63.6157271,53.7254729 63.2619208,53.7221168 62.9199493,53.7078091 C62.5875162,53.6903219 62.2430718,53.683963 61.8954479,53.6783105 C61.9162912,54.1824359 61.9434934,54.6826752 61.9578011,55.1868006 C61.9634536,55.6838604 61.966633,56.2621738 61.966633,56.9014274 L61.966633,58.4842821 C61.966633,59.135547 61.9634536,59.7083846 61.9578011,60.2047379 C61.9434934,60.7070969 61.9162912,61.1995641 61.8954479,61.681963 C61.9578011,61.681963 62.0258068,61.675604 62.1151858,61.675604 C62.2038581,61.6660655 62.3414593,61.6660655 62.5076758,61.6660655 L63.2114023,61.6660655 L64.3644963,61.6660655 C64.8901715,61.6660655 65.3176359,61.6660655 65.6269293,61.675604 C65.9296872,61.675604 66.1942912,61.681963 66.3986615,61.681963 C66.3811744,61.6363903 66.369163,61.5796895 66.3668667,61.5030285 C66.3580348,61.4406752 66.3580348,61.3424644 66.3580348,61.2168746 C66.3580348,61.0930513 66.3580348,60.9948405 66.3668667,60.9261282 C66.369163,60.854943 66.3811744,60.7782821 66.3986615,60.6952621 C65.95371,60.7479003 65.5022228,60.7902934 65.0618638,60.8167892 C64.6169123,60.8431083 64.167898,60.854943 63.7316017,60.854943 C63.7075789,60.3884416 63.6925647,59.8963276 63.6925647,59.3967949 C63.6925647,59.1532108 63.6989236,58.8974387 63.7052826,58.6482023 C63.7075789,58.3980826 63.7141145,58.1495527 63.7141145,57.899433 C64.5898866,57.899433 65.471841,57.9379402 66.3603311,58.0034729 C66.3428439,57.873114 66.327653,57.783735 66.3251801,57.7148462 C66.3068097,57.64949 66.3068097,57.5878433 66.3068097,57.5168348 C66.3068097,57.439114 66.3068097,57.3672222 66.3099892,57.2962137 C66.3251801,57.2283846 66.334012,57.1277009 66.3603311,56.9900997 C65.9153795,57.0165954 65.4895048,57.0356724 65.0835903,57.0533362 C64.6672541,57.0644644 64.2150604,57.0796553 63.7141145,57.0884872 L63.7141145,55.8196952 C63.7141145,55.3985897 63.7340746,54.9758946 63.7612769,54.5452507 C63.8467698,54.5452507 63.9928496,54.553906 64.1973966,54.559735 C64.3964678,54.566094 64.6200917,54.5756325 64.8718011,54.5901168 C65.1275732,54.6051311 65.3888211,54.6259744 65.6589009,54.6371026 C65.9240348,54.6522934 66.1702684,54.6708405 66.3986615,54.6826752 C66.3811744,54.6019516 66.369163,54.5221111 66.3668667,54.4588746 C66.3580348,54.38451 66.3492028,54.2808234 66.3492028,54.1649487 C66.3492028,53.9658775 66.3668667,53.7998376 66.3986615,53.6783105 C66.2444564,53.6903219 65.9416986,53.7014501 65.4958638,53.7109886" id="Fill-53" fill="#EB0029"></path>
                    <path d="M74.565563,53.6780456 C74.5862296,53.7547066 74.5989476,53.900963 74.6134319,54.1325356 C74.6279162,54.3492707 74.6342752,54.6255328 74.6429305,54.9309402 C74.6429305,55.246416 74.6429305,55.585208 74.6494661,55.9566781 C74.6581214,56.3194929 74.6581214,56.7022678 74.6581214,57.0762108 L74.6581214,58.2052821 L74.6581214,59.224661 C73.7872952,58.2851225 72.9348393,57.3558291 72.106053,56.4496752 C71.2744405,55.5405185 70.4426513,54.6167009 69.5868393,53.6780456 C69.3727538,53.7109003 69.1890501,53.725208 69.0643436,53.725208 C68.9269191,53.725208 68.7550501,53.7109003 68.5409647,53.6780456 C68.5441442,53.9543077 68.5586285,54.274906 68.5824746,54.6431966 C68.5976655,55.0060114 68.600845,55.4573219 68.600845,55.9920057 C68.600845,56.5895726 68.5976655,57.2007407 68.5824746,57.8424672 C68.5561556,58.4815442 68.5321328,59.0761083 68.5026342,59.6258063 C68.4842638,60.1746211 68.4522923,60.6381197 68.4339219,61.0216011 C68.4107823,61.3996068 68.3867595,61.6184615 68.3715687,61.681698 C68.5497966,61.6760456 68.7287311,61.6658006 68.9037795,61.6658006 L69.1738593,61.6658006 C69.2720701,61.6658006 69.35509,61.6760456 69.4589533,61.681698 C69.4478251,61.5953219 69.4414661,61.4787407 69.4262752,61.342906 C69.4206228,61.1934701 69.4117909,61.0097664 69.4054319,60.7875556 C69.4054319,60.5607521 69.3879447,60.2850199 69.3879447,59.9557664 L69.3879447,58.7675214 L69.3879447,57.4127066 L69.3879447,56.7287635 C69.3879447,56.5009003 69.3935972,56.2802792 69.4054319,56.0517094 C71.2032553,57.9415613 72.8995117,59.8185185 74.503033,61.681698 C74.6342752,61.6760456 74.7796484,61.6658006 74.9608792,61.6658006 C75.1214433,61.6658006 75.2790046,61.6760456 75.4363892,61.681698 L75.4363892,60.2850199 C75.4363892,59.7233105 75.4363892,59.1974587 75.4386855,58.7012821 C75.4386855,58.214114 75.4515801,57.7152877 75.4690672,57.2104558 C75.4867311,56.7022678 75.5042182,56.1677607 75.5252382,55.5949231 C75.5522638,55.0203191 75.5842353,54.384245 75.6177966,53.6780456 C75.3948792,53.7109003 75.2223037,53.725208 75.0953009,53.725208 C74.9608792,53.725208 74.7796484,53.7109003 74.565563,53.6780456" id="Fill-55" fill="#EB0029"></path>
                    <path d="M83.1042348,53.6785755 C82.8659499,53.6842279 82.6400296,53.6897037 82.4384855,53.6962393 C82.2275795,53.7018917 82.0168501,53.7073675 81.7994085,53.7107236 C81.5796707,53.7137265 81.348098,53.7137265 81.0746621,53.7225584 C80.8158872,53.7250313 80.5097732,53.7250313 80.1358302,53.7250313 C79.773192,53.7250313 79.4711407,53.7250313 79.2067134,53.7225584 C78.9445823,53.7137265 78.6985254,53.7137265 78.4810838,53.7107236 C78.2613459,53.7073675 78.0384285,53.7018917 77.8250496,53.6962393 C77.6109641,53.6897037 77.3672034,53.6842279 77.1059556,53.6785755 C77.1204399,53.7617721 77.1381037,53.844792 77.1532946,53.9304615 C77.1596536,54.016661 77.1619499,54.1053333 77.1619499,54.186057 C77.1619499,54.2747293 77.1596536,54.355453 77.1532946,54.4441254 C77.1381037,54.5280285 77.1204399,54.6167009 77.1059556,54.6997208 C77.281004,54.6765812 77.4687704,54.6518519 77.6733174,54.6317151 C77.8723886,54.6110484 78.0712832,54.5958575 78.2613459,54.5815499 C78.4515852,54.5686553 78.6416479,54.56 78.8168729,54.5543476 C78.9829128,54.5455157 79.1228103,54.5425128 79.2448672,54.5425128 C79.2625311,54.6253561 79.271363,54.7597778 79.2777219,54.9498405 C79.2809014,55.1335442 79.2809014,55.3389744 79.2809014,55.5643647 L79.2809014,58.4813675 C79.2809014,59.129453 79.271363,59.7031738 79.2570553,60.2041197 C79.2393915,60.7066553 79.2153687,61.1996524 79.1826906,61.6815214 C79.3096934,61.6758689 79.4527704,61.6663305 79.616514,61.6663305 L80.1358302,61.6663305 L80.6592091,61.6663305 C80.8134142,61.6663305 80.9524285,61.6758689 81.0836707,61.6815214 C81.0603544,61.1996524 81.0363316,60.7066553 81.0274997,60.2041197 C81.0123088,59.7031738 81.006833,59.129453 81.006833,58.4813675 L81.006833,55.5643647 L81.006833,54.9498405 C81.006833,54.8548091 81.006833,54.7716125 81.0123088,54.6997208 C81.0123088,54.6317151 81.0211407,54.5758974 81.0274997,54.5425128 C81.1426678,54.5425128 81.2889242,54.5455157 81.4613231,54.5543476 C81.6277162,54.56 81.8145994,54.5686553 82.0016593,54.5815499 C82.1950781,54.5958575 82.3794883,54.6110484 82.5808558,54.6317151 C82.7709185,54.6518519 82.9436707,54.6765812 83.1042348,54.6997208 C83.0858644,54.6167009 83.080212,54.5280285 83.0650211,54.4441254 C83.0563658,54.355453 83.0475339,54.2747293 83.0475339,54.186057 C83.0475339,54.1053333 83.0563658,54.016661 83.0650211,53.9304615 C83.080212,53.844792 83.0858644,53.7617721 83.1042348,53.6785755" id="Fill-57" fill="#EB0029"></path>
                    <path d="M94.936396,59.096563 C94.7933191,59.563241 94.597604,59.9530815 94.3602023,60.2551328 C94.1316325,60.5610701 93.8520142,60.7839875 93.530886,60.9327168 C93.217,61.0747339 92.8803276,61.1554575 92.5297009,61.1554575 C92.2036268,61.1554575 91.89451,61.0932809 91.6004074,60.9772296 C91.303302,60.8592353 91.0418775,60.6746484 90.821433,60.4132239 C90.5903903,60.1512695 90.4179915,59.8068251 90.2749145,59.3786541 C90.1470285,58.9541926 90.0823789,58.4253379 90.0823789,57.8046313 C90.0823789,57.3050986 90.1327208,56.8385972 90.2485954,56.3998279 C90.3612906,55.9573493 90.5282137,55.5696285 90.7415926,55.2469105 C90.9611538,54.9194234 91.2232849,54.6634746 91.5437066,54.4765915 C91.8561795,54.2808764 92.2181111,54.1856684 92.6104245,54.1856684 C92.981188,54.1856684 93.326339,54.266392 93.6444644,54.4151214 C93.9592336,54.5684433 94.2203048,54.783412 94.4433989,55.0623236 C94.6663162,55.3419419 94.8380085,55.6832068 94.9690741,56.0841755 C95.0906011,56.486204 95.1559573,56.9366313 95.1559573,57.4448194 C95.1559573,58.0808934 95.0754103,58.6364205 94.936396,59.096563 M95.7831994,54.5541356 C95.3845271,54.2160501 94.9243846,53.9549789 94.3778661,53.7822268 C93.843359,53.6128308 93.2671652,53.5232752 92.6432792,53.5232752 C91.9711709,53.5232752 91.3536439,53.6391499 90.8037692,53.8565915 C90.2604302,54.0699704 89.7875698,54.3695487 89.3927835,54.7539134 C89.0070057,55.1342154 88.703188,55.5696285 88.4988177,56.0841755 C88.2845556,56.5900672 88.1752165,57.1334063 88.1752165,57.7005915 C88.1752165,58.4341698 88.2909145,59.0644148 88.5219573,59.5902667 C88.751057,60.1120558 89.0660028,60.5492353 89.4735071,60.8880274 C89.8712963,61.2209903 90.3316154,61.4702268 90.8869658,61.6189561 C91.4191766,61.770865 91.9983732,61.8498222 92.6192564,61.8498222 C93.2608063,61.8498222 93.8583732,61.743486 94.4105442,61.5327567 C94.9538832,61.3282097 95.4173818,61.026865 95.8065157,60.6497425 C96.2020085,60.2726199 96.5047664,59.8331442 96.7253875,59.3258393 C96.9537806,58.8201242 97.0544644,58.2766085 97.0544644,57.694939 C97.0544644,56.9935088 96.9385897,56.3782781 96.7220313,55.8556057 C96.4929316,55.33311 96.1716268,54.8929276 95.7831994,54.5541356" id="Fill-59" fill="#EB0029"></path>
                    <path d="M101.979843,53.7109886 C101.534185,53.7221168 101.023524,53.7254729 100.449803,53.7254729 C100.105536,53.7254729 99.7545556,53.7221168 99.4166467,53.7078091 C99.0714957,53.6903219 98.7272279,53.683963 98.3820769,53.6783105 C98.4002707,54.1824359 98.4299459,54.6826752 98.4386011,55.1868006 C98.4571481,55.6838604 98.4658034,56.2621738 98.4658034,56.9014274 L98.4658034,58.4842821 C98.4658034,59.135547 98.4571481,59.7083846 98.4386011,60.2047379 C98.4299459,60.7070969 98.4002707,61.1995641 98.3820769,61.681963 C98.5129658,61.675604 98.6528632,61.6660655 98.8102479,61.6660655 L99.3359231,61.6660655 L99.852943,61.6660655 C100.010504,61.6660655 100.153405,61.675604 100.283587,61.681963 C100.257268,61.1995641 100.230066,60.7070969 100.215758,60.2070342 C100.197211,59.7083846 100.197211,59.1389031 100.197211,58.4971766 L100.197211,57.899433 C101.068214,57.899433 101.953701,57.9379402 102.847667,58.0034729 C102.830003,57.873114 102.814989,57.783735 102.806157,57.7148462 C102.78761,57.64949 102.78761,57.5878433 102.78761,57.5168348 C102.78761,57.439114 102.78761,57.3672222 102.799798,57.2962137 C102.806157,57.2283846 102.817285,57.1277009 102.847667,56.9900997 C102.401832,57.0165954 101.971011,57.0356724 101.561211,57.0533362 C101.15459,57.0644644 100.696567,57.0796553 100.197211,57.0884872 L100.197211,55.8196952 C100.197211,55.3985897 100.227769,54.9758946 100.257268,54.5452507 C100.342584,54.5452507 100.477006,54.553906 100.688088,54.559735 C100.886983,54.566094 101.115376,54.5756325 101.367792,54.5901168 C101.626744,54.6051311 101.881632,54.6259744 102.149239,54.6371026 C102.413843,54.6522934 102.6599,54.6708405 102.889177,54.6826752 C102.880521,54.6019516 102.862858,54.5221111 102.85014,54.4588746 C102.847667,54.38451 102.847667,54.2808234 102.847667,54.1649487 C102.847667,53.9658775 102.862858,53.7998376 102.889177,53.6783105 C102.734972,53.6903219 102.43133,53.7014501 101.979843,53.7109886" id="Fill-61" fill="#EB0029"></path>
                    <path d="M114.20808,60.1574342 C113.69424,60.7511151 112.995989,61.0515766 112.119511,61.0515766 C111.878929,61.0515766 111.673499,61.0515766 111.510639,61.0404484 C111.353254,61.0370923 111.213357,61.0277305 111.097482,61.0213715 C111.097482,60.9597248 111.091123,60.8431436 111.082291,60.6560838 C111.076639,60.4714969 111.076639,60.2669499 111.076639,60.0417362 L111.076639,59.3312974 L111.076639,58.73691 L111.076639,56.6571721 L111.076639,56.0841578 L111.073459,55.3802547 C111.073459,55.1462091 111.076639,54.938306 111.082291,54.7537191 C111.091123,54.5661293 111.097482,54.4382433 111.097482,54.3879014 C111.27253,54.3727105 111.450758,54.3550467 111.623157,54.3495709 C111.804741,54.3375595 112.033134,54.3320838 112.303214,54.3320838 C112.713015,54.3320838 113.07583,54.4006194 113.40579,54.545286 C113.731864,54.6881863 114.00583,54.8927333 114.243231,55.1693487 C114.471625,55.4305966 114.659568,55.7573772 114.787277,56.1408587 C114.908804,56.5179812 114.974337,56.9495083 114.974337,57.4327903 C114.974337,58.6482376 114.715385,59.5566877 114.20808,60.1574342 M115.562365,54.4645624 C115.170052,54.1824712 114.695425,53.9747447 114.148907,53.8565738 C113.601505,53.7343402 112.987157,53.6783459 112.324764,53.6783459 C111.813397,53.6783459 111.39706,53.6839983 111.073459,53.7014855 C110.753038,53.7134969 110.467944,53.7255083 110.205813,53.7255083 C110.022109,53.7255083 109.849357,53.7221521 109.68632,53.7110239 C109.531408,53.7014855 109.392394,53.6903573 109.258325,53.6783459 C109.285351,54.1824712 109.318029,54.6827105 109.326861,55.1868359 C109.342052,55.6838957 109.35636,56.2622091 109.35636,56.9014627 L109.35636,58.4843174 C109.35636,59.1355823 109.342052,59.7084199 109.326861,60.2047732 C109.318029,60.7071322 109.285351,61.1994228 109.258325,61.6819983 C109.392394,61.6756393 109.531408,61.6661009 109.68632,61.6661009 L110.205813,61.6661009 C110.512633,61.6661009 110.874565,61.6661009 111.287721,61.6756393 C111.697522,61.6819983 112.196878,61.6819983 112.775545,61.6819983 C113.331425,61.6819983 113.848445,61.5837875 114.33261,61.392665 C114.825607,61.1937704 115.250599,60.9148587 115.615887,60.549041 C115.98983,60.175098 116.287112,59.7292632 116.494838,59.2129499 C116.706627,58.6874513 116.812787,58.1073715 116.812787,57.465645 C116.812787,56.7257077 116.706627,56.1136564 116.486006,55.6294912 C116.269448,55.1396735 115.960331,54.7593715 115.562365,54.4645624" id="Fill-63" fill="#EB0029"></path>
                    <path d="M124.783426,53.7256672 C124.700229,53.7256672 124.608554,53.7224877 124.510166,53.7104764 C124.404007,53.7016444 124.305619,53.6898097 124.192041,53.6785048 C124.224896,54.2161915 124.248919,54.7468125 124.267289,55.2822028 C124.281597,55.8198895 124.293785,56.3521003 124.293785,56.8897869 C124.293785,57.4331259 124.276121,57.9565048 124.240087,58.4606302 C124.209705,58.9631658 124.132867,59.4091772 123.993146,59.8037869 C123.856605,60.1897413 123.657534,60.5020376 123.396286,60.7330803 C123.131859,60.9711886 122.763391,61.0900661 122.291414,61.0900661 C121.914115,61.0900661 121.580975,61.0430803 121.295705,60.9711886 C121.001779,60.8911715 120.761198,60.7330803 120.562303,60.4965618 C120.363409,60.2607499 120.217859,59.9219578 120.110816,59.4856615 C120.015785,59.0463624 119.965443,58.4758211 119.965443,57.7662655 C119.965443,57.0999863 119.974098,56.4351202 119.986109,55.781559 C120.000594,55.1345333 120.045283,54.4329265 120.128303,53.6785048 C119.974098,53.6898097 119.813534,53.7016444 119.644138,53.7104764 C119.481101,53.7224877 119.326013,53.7256672 119.168805,53.7256672 C119.005768,53.7256672 118.848383,53.7224877 118.690115,53.7104764 C118.521602,53.7016444 118.363334,53.6898097 118.206833,53.6785048 C118.22432,53.8710405 118.233152,54.1619635 118.248343,54.5542769 C118.250816,54.9377584 118.257175,55.4484194 118.257175,56.0756615 C118.257175,56.2856843 118.257175,56.4918211 118.250816,56.6908923 C118.248343,56.8777755 118.248343,57.079143 118.248343,57.2957014 L118.248343,57.9762883 L118.248343,58.8114336 C118.248343,59.3699635 118.33154,59.8332855 118.511887,60.2233026 C118.69983,60.6059009 118.943414,60.923143 119.263836,61.1614279 C119.584964,61.405012 119.959084,61.5839464 120.389728,61.6934621 C120.817899,61.7941459 121.286873,61.8499635 121.786229,61.8499635 C122.908941,61.8499635 123.764577,61.5535647 124.341654,60.9711886 C124.926503,60.3766245 125.217249,59.4091772 125.217249,58.0515362 C125.217249,57.5512969 125.220605,57.0646587 125.234913,56.6101687 C125.243568,56.1586815 125.259642,55.7391658 125.27395,55.3622199 C125.288258,54.9849208 125.303448,54.6517812 125.318639,54.3610348 C125.342662,54.0821231 125.351494,53.8447214 125.365978,53.6785048 C125.267591,53.6898097 125.175739,53.7016444 125.071876,53.7104764 C124.985676,53.7224877 124.884109,53.7256672 124.783426,53.7256672" id="Fill-65" fill="#EB0029"></path>
                    <path d="M130.404441,60.1455288 C130.330076,60.3444234 130.235045,60.5019846 130.124646,60.6440017 C129.997643,60.7782467 129.866578,60.8822866 129.718025,60.9469362 C129.554988,61.0213009 129.391244,61.0516826 129.225028,61.0516826 L128.889415,61.0516826 C128.788025,61.0428507 128.692994,61.0403778 128.582772,61.0371983 C128.582772,60.9349248 128.576942,60.8111014 128.576942,60.6503607 C128.565108,60.4961556 128.559455,60.3237567 128.559455,60.140053 L128.559455,59.5686285 C128.550623,59.3783892 128.541791,59.1858536 128.541791,58.9980872 C128.541791,58.7583892 128.550623,58.552959 128.559455,58.377204 L128.559455,57.8668963 C128.63382,57.8668963 128.704828,57.8668963 128.788025,57.8610672 C128.86239,57.8555915 128.954948,57.8555915 129.067643,57.8555915 C129.537501,57.8555915 129.896253,57.9882467 130.143193,58.2533806 C130.380418,58.5234604 130.502652,58.9270786 130.502652,59.4704177 C130.502652,59.7235402 130.47227,59.9529932 130.404441,60.1455288 M128.559455,55.2468222 C128.565108,54.9583721 128.582772,54.663563 128.600965,54.3726399 C128.681689,54.3551527 128.746338,54.3495003 128.815227,54.3429647 C128.877404,54.3429647 128.993279,54.3374889 129.174686,54.3374889 C129.406435,54.3374889 129.596675,54.3726399 129.75088,54.4533635 C129.911444,54.5220758 130.042333,54.625939 130.143193,54.7386342 C130.241404,54.8608678 130.315592,55.0053578 130.357102,55.1747538 C130.404441,55.3418536 130.421928,55.5199048 130.421928,55.7069647 C130.421928,55.9570843 130.380418,56.1736427 130.309233,56.3638821 C130.226213,56.5507652 130.128002,56.7026741 129.997643,56.8240245 C129.884242,56.9430786 129.733216,57.0358137 129.569296,57.1004632 C129.418447,57.1571641 129.257883,57.1893123 129.093962,57.1893123 L128.559455,57.1893123 L128.559455,56.6011071 C128.550623,56.405392 128.541791,56.2096769 128.541791,56.0010672 C128.541791,55.7901613 128.550623,55.5464006 128.559455,55.2468222 M131.563011,57.8993977 C131.345569,57.7533179 131.105165,57.6319675 130.874122,57.5606057 C130.63619,57.4871242 130.421928,57.4449077 130.241404,57.4392553 L130.241404,57.4064006 C130.421928,57.3760188 130.617643,57.3202011 130.84374,57.2403607 C131.063478,57.1508051 131.272088,57.0285715 131.464623,56.8775459 C131.654863,56.7289932 131.818606,56.5355744 131.943313,56.3077111 C132.083034,56.0754319 132.142207,55.801996 132.142207,55.4808678 C132.142207,55.1692781 132.088686,54.8928393 131.975991,54.663563 C131.865592,54.4325202 131.696196,54.245637 131.490942,54.0993806 C131.277564,53.9603664 131.037159,53.8508507 130.748709,53.778959 C130.454606,53.7109533 130.143193,53.6784519 129.783558,53.6784519 C129.447945,53.6784519 129.102794,53.6839276 128.732031,53.7015915 C128.369393,53.7134262 128.018413,53.7254376 127.680504,53.7254376 C127.489558,53.7254376 127.317689,53.7222581 127.157125,53.7109533 C126.999917,53.7015915 126.860019,53.6902866 126.723301,53.6784519 C126.767991,54.1824006 126.785655,54.6826399 126.812857,55.1869419 C126.827165,55.6838251 126.845712,56.2623151 126.845712,56.9015687 L126.845712,58.4844234 C126.845712,59.1355117 126.827165,59.7083493 126.812857,60.2047026 C126.785655,60.7072382 126.767991,61.1995288 126.723301,61.6819276 C126.860019,61.6755687 127.032595,61.6660302 127.261871,61.6660302 L127.903421,61.6660302 C128.199997,61.6660302 128.485091,61.6660302 128.749695,61.6755687 C129.019598,61.6819276 129.308048,61.6819276 129.619814,61.6819276 C129.970441,61.6819276 130.315592,61.648543 130.639193,61.5708222 C130.971626,61.4934547 131.251244,61.3664519 131.507017,61.181865 C131.761905,61.0004575 131.963979,60.7512211 132.115182,60.460298 C132.270093,60.1631926 132.347638,59.8122125 132.347638,59.3969362 C132.347638,59.0404803 132.270093,58.7456712 132.115182,58.5027937 C131.963979,58.259033 131.780276,58.056959 131.563011,57.8993977" id="Fill-67" fill="#EB0029"></path>
                    <path d="M134.922687,58.6358199 C135.095262,58.1580137 135.271017,57.6945151 135.445182,57.2400251 C135.62659,56.7851818 135.817536,56.3250393 136.022259,55.8592444 C136.208966,56.3250393 136.387194,56.7851818 136.547758,57.2400251 C136.719627,57.6945151 136.883547,58.1580137 137.055946,58.6358199 L134.922687,58.6358199 Z M138.567792,57.9502872 C138.274573,57.2287202 137.991598,56.4856034 137.706504,55.7306519 C137.429889,54.9795863 137.15663,54.2691476 136.910573,53.6067544 C136.833028,53.6274211 136.753188,53.6387259 136.687655,53.6507373 C136.622123,53.6722872 136.538926,53.6779396 136.464738,53.6779396 C136.387194,53.6779396 136.307353,53.6722872 136.250652,53.6507373 C136.177171,53.6387259 136.096447,53.6274211 136.022259,53.6067544 C135.847034,54.0527658 135.659444,54.527216 135.460373,55.041763 C135.249467,55.5578997 135.035382,56.0758028 134.825182,56.6071305 C134.611097,57.1336889 134.388179,57.6553014 134.183456,58.1756775 C133.966191,58.6925208 133.772772,59.1798655 133.582709,59.6313527 C133.39565,60.080367 133.223251,60.4839852 133.066573,60.8434439 C132.917843,61.1998997 132.79243,61.4786348 132.697399,61.681592 C132.807621,61.6759396 132.909188,61.6655179 132.998037,61.6655179 L133.274299,61.6655179 L133.55957,61.6655179 C133.642766,61.6655179 133.732145,61.6759396 133.82965,61.681592 C133.936692,61.2949311 134.061399,60.9114496 134.192288,60.5166632 C134.316111,60.1179909 134.462544,59.7232046 134.625405,59.3252387 C134.822003,59.319763 135.02655,59.319763 135.228624,59.3165835 C135.427519,59.3165835 135.632949,59.3109311 135.831843,59.3109311 C136.081256,59.3109311 136.334556,59.3165835 136.586265,59.3165835 C136.833028,59.319763 137.079262,59.319763 137.329382,59.3252387 C137.474578,59.7232046 137.617832,60.1179909 137.748014,60.5166632 C137.884732,60.9114496 138.010145,61.2949311 138.136972,61.681592 C138.300892,61.6759396 138.461456,61.6655179 138.629969,61.6655179 L139.122966,61.6655179 L139.620026,61.6655179 C139.789422,61.6655179 139.961114,61.6759396 140.154533,61.681592 C139.928436,61.2332843 139.67602,60.6772274 139.40594,60.0259624 C139.132681,59.3724011 138.853063,58.6836889 138.567792,57.9502872 L138.567792,57.9502872 Z" id="Fill-69" fill="#EB0029"></path>
                    <path d="M142.941283,55.1868889 C142.958946,54.6827635 142.977317,54.1823476 143.006815,53.6783989 C142.878929,53.6902336 142.733556,53.7015385 142.572992,53.7110769 C142.417904,53.7222051 142.243032,53.7255613 142.049613,53.7255613 C141.857077,53.7255613 141.678143,53.7222051 141.532593,53.7110769 C141.376092,53.7015385 141.226656,53.6902336 141.101949,53.6783989 C141.134627,54.1823476 141.162006,54.6827635 141.176314,55.1868889 C141.191505,55.6837721 141.197157,56.2622621 141.197157,56.9015157 L141.197157,58.4843704 C141.197157,59.1354587 141.191505,59.7084729 141.176314,60.2046496 C141.162006,60.7071852 141.134627,61.1994758 141.101949,61.6820513 C141.226656,61.6755157 141.376092,61.6661538 141.532593,61.6661538 L142.049613,61.6661538 L142.572992,61.6661538 C142.733556,61.6661538 142.878929,61.6755157 143.006815,61.6820513 C142.977317,61.1994758 142.958946,60.7071852 142.941283,60.2046496 C142.926092,59.7084729 142.920616,59.1354587 142.920616,58.4843704 L142.920616,56.9015157 C142.920616,56.2622621 142.926092,55.6837721 142.941283,55.1868889" id="Fill-71" fill="#EB0029"></path>
                </g>
            </g>
        </g>
    </g>
</svg>