<?xml version="1.0" encoding="UTF-8"?>
<svg width="93px" height="38px" viewBox="0 0 93 38" version="1.1" xmlns="http://www.w3.org/2000/svg" xmlns:xlink="http://www.w3.org/1999/xlink">
    <!-- Generator: Sketch 48.1 (47250) - http://www.bohemiancoding.com/sketch -->
    <title>Dubai Careers</title>
    <desc>Created with Sketch.</desc>
    <defs></defs>
    <g id="Logos" stroke="none" stroke-width="1" fill="none" fill-rule="evenodd" transform="translate(-216.000000, -1951.000000)">
        <g id="Dubai-Careers" transform="translate(0.000000, 1823.000000)">
            <g id="Logo/Dubai-Careers" transform="translate(216.000000, 128.000000)">
                <g id="DubaiCareersLogo">
                    <path d="M14.6013826,26.5009772 C8.14642726,26.5009772 2.8854521,21.2156352 2.8854521,14.6801303 C2.8854521,8.14462541 8.13398997,2.85928339 14.6013826,2.85928339 C21.0687752,2.85928339 26.3173131,8.14462541 26.3173131,14.6801303 C26.3421877,21.2032573 21.0563379,26.5009772 14.6013826,26.5009772 M14.6013826,0.0123778502 C6.57932828,0.0123778502 0.0497491741,6.59739414 0.0497491741,14.6801303 C0.0497491741,22.7628664 6.57932828,29.3478827 14.6013826,29.3478827 C22.6234369,29.3478827 29.153016,22.7628664 29.153016,14.6801303 C29.153016,6.59739414 22.6234369,0.0123778502 14.6013826,0.0123778502" id="Shape" fill="#009DDB" fill-rule="nonzero"></path>
                    <path d="M21.2180228,16.4006515 L21.0563379,16.6234528 C19.5514254,18.665798 17.1385905,19.9035831 14.6262572,19.9035831 C12.076612,19.9035831 9.63890248,18.665798 8.13398997,16.5615635 L7.97230515,16.3387622 L6.28083323,17.5765472 L6.44251805,17.7993485 C8.33298666,20.4234528 11.4049982,21.9830619 14.6013826,21.9830619 C17.7604552,21.9830619 20.7951548,20.4234528 22.7229353,17.8612378 L22.8846201,17.6384365 L21.2180228,16.4006515 Z" id="Shape" fill="#009DDB" fill-rule="nonzero"></path>
                    <path d="M34.8741711,37.0840391 L34.3518047,35.9452769 L33.8294384,37.0840391 L34.8741711,37.0840391 Z M34.2398691,35.6482085 L34.4637404,35.6482085 L35.4960357,37.9257329 L35.2348526,37.9257329 L34.9736694,37.2944625 L33.7548146,37.2944625 L33.4563196,37.8885993 L33.2075737,37.8885993 L34.2398691,35.6482085 Z" id="Shape" fill="#1F274D" fill-rule="nonzero"></path>
                    <path d="M36.9014499,37.2201954 C37.0880093,37.4058632 37.3118806,37.4801303 37.5730637,37.4801303 C37.7596231,37.4801303 37.9088707,37.4058632 37.9088707,37.257329 C37.9088707,37.1087948 37.8342469,37.0716612 37.4611281,36.9602606 C37.0133855,36.8488599 36.7273278,36.7003257 36.7273278,36.267101 C36.7273278,35.8586319 37.0631347,35.5739414 37.49844,35.5739414 C37.8342469,35.5739414 38.0954301,35.685342 38.3068641,35.8710098 L38.0456809,36.2423453 C37.8591215,36.0938111 37.6352502,36.019544 37.4486908,36.019544 C37.2621314,36.019544 37.1501958,36.0938111 37.1501958,36.2052117 C37.1501958,36.3537459 37.2621314,36.428013 37.6352502,36.5022801 C38.0829928,36.6136808 38.3317387,36.7993485 38.3317387,37.170684 C38.3317387,37.6162866 37.9959317,37.8638436 37.5233146,37.8638436 C37.1875076,37.8638436 36.864138,37.752443 36.565643,37.4925081 L36.9014499,37.2201954 Z" id="Shape" fill="#009DDB" fill-rule="nonzero"></path>
                    <polygon id="Shape" fill="#009DDB" fill-rule="nonzero" points="38.7919185 35.6482085 39.3515967 35.6482085 39.8988376 36.6013029 40.4958277 35.6482085 41.0430686 35.6482085 41.0430686 37.8885993 40.5704515 37.8885993 40.5704515 36.4156352 39.8988376 37.3687296 39.276973 36.4156352 39.276973 37.8885993 38.7919185 37.8885993"></polygon>
                    <path d="M42.8216016,36.9726384 L42.5231066,36.2423453 L42.2246115,36.9726384 L42.8216016,36.9726384 Z M42.2992353,35.6482085 L42.7469779,35.6482085 L43.7046495,37.9257329 L43.1822831,37.9257329 L42.9584118,37.4058632 L42.0007402,37.4058632 L41.776869,37.9257329 L41.3291264,37.9257329 L42.2992353,35.6482085 Z" id="Shape" fill="#009DDB" fill-rule="nonzero"></path>
                    <path d="M45.0354399,36.7498371 C45.296623,36.7498371 45.4085587,36.6013029 45.4085587,36.4156352 C45.4085587,36.1928339 45.2593111,36.0814332 45.0354399,36.0814332 L44.5503854,36.0814332 L44.5503854,36.7498371 L45.0354399,36.7498371 Z M44.0404564,35.6482085 L45.0354399,35.6482085 C45.3339349,35.6482085 45.5578062,35.7224756 45.7070537,35.8710098 C45.8189894,35.9824104 45.8936131,36.1680782 45.8936131,36.3908795 C45.8936131,36.762215 45.7070537,36.9850163 45.4085587,37.0840391 L45.9682369,37.8885993 L45.4085587,37.8885993 L44.9235042,37.1583062 L44.5503854,37.1583062 L44.5503854,37.8885993 L44.065331,37.8885993 L44.065331,35.6482085 L44.0404564,35.6482085 Z" id="Shape" fill="#009DDB" fill-rule="nonzero"></path>
                    <polygon id="Shape" fill="#009DDB" fill-rule="nonzero" points="46.8512847 36.0814332 46.1547963 36.0814332 46.1547963 35.6482085 47.9955157 35.6482085 47.9955157 36.0814332 47.3363392 36.0814332 47.3363392 37.8885993 46.8512847 37.8885993"></polygon>
                    <path d="M50.1471675,37.4429967 C50.5575982,37.4429967 50.8187814,37.1830619 50.8187814,36.7745928 C50.8187814,36.3661238 50.5575982,36.1061889 50.1471675,36.1061889 L49.7740487,36.1061889 L49.7740487,37.4677524 L50.1471675,37.4677524 L50.1471675,37.4429967 Z M49.2889942,35.6482085 L50.1720421,35.6482085 C50.8685305,35.6482085 51.353585,36.1309446 51.353585,36.7498371 C51.353585,37.3811075 50.8685305,37.8885993 50.1720421,37.8885993 L49.2889942,37.8885993 L49.2889942,35.6482085 Z" id="Shape" fill="#009DDB" fill-rule="nonzero"></path>
                    <path d="M51.6893919,36.9355049 L51.6893919,35.6482085 L52.1744463,35.6482085 L52.1744463,36.9355049 C52.1744463,37.3068404 52.3610058,37.4925081 52.6595008,37.4925081 C52.9579958,37.4925081 53.1445552,37.3068404 53.1445552,36.9355049 L53.1445552,35.6482085 L53.6296097,35.6482085 L53.6296097,36.9355049 C53.6296097,37.6286645 53.2564909,37.9628664 52.6346262,37.9628664 C52.0625107,37.9257329 51.6893919,37.5915309 51.6893919,36.9355049" id="Shape" fill="#009DDB" fill-rule="nonzero"></path>
                    <path d="M55.209146,37.4429967 C55.4330173,37.4429967 55.5449529,37.3687296 55.5449529,37.1830619 C55.5449529,37.0345277 55.4330173,36.923127 55.1718341,36.923127 L54.6121559,36.923127 L54.6121559,37.4058632 L55.209146,37.4058632 L55.209146,37.4429967 Z M55.0598984,36.5641694 C55.2837697,36.5641694 55.4330173,36.4899023 55.4330173,36.3413681 C55.4330173,36.1928339 55.3210816,36.1185668 55.0972103,36.1185668 L54.6121559,36.1185668 L54.6121559,36.6013029 L55.0598984,36.6013029 L55.0598984,36.5641694 Z M54.1395387,35.6482085 L55.1718341,35.6482085 C55.4330173,35.6482085 55.6195767,35.7224756 55.7688242,35.8338762 C55.8807598,35.9452769 55.9180717,36.0566775 55.9180717,36.2052117 C55.9180717,36.4651466 55.7688242,36.6136808 55.6195767,36.6879479 C55.8807598,36.7993485 56.0300073,36.9478827 56.0300073,37.2449511 C56.0300073,37.6534202 55.6942004,37.8762215 55.1842714,37.8762215 L54.1022268,37.8762215 L54.1022268,35.6482085 L54.1395387,35.6482085 Z" id="Shape" fill="#009DDB" fill-rule="nonzero"></path>
                    <path d="M57.6841674,36.9726384 L57.3856723,36.2423453 L57.0871773,36.9726384 L57.6841674,36.9726384 Z M57.1618011,35.6482085 L57.6095436,35.6482085 L58.5672152,37.9257329 L58.0448489,37.9257329 L57.8209776,37.4058632 L56.863306,37.4058632 L56.6394347,37.9257329 L56.1170684,37.9257329 L57.1618011,35.6482085 Z" id="Shape" fill="#009DDB" fill-rule="nonzero"></path>
                    <rect id="Rectangle-path" fill="#009DDB" fill-rule="nonzero" x="58.9030221" y="35.6482085" width="1" height="2.24039088"></rect>
                    <rect id="Rectangle-path" fill="#1F274D" fill-rule="nonzero" x="60.930301" y="35.6482085" width="1" height="2.24039088"></rect>
                    <polygon id="Shape" fill="#1F274D" fill-rule="nonzero" points="61.8257861 35.6482085 62.0496574 35.6482085 63.4550716 37.4429967 63.4550716 35.6482085 63.7038174 35.6482085 63.7038174 37.8885993 63.4923835 37.8885993 62.0496574 36.0442997 62.0496574 37.8885993 61.8257861 37.8885993"></polygon>
                    <rect id="Rectangle-path" fill="#1F274D" fill-rule="nonzero" x="64.3381194" y="35.6482085" width="1" height="2.24039088"></rect>
                    <polygon id="Shape" fill="#1F274D" fill-rule="nonzero" points="65.7808455 35.8586319 65.0346079 35.8586319 65.0346079 35.6482085 66.8131408 35.6482085 66.8131408 35.8586319 66.0420286 35.8586319 66.0420286 37.8885993 65.7808455 37.8885993"></polygon>
                    <rect id="Rectangle-path" fill="#1F274D" fill-rule="nonzero" x="67.2608834" y="35.6482085" width="1" height="2.24039088"></rect>
                    <path d="M69.5866573,37.0840391 L69.064291,35.9452769 L68.5419246,37.0840391 L69.5866573,37.0840391 Z M68.9523553,35.6482085 L69.1762266,35.6482085 L70.208522,37.9257329 L69.9473388,37.9257329 L69.6861556,37.3315961 L68.4673009,37.3315961 L68.2061177,37.9257329 L67.9449345,37.9257329 L68.9523553,35.6482085 Z" id="Shape" fill="#1F274D" fill-rule="nonzero"></path>
                    <polygon id="Shape" fill="#1F274D" fill-rule="nonzero" points="70.9174477 35.8586319 70.1836474 35.8586319 70.1836474 35.6482085 71.9497431 35.6482085 71.9497431 35.8586319 71.1786309 35.8586319 71.1786309 37.8885993 70.9174477 37.8885993"></polygon>
                    <rect id="Rectangle-path" fill="#1F274D" fill-rule="nonzero" x="72.3974856" y="35.6482085" width="1" height="2.24039088"></rect>
                    <polygon id="Shape" fill="#1F274D" fill-rule="nonzero" points="73.0939741 35.6482085 73.3551572 35.6482085 74.1760186 37.5915309 74.9471308 35.6482085 75.2456258 35.6482085 74.2755169 37.9257329 74.064083 37.9257329"></polygon>
                    <polygon id="Shape" fill="#1F274D" fill-rule="nonzero" points="75.6436192 35.6482085 77.2729047 35.6482085 77.2729047 35.8586319 75.9048024 35.8586319 75.9048024 36.6384365 77.1236572 36.6384365 77.1236572 36.8612378 75.9048024 36.8612378 75.9048024 37.665798 77.2729047 37.665798 77.2729047 37.8885993 75.6436192 37.8885993"></polygon>
                    <path d="M54.4255965,20.571987 L53.3435519,20.571987 L53.3435519,21.6488599 C53.3435519,22.2553746 53.8161691,22.7257329 54.4255965,22.7257329 C55.0350239,22.7257329 55.507641,22.2553746 55.507641,21.6488599 C55.507641,21.0423453 55.0350239,20.571987 54.4255965,20.571987" id="Shape" fill="#009DDB" fill-rule="nonzero"></path>
                    <path d="M51.5152698,20.571987 L50.4332253,20.571987 L50.4332253,21.6488599 C50.4332253,22.2553746 50.9058424,22.7257329 51.5152698,22.7257329 C52.1246972,22.7257329 52.5973143,22.2553746 52.5973143,21.6488599 C52.6097516,21.0423453 52.1246972,20.571987 51.5152698,20.571987" id="Shape" fill="#009DDB" fill-rule="nonzero"></path>
                    <path d="M41.2420653,11.895114 L41.2420653,13.87557 C41.2420653,14.952443 40.3714548,15.8560261 39.2894103,15.8560261 L37.3367552,15.8560261 L37.3367552,3.98566775 L39.2894103,3.98566775 C40.3714548,3.98566775 41.2420653,4.88925081 41.2420653,5.96612378 L41.2420653,11.895114 Z M41.2420653,0.0123778502 L37.2994433,0.0123778502 L33.3568212,0.0123778502 L33.3568212,1.99283388 L33.3568212,19.7798046 L39.2520984,19.7798046 L39.6376545,19.7798046 L41.2047535,19.7798046 C43.3688425,19.7798046 45.1473755,18.009772 45.1473755,15.8065147 L45.1473755,11.8332248 L45.1473755,3.9732899 C45.1846874,1.78241042 43.4061544,0.0123778502 41.2420653,0.0123778502 Z" id="Shape" fill="#009DDB" fill-rule="nonzero"></path>
                    <path d="M90.3569375,0.0123778502 C89.2748929,0.0123778502 88.4042824,0.915960912 88.4042824,1.99283388 L88.4042824,19.7798046 L88.4042824,19.8169381 L90.3569375,19.8169381 C91.438982,19.8169381 92.3095926,18.9504886 92.3095926,17.8364821 L92.3095926,0.0618892508 L92.3095926,0.0247557003 L90.3569375,0.0247557003 L90.3569375,0.0123778502 Z" id="Shape" fill="#009DDB" fill-rule="nonzero"></path>
                    <path d="M71.564187,10.7687296 C70.6562645,11.6723127 69.5244708,12.3283388 68.2683042,12.5758958 C68.5294873,12.9224756 68.7036094,13.3557003 68.7036094,13.8260586 C68.7036094,14.9029316 67.8329989,15.8065147 66.7509544,15.8065147 C65.6689098,15.8065147 64.7982993,14.9029316 64.7982993,13.8260586 L64.7982993,12.7491857 L60.8556772,12.7491857 L60.8556772,17.8488599 C60.8556772,18.9257329 61.7262878,19.829316 62.8083323,19.829316 L66.7136425,19.829316 C69.9722134,19.829316 72.6089196,17.1557003 72.6089196,13.9127036 C72.6089196,12.6996743 72.2606754,11.5856678 71.651248,10.6697068 C71.7009972,10.6820847 71.6139361,10.7192182 71.564187,10.7687296" id="Shape" fill="#009DDB" fill-rule="nonzero"></path>
                    <path d="M64.8356112,5.97850163 C64.8356112,5.19869707 65.2709164,4.55504886 65.9176557,4.20846906 L65.9176557,0.0247557003 L60.930301,0.0247557003 L60.930301,7.05537459 L64.872923,7.05537459 L64.872923,5.97850163 L64.8356112,5.97850163 Z" id="Shape" fill="#009DDB" fill-rule="nonzero"></path>
                    <path d="M51.0799645,7.83517915 L51.0799645,0.0247557003 L49.1273094,0.0247557003 C48.0452649,0.0247557003 47.1746543,0.928338762 47.1746543,2.00521173 L47.1746543,7.05537459 L49.1273094,7.05537459 C49.873547,7.05537459 50.5700355,7.352443 51.0799645,7.83517915" id="Shape" fill="#009DDB" fill-rule="nonzero"></path>
                    <path d="M58.940334,7.05537459 L58.940334,2.00521173 C58.940334,0.928338762 58.0697235,0.0247557003 56.9876789,0.0247557003 L55.0350239,0.0247557003 L55.0350239,7.83517915 C55.5573902,7.36482085 56.2538786,7.05537459 56.9876789,7.05537459 L58.940334,7.05537459 Z" id="Shape" fill="#009DDB" fill-rule="nonzero"></path>
                    <path d="M66.7882662,0.0123778502 L66.7882662,3.98566775 C67.8703108,3.98566775 68.7409213,4.88925081 68.7409213,5.96612378 C68.7409213,7.04299674 67.8703108,7.9465798 66.7882662,7.9465798 L60.8929891,7.9465798 L60.507433,7.9465798 L56.9503671,7.9465798 C55.8683225,7.9465798 54.997712,8.85016287 54.997712,9.92703583 L54.997712,15.8436482 L53.0450569,15.8436482 C51.9630124,15.8436482 51.0924018,14.9400651 51.0924018,13.8631922 L51.0924018,9.90228013 C51.0924018,8.82540717 50.2217913,7.9218241 49.1397467,7.9218241 L47.1870916,7.9218241 L47.1870916,15.8188925 C47.1870916,18.0221498 48.9656246,19.7921824 51.1297137,19.7921824 L53.0823688,19.7921824 L53.4679249,19.7921824 L55.0350239,19.7921824 C57.1991129,19.7921824 58.9776459,18.0221498 58.9776459,15.8188925 L58.9776459,15.4351792 L58.9776459,11.8456026 L66.8255781,11.8456026 C70.084149,11.8456026 72.7208553,9.17198697 72.7208553,5.92899023 C72.6959807,2.69837134 70.0468371,0.0123778502 66.7882662,0.0123778502" id="Shape" fill="#009DDB" fill-rule="nonzero"></path>
                    <path d="M67.8827481,13.8384365 C67.8827481,13.2319218 67.4101309,12.7615635 66.8007035,12.7615635 L65.718659,12.7615635 L65.718659,13.8384365 C65.718659,14.4449511 66.1912762,14.9153094 66.8007035,14.9153094 C67.3976936,14.9153094 67.8827481,14.4325733 67.8827481,13.8384365" id="Shape" fill="#009DDB" fill-rule="nonzero"></path>
                    <path d="M74.6486358,19.7921824 L76.6012908,19.7921824 C77.6833354,19.7921824 78.5539459,18.9257329 78.5539459,17.8117264 L78.5539459,12.7986971 L74.6113239,12.7986971 L74.6113239,19.7921824 L74.6486358,19.7921824 Z" id="Shape" fill="#009DDB" fill-rule="nonzero"></path>
                    <path d="M78.5912578,7.05537459 L78.5912578,4.90162866 L78.5912578,2.00521173 C78.5912578,1.22540717 78.8897528,0.532247557 79.3748073,0.0247557003 L78.5912578,0.0247557003 C76.4271687,0.0247557003 74.6486358,1.79478827 74.6486358,3.9980456 L74.6486358,7.83517915 C75.1710021,7.36482085 75.8674905,7.05537459 76.6012908,7.05537459 L78.5912578,7.05537459 Z" id="Shape" fill="#009DDB" fill-rule="nonzero"></path>
                    <path d="M82.583629,12.7986971 L82.496568,12.7986971 L82.496568,17.8488599 C82.496568,18.9257329 83.3671785,19.829316 84.4492231,19.829316 L86.4018781,19.829316 L86.4018781,10.7687296 C85.5810168,11.981759 84.150728,12.7491857 82.583629,12.7986971" id="Shape" fill="#009DDB" fill-rule="nonzero"></path>
                    <path d="M82.496568,0.0123778502 L81.4145234,0.0123778502 C80.3324789,0.0123778502 79.4618683,0.915960912 79.4618683,1.99283388 L79.4618683,3.9732899 L80.5439129,3.9732899 C81.6259574,3.9732899 82.496568,4.87687296 82.496568,5.95374593 C82.496568,6.85732899 81.9368898,7.6 81.1035911,7.85993485 C80.929469,7.8970684 80.718035,7.9465798 80.5439129,7.9465798 L76.6012908,7.9465798 C75.5192463,7.9465798 74.6486358,8.85016287 74.6486358,9.92703583 L74.6486358,11.9074919 L80.5439129,11.9074919 L82.496568,11.9074919 C84.660657,11.9074919 86.43919,10.1374593 86.43919,7.93420195 L86.43919,3.96091205 C86.4516273,1.78241042 84.6730943,0.0123778502 82.496568,0.0123778502" id="Shape" fill="#009DDB" fill-rule="nonzero"></path>
                    <path d="M75.3202496,29.5459283 L74.7605714,29.5459283 C73.852649,29.5459283 73.1561605,29.4592834 72.7208553,29.2859935 C72.28555,29.4592834 71.5890615,29.5459283 70.6811391,29.5459283 L69.5990946,29.5459283 C67.7708124,29.5459283 66.9126392,28.7661238 66.9126392,27.2188925 L66.9126392,25.8325733 L68.0444329,25.8325733 L68.0444329,27.2560261 C68.0444329,27.7263844 68.218555,28.0729642 68.51705,28.2462541 C68.728484,28.3700326 69.1264774,28.4566775 69.6488438,28.4566775 L70.7308883,28.4566775 L71.3776276,28.4566775 C71.0293833,28.0234528 70.8552612,27.590228 70.8552612,27.0703583 C70.8552612,26.8599349 70.8925731,26.6371336 70.9423223,26.4267101 C71.2035054,25.609772 71.8999939,25.1270358 72.7706044,25.1270358 C73.641215,25.1270358 74.3377034,25.6469055 74.5864493,26.4267101 C74.6735103,26.6371336 74.6735103,26.8599349 74.6735103,27.0703583 C74.6735103,27.590228 74.4993882,28.0605863 74.151144,28.4566775 L74.7978833,28.4566775 L75.3575615,28.4566775 L75.3202496,29.5459283 Z M73.1064114,27.8996743 C73.4049064,27.6892508 73.5790285,27.3798046 73.5790285,26.9960912 C73.5790285,26.4762215 73.2307843,26.0925081 72.708418,26.0925081 C72.1860516,26.0925081 71.8378074,26.5257329 71.8378074,26.9960912 C71.8378074,27.3798046 72.0119295,27.6892508 72.3104246,27.8996743 C72.4347975,27.9863192 72.5716077,28.0729642 72.6959807,28.1596091 C72.8452282,28.0729642 72.9820384,27.9863192 73.1064114,27.8996743 Z M73.1934724,24.3596091 L72.1984889,24.3596091 L72.1984889,23.4065147 L73.1934724,23.4065147 L73.1934724,24.3596091 Z" id="Shape" fill="#596E9C" fill-rule="nonzero"></path>
                    <path d="M77.5340879,27.9491857 C77.5340879,28.3824104 77.4097149,28.7661238 77.1858436,29.0260586 C76.9246605,29.3726384 76.5391044,29.5459283 76.0540499,29.5459283 L75.0963783,29.5459283 L75.0963783,28.419544 L75.8301786,28.419544 C76.0416126,28.419544 76.2157347,28.332899 76.3027958,28.1596091 C76.3898568,28.0358306 76.3898568,27.8625407 76.3898568,27.6026059 L76.3898568,26.265798 L77.5216506,26.265798 L77.5216506,27.9491857 L77.5340879,27.9491857 Z M77.5340879,25.8325733 L75.4073107,25.8325733 L75.4073107,25.1889251 L75.8799278,25.1889251 C75.8426159,25.1022801 75.8426159,24.9785016 75.8426159,24.8918567 C75.8426159,24.371987 76.228172,23.9387622 76.7505384,23.9387622 C77.0987826,23.9387622 77.3972776,24.1120521 77.5713997,24.4957655 L77.0117215,24.7557003 C76.9744096,24.5824104 76.8873486,24.4957655 76.7505384,24.4957655 C76.5764162,24.4957655 76.4893552,24.619544 76.4893552,24.8423453 C76.4893552,25.0156352 76.5266671,25.1394137 76.6634773,25.1889251 L77.5713997,25.1889251 L77.5340879,25.8325733 Z" id="Shape" fill="#596E9C" fill-rule="nonzero"></path>
                    <path d="M80.7926588,29.5459283 L79.7106142,29.5459283 C78.8400037,29.5459283 78.3176373,29.0260586 78.3176373,28.1596091 L78.3176373,24.2358306 L79.4494311,24.2358306 L79.4494311,27.6026059 C79.4494311,28.1596091 79.573804,28.4690554 80.4444145,28.4690554 L80.7926588,28.4690554 L80.7926588,29.5459283 Z" id="Shape" fill="#596E9C" fill-rule="nonzero"></path>
                    <path d="M87.4714854,29.5459283 L80.2702924,29.5459283 L80.2702924,28.419544 L81.9617643,28.419544 L81.9617643,24.2358306 L83.0935581,24.2358306 L83.006497,26.9094463 C83.7402973,26.1296417 84.4865349,25.7830619 85.3073963,25.7830619 C86.7874342,25.7830619 87.5585464,26.9465798 87.5585464,28.7661238 C87.5087973,29.0260586 87.5087973,29.2859935 87.4714854,29.5459283 Z M86.3023798,28.4566775 L86.3023798,28.2833876 C86.3023798,27.4169381 85.8670745,26.8104235 85.1705861,26.8104235 C84.3497247,26.8104235 83.5661752,27.3674267 82.9567478,28.4566775 L86.3023798,28.4566775 Z M85.6929524,25.1765472 L84.6482197,25.1765472 L84.6482197,24.2234528 L85.6929524,24.2234528 L85.6929524,25.1765472 Z" id="Shape" fill="#596E9C" fill-rule="nonzero"></path>
                    <path d="M91.8494127,29.3726384 C91.8494127,30.4123779 91.2399853,30.8827362 89.9838187,30.8827362 L89.8594457,30.8827362 L89.8594457,29.9791531 L89.9465068,29.9791531 C90.4191239,29.9791531 90.8544292,29.6820847 90.8544292,29.1993485 C90.6803071,29.4592834 90.4191239,29.5830619 90.0335678,29.5830619 C88.9888352,29.5830619 88.2052857,28.7661238 88.2052857,27.676873 C88.2052857,26.5504886 88.9888352,25.770684 90.0335678,25.770684 C91.0783005,25.770684 91.8494127,26.5876221 91.8494127,27.676873 L91.8494127,29.3726384 Z M90.717619,27.6892508 C90.717619,27.1693811 90.4191239,26.8228013 90.0211306,26.8228013 C89.6355745,26.8228013 89.3743913,27.1693811 89.3743913,27.6397394 C89.3743913,28.1100977 89.6355745,28.5061889 90.0708797,28.5061889 C90.4564358,28.5061889 90.717619,28.1967427 90.717619,27.6892508 Z" id="Shape" fill="#596E9C" fill-rule="nonzero"></path>
                    <path d="M35.6825951,29.4221498 C34.2896183,29.4221498 33.2075737,28.2957655 33.2075737,26.9218241 C33.2075737,25.5850163 34.3393674,24.4586319 35.6825951,24.4586319 C36.7646397,24.4586319 37.6725621,25.1517915 38.0208063,26.1420195 L36.7646397,26.1420195 C36.5034565,25.7087948 36.2049615,25.4488599 35.6825951,25.4488599 C34.8617338,25.4488599 34.3393674,26.0925081 34.3393674,26.9218241 C34.3393674,27.7387622 34.8990456,28.3947883 35.7323443,28.3947883 C36.1676496,28.3947883 36.5158938,28.1348534 36.777077,27.7511401 L38.0332436,27.7511401 C37.6352502,28.7785016 36.7646397,29.4221498 35.6825951,29.4221498" id="Shape" fill="#596E9C" fill-rule="nonzero"></path>
                    <path d="M42.3614218,29.2983713 L42.3614218,28.7413681 C41.9758657,29.1745928 41.3166891,29.4716612 40.7072617,29.4716612 C39.3142848,29.4716612 38.4561116,28.3081433 38.4561116,26.9713355 C38.4561116,25.6345277 39.4137832,24.5081433 40.7943228,24.5081433 C41.3166891,24.5081433 41.7893063,24.7185668 42.1872996,25.0651466 C42.2246115,25.1022801 42.3116726,25.1889251 42.3614218,25.2384365 L42.3614218,24.6319218 L43.4061544,24.6319218 L43.4061544,29.2983713 L42.3614218,29.2983713 Z M40.9808822,25.4983713 C40.1600208,25.4983713 39.5879053,26.1915309 39.5879053,26.9713355 C39.5879053,27.7511401 40.1973327,28.3947883 40.9808822,28.3947883 C41.8017435,28.3947883 42.3241099,27.7016287 42.3241099,26.9218241 C42.3241099,26.1420195 41.8017435,25.4983713 40.9808822,25.4983713 Z" id="Shape" fill="#596E9C" fill-rule="nonzero"></path>
                    <path d="M45.3961214,26.6618893 L45.3961214,29.2488599 L44.276765,29.2488599 L44.276765,24.6319218 L45.3214976,24.6319218 L45.3214976,25.0651466 C45.6199927,24.6319218 45.8438639,24.5081433 46.4035422,24.5081433 L46.4035422,25.5850163 C45.6573045,25.5850163 45.3961214,26.0058632 45.3961214,26.6618893" id="Shape" fill="#596E9C" fill-rule="nonzero"></path>
                    <path d="M51.2167747,27.4788274 L47.5726477,27.4788274 C47.6223969,27.6026059 47.6597088,27.6892508 47.6970207,27.8254072 C47.9582038,28.2091205 48.3935091,28.4319218 48.8288144,28.4319218 C49.2641197,28.4319218 49.6994249,28.2586319 49.9108589,27.8254072 L51.0799645,27.8254072 C50.7814695,28.7785016 49.8237979,29.4221498 48.8288144,29.4221498 C47.4358375,29.4221498 46.353793,28.3452769 46.353793,26.9589577 C46.353793,25.5726384 47.3985256,24.4586319 48.8288144,24.4586319 C50.1720421,24.4586319 51.2540866,25.5355049 51.2540866,26.8723127 C51.3038358,27.095114 51.2540866,27.2684039 51.2167747,27.4788274 M48.8785636,25.4983713 C48.1820751,25.4983713 47.709458,25.8820847 47.5726477,26.5752443 L50.1720421,26.5752443 C50.0476692,25.8820847 49.5626147,25.4983713 48.8785636,25.4983713" id="Shape" fill="#596E9C" fill-rule="nonzero"></path>
                    <path d="M56.5523737,27.4788274 L52.9082467,27.4788274 C52.9455585,27.6026059 52.9953077,27.6892508 53.0326196,27.8254072 C53.2938028,28.2091205 53.729108,28.4319218 54.1644133,28.4319218 C54.5997186,28.4319218 55.0350239,28.2586319 55.2464578,27.8254072 L56.4155634,27.8254072 C56.1170684,28.7785016 55.1593968,29.4221498 54.1644133,29.4221498 C52.7714364,29.4221498 51.6893919,28.3452769 51.6893919,26.9589577 C51.6893919,25.5726384 52.7341246,24.4586319 54.1644133,24.4586319 C55.507641,24.4586319 56.5896855,25.5355049 56.5896855,26.8723127 C56.6394347,27.095114 56.6021228,27.2684039 56.5523737,27.4788274 M54.2514744,25.4983713 C53.5549859,25.4983713 53.0823688,25.8820847 52.9455585,26.5752443 L55.5449529,26.5752443 C55.3832681,25.8820847 54.8982136,25.4983713 54.2514744,25.4983713" id="Shape" fill="#596E9C" fill-rule="nonzero"></path>
                    <path d="M58.5050288,26.6618893 L58.5050288,29.2488599 L57.373235,29.2488599 L57.373235,24.6319218 L58.4179677,24.6319218 L58.4179677,25.0651466 C58.7164627,24.6319218 58.940334,24.5081433 59.5000122,24.5081433 L59.5000122,25.5850163 C58.7662119,25.5850163 58.5050288,26.0058632 58.5050288,26.6618893" id="Shape" fill="#596E9C" fill-rule="nonzero"></path>
                    <path d="M61.4153554,29.4221498 C60.8929891,29.4221498 60.3333109,29.2117264 60.0223786,28.8156352 C59.7611954,28.5185668 59.7238835,28.2091205 59.6741343,27.8254072 L60.8059281,27.8254072 C60.8929891,28.171987 61.017362,28.4319218 61.4153554,28.4319218 C61.6765386,28.4319218 61.9377218,28.2586319 61.9377218,27.9615635 C61.9377218,27.8749186 61.9377218,27.7882736 61.8506607,27.7016287 C61.7262878,27.4912052 61.1168604,27.3179153 60.8556772,27.2684039 C60.2462498,27.0579805 59.8109446,26.6247557 59.8109446,25.9315961 C59.8109446,25.0651466 60.5447449,24.5081433 61.3780436,24.5081433 C62.1989049,24.5081433 62.8580815,25.114658 62.8953934,25.9315961 L61.8133488,25.9315961 C61.776037,25.6716612 61.6392267,25.5478827 61.3780436,25.5478827 C61.1666096,25.5478827 60.9427383,25.7211726 60.9427383,25.9315961 C60.9427383,26.1915309 61.1168604,26.2286645 61.3282944,26.3153094 C61.4526673,26.352443 61.5894775,26.4019544 61.7138505,26.4390879 C62.4476508,26.6495114 63.0197663,26.9589577 63.0197663,27.8254072 C63.0570782,28.7289902 62.3232779,29.4221498 61.4153554,29.4221498" id="Shape" fill="#596E9C" fill-rule="nonzero"></path>
                </g>
            </g>
        </g>
    </g>
</svg>