<?xml version="1.0" encoding="UTF-8"?>
<svg width="22px" height="22px" viewBox="0 0 22 22" version="1.1" xmlns="http://www.w3.org/2000/svg" xmlns:xlink="http://www.w3.org/1999/xlink">
    <!-- Generator: Sketch 48.1 (47250) - http://www.bohemiancoding.com/sketch -->
    <title>Glyphs/Firefox</title>
    <desc>Created with Sketch.</desc>
    <defs>
        <path d="M24,13 C17.92525,13 13,17.92525 13,24 C13,30.07475 17.92525,35 24,35 C30.07475,35 35,30.07475 35,24 C35,17.92525 30.07475,13 24,13 Z M31.3360833,20.9355833 C30.1664167,17.8913333 27.24775,16.7143333 26.26325,16.7766667 C29.4981667,18.038 30.2718333,22.33075 29.9849167,23.5975833 C29.7035,22.1116667 28.8060833,20.832 28.2689167,20.4946667 C31.4011667,27.8325833 23.8368333,30.0875833 21.5286667,27.5410833 C22.1235833,27.6950833 23.29875,27.619 24.17875,27.0305 C25.0019167,26.4786667 25.0798333,26.4456667 25.60875,26.4044167 C26.2375833,26.3558333 25.5711667,25.1155833 24.198,25.3255 C23.6333333,25.4116667 22.702,26.07625 21.558,25.6380833 C20.1756667,25.1100833 20.2196667,23.2235833 21.646,23.791 C21.9549167,23.3904167 21.7266667,22.63325 21.7266667,22.63325 C22.141,22.25375 22.6635,21.9860833 22.9825,21.7981667 C23.1915,21.6744167 23.7424167,21.3334167 23.71125,20.6706667 C23.5985,20.5826667 23.4179167,20.4699167 23.0090833,20.49375 C21.41775,20.5945833 21.3114167,20.0189167 21.206,19.7530833 C21.2775,19.14075 21.6863333,18.3469167 22.4535833,17.983 C21.3013333,17.8060833 20.3635833,18.3469167 19.897,19.0408333 C19.1554167,18.8813333 18.70075,18.8730833 17.9555,19.0124167 C17.6658333,18.7924167 17.345,18.39825 17.1506667,17.9298333 C18.83,16.036 21.27475,14.8333333 24,14.8333333 C29.4193333,14.8333333 31.5744167,18.7594167 31.3360833,20.9355833 Z" id="path-1"></path>
    </defs>
    <g id="Glyphs" stroke="none" stroke-width="1" fill="none" fill-rule="evenodd" transform="translate(-437.000000, -1665.000000)">
        <g id="Browsers" transform="translate(0.000000, 1524.000000)">
            <g id="Glyphs/Firefox" transform="translate(424.000000, 128.000000)">
                <mask id="mask-2" fill="white">
                    <use xlink:href="#path-1"></use>
                </mask>
                <use id="Firefox" fill="#000000" fill-rule="nonzero" xlink:href="#path-1"></use>
                <g id="⮑-Palette" mask="url(#mask-2)" fill="#2B2B2B">
                    <rect id="Color" x="0" y="0" width="48" height="48"></rect>
                </g>
            </g>
        </g>
    </g>
</svg>