<?xml version="1.0" encoding="UTF-8"?>
<svg width="22px" height="22px" viewBox="0 0 22 22" version="1.1" xmlns="http://www.w3.org/2000/svg" xmlns:xlink="http://www.w3.org/1999/xlink">
    <!-- Generator: Sketch 48.1 (47250) - http://www.bohemiancoding.com/sketch -->
    <title>Google Chrome</title>
    <desc>Created with Sketch.</desc>
    <defs>
        <path d="M15.655604,16.8326132 C17.8831213,14.2402597 20.9383951,13 23.9716687,13 C27.902366,13 31.7954796,15.0835995 33.7956618,19.0078801 C31.3004757,19.0087968 27.393612,19.0078801 25.2770122,19.0078801 C23.7425003,19.0087968 22.7515759,18.9739632 21.6781509,19.5386342 C20.4168077,20.202306 19.4643836,21.433399 19.1325477,22.8789935 L15.655604,16.8326132 Z M20.3398071,24.0000856 C20.3398071,26.016768 21.9797365,27.6576141 23.9955022,27.6576141 C26.0112679,27.6576141 27.6511973,26.016768 27.6511973,24.0000856 C27.6511973,21.9834032 26.0112679,20.3416405 23.9955022,20.3416405 C21.9797365,20.3416405 20.3398071,21.9834032 20.3398071,24.0000856 Z M25.4145133,28.7878729 C23.3629973,29.3983776 20.961312,28.7209557 19.6458851,26.4512713 C18.6421272,24.7178412 15.9892733,20.0959719 14.7829305,17.9949555 C13.5637544,19.8649701 13,21.9311528 13,23.959752 C13,28.9537908 16.4155266,33.7223279 21.8669857,34.7930029 L25.4145133,28.7878729 Z M27.3926953,20.3416405 C29.1013753,21.9311528 29.4744615,24.5051729 28.3157859,26.5007717 C27.4440291,28.0050334 24.6600907,32.7029867 23.3107469,34.978171 C29.9007149,35.3842575 35.0001712,30.0647995 35.0001712,24.0037523 C35.0001712,22.8001596 34.798503,21.5654 34.3676663,20.3416405 L27.3926953,20.3416405 Z" id="path-1"></path>
    </defs>
    <g id="Glyphs/Google-Chrome" stroke="none" stroke-width="1" fill="none" fill-rule="evenodd" transform="translate(-13.000000, -13.000000)">
        <mask id="mask-2" fill="white">
            <use xlink:href="#path-1"></use>
        </mask>
        <use id="Google-Chrome" fill="#000000" fill-rule="nonzero" xlink:href="#path-1"></use>
    </g>
</svg>