<?xml version="1.0" encoding="UTF-8"?>
<svg width="24px" height="24px" viewBox="0 0 24 24" version="1.1" xmlns="http://www.w3.org/2000/svg" xmlns:xlink="http://www.w3.org/1999/xlink">
    <!-- Generator: Sketch 48.1 (47250) - http://www.bohemiancoding.com/sketch -->
    <title>Glyphs/Instagram Circle</title>
    <desc>Created with Sketch.</desc>
    <defs>
        <path d="M24,12 C30.6172561,12 36,17.3832273 36,24 C36,30.6162894 30.6162894,36 24,36 C17.3832273,36 12,30.6162894 12,24 C12,17.3832273 17.3832273,12 24,12 Z M30.8246194,22.5996939 L30.8246194,19.8135825 C30.8246194,18.3586562 29.6413438,17.175864 28.1864175,17.175864 L19.8130992,17.175864 C18.3581729,17.175864 17.1753806,18.3586562 17.1753806,19.8135825 L17.1753806,22.5996939 L17.1753806,28.1873842 C17.1753806,29.6427938 18.3581729,30.8255861 19.8130992,30.8255861 L28.1869008,30.8255861 C29.6413438,30.8255861 30.8246194,29.6427938 30.8246194,28.1873842 L30.8246194,22.5996939 Z M29.2454685,21.0611456 L26.9393378,21.0688794 L26.931604,18.7550149 L28.9443326,18.7487312 L29.2454685,18.7477644 L29.2454685,19.0474503 L29.2454685,21.0611456 Z M23.9995166,26.4023201 C22.6750987,26.4023201 21.5967131,25.3244179 21.5981632,23.9995166 C21.5986466,23.4765166 21.7683074,22.9936357 22.0525256,22.5992105 C22.4899702,21.9940385 23.1990655,21.5976799 24.0009667,21.5976799 C24.8023846,21.5976799 25.5119633,21.9945219 25.9484412,22.5996939 C26.2316926,22.9941191 26.4028035,23.4769999 26.4028035,24 C26.4028035,25.3249013 25.3234512,26.4023201 23.9995166,26.4023201 Z M27.7330218,24 C27.7330218,23.505035 27.6329654,23.0318215 27.4555708,22.5996939 L29.4939177,22.5996939 L29.4939177,28.1873842 C29.4939177,28.9095303 28.9066301,29.494401 28.1859341,29.494401 L19.8126158,29.494401 C19.090953,29.494401 18.5046322,28.9095303 18.5046322,28.1873842 L18.5046322,22.5996939 L20.5420124,22.5996939 C20.3660678,23.0318215 20.2674615,23.505035 20.2674615,24 C20.2674615,26.0576815 21.9413518,27.7330218 24,27.7330218 C26.0586482,27.7330218 27.7330218,26.0576815 27.7330218,24 Z" id="path-1"></path>
    </defs>
    <g id="Glyphs" stroke="none" stroke-width="1" fill="none" fill-rule="evenodd" transform="translate(-644.000000, -1448.000000)">
        <g id="Social-Media" transform="translate(0.000000, 1308.000000)">
            <g id="Glyphs/Instagram-Circle" transform="translate(632.000000, 128.000000)">
                <mask id="mask-2" fill="white">
                    <use xlink:href="#path-1"></use>
                </mask>
                <use id="Instagram-Circle" fill="#000000" fill-rule="nonzero" xlink:href="#path-1"></use>
                <g id="⮑-Palette" mask="url(#mask-2)" fill="#2B2B2B">
                    <rect id="Color" x="0" y="0" width="48" height="48"></rect>
                </g>
            </g>
        </g>
    </g>
</svg>