<?xml version="1.0" encoding="UTF-8"?>
<svg width="22px" height="22px" viewBox="0 0 22 22" version="1.1" xmlns="http://www.w3.org/2000/svg" xmlns:xlink="http://www.w3.org/1999/xlink">
    <!-- Generator: Sketch 48.1 (47250) - http://www.bohemiancoding.com/sketch -->
    <title>Glyphs/Internet Explorer</title>
    <desc>Created with Sketch.</desc>
    <defs>
        <path d="M33.9229167,19.8539167 C35.858,15.54925 34.42525,13 30.9703333,13 C29.3276667,13 27.0671667,13.8525 25.4593333,14.64725 C19.74025,14.5849167 16.4549167,18.6338333 15.3860833,22.4719167 C17.0663333,20.4286667 19.2195833,18.53025 20.6000833,18.137 C16.18725,21.7413333 13,27.5988333 13,31.4341667 C13,33.5516667 13.9414167,35 16.1258333,35 C17.9179167,35 19.36075,34.1484167 20.6990833,33.5461667 C21.94575,34.2180833 23.3216667,34.6168333 24.72875,34.6168333 C29.8804167,34.6168333 33.14375,31.9585 34.5975833,27.6666667 L29.08475,27.6666667 C28.2625,29.1544167 27.1194167,30.0646667 25.1504167,30.0646667 C22.7285833,30.0646667 21.00525,28.01225 20.94475,25.8333333 L34.9798333,25.8333333 C34.9926667,25.5363333 35,25.2439167 35,24.9560833 C35,23.0384167 34.6865,21.3416667 33.9229167,19.8539167 Z M15.90125,28.10575 C16.6373333,30.0976667 18.1315,31.92275 19.99325,33.1309167 C14.5235,35.8955833 13.59675,32.0941667 15.90125,28.10575 Z M21.0043333,23.0833333 C21.0840833,21.4544167 22.7295,19.1306667 25.3163333,19.1306667 C27.73725,19.1306667 29.4385833,21.1693333 29.4981667,23.0833333 L21.0043333,23.0833333 Z M28.8684167,15.3485 C31.8714167,13.9469167 35.5729167,14.1174167 33.5030833,19.1224167 C32.5378333,17.6383333 31.0500833,16.3825 28.8684167,15.3485 Z" id="path-1"></path>
    </defs>
    <g id="Glyphs" stroke="none" stroke-width="1" fill="none" fill-rule="evenodd" transform="translate(-333.000000, -1665.000000)">
        <g id="Browsers" transform="translate(0.000000, 1524.000000)">
            <g id="Glyphs/Internet-Explorer" transform="translate(320.000000, 128.000000)">
                <mask id="mask-2" fill="white">
                    <use xlink:href="#path-1"></use>
                </mask>
                <use id="Internet-Explorer" fill="#000000" fill-rule="nonzero" xlink:href="#path-1"></use>
                <g id="⮑-Palette" mask="url(#mask-2)" fill="#2B2B2B">
                    <rect id="Color" x="0" y="0" width="48" height="48"></rect>
                </g>
            </g>
        </g>
    </g>
</svg>