<?xml version="1.0" encoding="UTF-8"?>
<svg width="22px" height="24px" viewBox="0 0 22 24" version="1.1" xmlns="http://www.w3.org/2000/svg" xmlns:xlink="http://www.w3.org/1999/xlink">
    <!-- Generator: Sketch 48.1 (47250) - http://www.bohemiancoding.com/sketch -->
    <title>Safari</title>
    <desc>Created with Sketch.</desc>
    <defs>
        <path d="M22.615,23.885 L19.636,31.296 L25.383,25.969 L28.31,18.665 L22.615,23.885 Z M24.159,25.905 C23.624,25.983 23.127,25.614 23.048,25.081 C22.969,24.548 23.34,24.052 23.875,23.974 C24.41,23.896 24.908,24.265 24.986,24.798 C25.064,25.332 24.694,25.827 24.159,25.905 Z M20.098,13.182 C20.098,12.53 20.784,12 21.626,12 C22.468,12 23.154,12.53 23.154,13.182 C23.154,13.437 23.049,13.673 22.87,13.867 C22.8,13.727 22.713,13.595 22.609,13.482 C22.671,13.39 22.707,13.288 22.707,13.182 C22.707,12.783 22.212,12.445 21.626,12.445 C21.04,12.445 20.545,12.782 20.545,13.182 C20.545,13.429 20.734,13.652 21.017,13.786 C20.967,13.918 20.934,14.067 20.92,14.23 C20.432,14.032 20.098,13.637 20.098,13.182 Z M21.104,26.39 L17.259,26.341 L20.791,24.669 C20.82,24.244 20.932,23.841 21.112,23.477 L19.478,21.787 L21.681,22.669 C21.925,22.417 22.209,22.204 22.523,22.042 L22.729,18.22 L24.316,21.693 L23.773,22.191 C22.064,22.332 20.898,24.015 21.396,25.664 L21.104,26.39 Z M24,14.08 C23.558,14.08 23.123,14.106 22.694,14.157 C22.532,13.729 22.199,13.342 21.754,13.442 C21.303,13.542 21.186,14.029 21.192,14.44 C16.478,15.677 13,19.954 13,25.04 C13,31.093 17.925,36 24,36 C30.075,36 35,31.093 35,25.04 C35,18.987 30.075,14.08 24,14.08 Z M26.389,33.674 L25.66,32.595 L25.476,33.872 C20.652,34.663 16.248,31.518 15.234,27.019 L16.211,26.396 L15.078,26.104 C14.522,21.412 17.645,17.34 21.903,16.331 L22.503,17.266 L22.725,16.176 C27.366,15.523 31.517,18.47 32.667,22.665 L31.72,23.408 L32.856,23.509 C33.663,28.206 30.693,32.499 26.389,33.674 Z M30.561,23.646 L27.193,25.255 C27.156,25.572 27.073,25.876 26.951,26.158 L28.658,27.904 L26.414,27 C26.157,27.292 25.847,27.537 25.499,27.72 L25.41,31.605 L23.739,28.13 L24.341,27.572 C25.974,27.367 27.069,25.752 26.615,24.153 L26.886,23.478 L30.561,23.646 Z" id="path-1"></path>
    </defs>
    <g id="Glyphs/Safari" stroke="none" stroke-width="1" fill="none" fill-rule="evenodd" transform="translate(-13.000000, -12.000000)">
        <mask id="mask-2" fill="white">
            <use xlink:href="#path-1"></use>
        </mask>
        <use id="Safari" fill="#000000" fill-rule="nonzero" xlink:href="#path-1"></use>
    </g>
</svg>