<?xml version="1.0" encoding="UTF-8"?>
<svg width="234px" height="108px" viewBox="0 0 234 108" version="1.1" xmlns="http://www.w3.org/2000/svg" xmlns:xlink="http://www.w3.org/1999/xlink">
    <!-- Generator: Sketch 48.1 (47250) - http://www.bohemiancoding.com/sketch -->
    <title>Sheryan Mix Logo</title>
    <desc>Created with Sketch.</desc>
    <defs>
        <linearGradient x1="50%" y1="74.3423151%" x2="50%" y2="0%" id="linearGradient-1">
            <stop stop-color="#A8D057" offset="0%"></stop>
            <stop stop-color="#3CA6AE" offset="100%"></stop>
        </linearGradient>
        <linearGradient x1="50%" y1="0%" x2="50%" y2="100%" id="linearGradient-2">
            <stop stop-color="#DF4249" offset="0%"></stop>
            <stop stop-color="#9F1D20" offset="100%"></stop>
        </linearGradient>
    </defs>
    <g id="Logos" stroke="none" stroke-width="1" fill="none" fill-rule="evenodd" transform="translate(-216.000000, -1021.000000)">
        <g id="Sheryan" transform="translate(0.000000, 681.000000)">
            <g id="Logo/Sheryan-Mix" transform="translate(216.000000, 340.000000)">
                <g id="Text" transform="translate(83.820896, 12.204000)" fill="#FFFFFF">
                    <g id="Arabic" transform="translate(0.498934, 48.500000)">
                        <path d="M14.4871945,12.147 C15.1866998,13.469 15.5369514,14.4045 15.5369514,14.953 L15.5369514,28.8555 C15.1038768,31.177 13.9079322,32.35 11.9985122,32.35 L7.46819232,32.35 C5.53332665,32.35 4.36232878,31.177 3.92975309,28.8555 L3.92975309,19.162 C3.92975309,18.3945 4.27950576,17.3405 4.97951002,15.999 C2.48484051,16.9175 0.187748827,18.371 0.187748827,20.3355 L0.187748827,28.626 C0.187748827,32.274 2.17300682,34.6975 6.14402175,35.8705 L7.13690021,35.998 L12.3298043,35.998 L13.3226827,35.8705 C17.2931987,34.6975 19.2789557,32.2995 19.2789557,28.7025 L19.2789557,16.254 C19.2789557,14.29 16.981365,12.9125 14.4871945,12.147" id="Fill-15"></path>
                        <path d="M99.3337484,15.6929 C99.3337484,13.9174 97.0361578,12.6319 94.5165416,11.8369 C95.2160469,13.2429 95.5662985,14.2819 95.5662985,14.9529 L95.5662985,19.0599 C95.5662985,22.1979 94.0390618,23.8299 91.0095352,23.9579 L30.1221365,23.9579 C27.9078678,23.8814 26.6096418,22.6314 26.2279574,20.2079 L26.2279574,5.4829 C26.2279574,4.7554 26.578209,3.7029 27.2777143,2.3264 C24.8853262,3.2189 22.6131812,4.6729 22.56229,6.6879 L22.56229,20.4889 C22.56229,21.2284 22.7154627,21.9424 22.9948657,22.6824 C24.6243838,25.9734 26.8640981,27.6054 29.6895608,27.5799 L30.0507889,27.5799 L30.1221365,27.5799 L92.1550874,27.5799 C92.8935096,27.5799 93.6314328,27.4269 94.369855,27.1464 C97.5770021,25.5394 99.2319659,23.3964 99.3337484,20.6929 L99.3337484,15.6929 Z" id="Fill-17"></path>
                        <path d="M9.03354755,9.2207 C10.676038,9.2207 11.981748,7.9027 11.981748,6.2447 C11.981748,4.6712 10.676038,3.3112 9.03354755,3.3112 C7.39055821,3.3112 6.08484819,4.6712 6.08484819,6.2447 C6.08484819,7.9027 7.39055821,9.2207 9.03354755,9.2207" id="Fill-19"></path>
                        <path d="M85.4619889,32.4463 C83.4188546,32.4463 81.762893,33.0818 81.762893,34.8018 C81.762893,35.2988 81.762893,35.6928 81.5413663,36.0013 C81.8097928,36.0003 82.3775795,35.5608 82.8705262,35.5628 C88.4994985,35.5858 89.6699974,35.6538 91.2017245,35.6538 C93.6215539,35.6538 94.896829,35.3363 95.2630465,32.9038 C95.3144367,32.5603 95.8298354,31.9773 95.8298354,31.9773 C95.8298354,31.9773 94.9107991,32.1808 94.504168,32.2768 C93.2109313,32.5828 85.4619889,32.4463 85.4619889,32.4463" id="Fill-21"></path>
                        <path d="M146.403572,12.68505 C144.911759,13.37105 143.955303,14.86505 143.955303,16.51005 L143.955303,19.57055 C143.955303,21.99355 142.784305,23.37105 140.417363,23.72805 L139.44993,23.72805 C137.286553,23.34555 136.191892,21.86605 136.191892,19.31505 L136.191892,13.90105 C136.191892,13.45705 136.357039,12.77055 136.687832,11.84105 L134.814834,12.69105 C133.313542,13.37305 132.348105,14.87255 132.348105,16.52505 L132.348105,19.97855 C132.348105,22.09555 131.049879,23.39655 128.42848,23.88155 C125.958757,23.29455 124.711423,22.09555 124.711423,20.23355 L124.711423,13.90105 C124.711423,13.38955 124.854118,12.70305 125.138011,11.84105 L123.395235,12.67005 C121.929367,13.36655 120.995363,14.84705 120.995363,16.47255 L120.995363,19.08555 C120.995363,22.32505 119.798919,23.93205 117.431977,23.95805 L117.152075,23.95755 L111.74413,23.95755 L111.74413,16.00505 C111.74413,15.08705 112.094382,13.73305 112.794386,11.94255 C110.452391,12.78405 108.231636,14.13605 108.231636,15.97305 L108.20619,29.23755 C108.20619,31.55905 106.577171,32.73255 103.318634,32.73255 L101.002583,32.73255 C100.324531,32.73255 99.526736,32.38205 98.6096955,31.68005 C99.9847574,33.79755 101.613777,35.94605 103.522698,35.99755 L105.07538,35.99755 C107.900843,35.99755 110.06422,34.31405 111.541064,30.92155 L111.74413,29.51805 L111.74413,27.57955 L117.151576,27.57955 L117.151576,27.58005 L117.813661,27.58005 C119.39129,27.58005 121.072199,26.76355 122.879337,25.13155 C124.635585,26.76355 126.366386,27.58005 128.071742,27.58005 L129.242241,27.58005 C130.591858,27.58005 132.220877,26.86555 134.129798,25.46305 L134.562872,25.46305 C136.420902,26.86555 138.049922,27.58005 139.424484,27.58005 L140.594983,27.58005 C141.333904,27.58005 142.046382,27.42655 142.784305,27.14655 C143.62451,26.71305 144.541052,26.12605 145.53393,25.33555 C146.958885,24.06005 147.671862,22.24855 147.671862,19.90205 L147.671862,13.90105 C147.671862,13.54555 147.860459,12.85905 148.238152,11.84105 L146.403572,12.68505 Z" id="Fill-23"></path>
                        <path d="M134.850608,4.1548 C137.042424,4.1548 139.266672,6.9103 141.5468,9.0863 C138.75277,4.3418 136.528522,0.0063 134.850608,0.0033 C133.172693,0.0003 130.131192,3.3753 128.295614,9.0863 C129.618288,5.9498 132.65929,4.1548 134.850608,4.1548" id="Fill-25"></path>
                    </g>
                    <g id="English">
                        <path d="M18.1156913,15.48465 L9.79946098,11.96215 C9.76253987,11.96215 6.24755053,10.40915 5.26415181,7.98515 C4.54568699,6.05365 5.52858678,2.26565 8.55262516,1.16715 C9.79946098,0.78915 11.0462968,0.59915 12.2946294,0.59915 C16.4133288,0.59915 20.1927531,2.49315 22.1585527,5.41015 L22.1585527,7.19015 L22.5741646,7.19015 L22.5741646,2.64465 L22.1585527,2.64465 L22.1585527,4.57665 C19.8918959,1.73515 16.2247318,0.18265 12.2946294,0.18265 C6.96551642,0.18265 0.767260554,3.74365 0.464407676,9.50015 C0.464407676,13.59065 4.28075309,15.78765 7.49438635,17.30215 C11.0852136,19.12115 19.3625271,21.16615 19.6643821,25.29515 C19.8115676,26.97665 19.4633117,28.31415 18.7702925,29.33965 C17.1502542,31.73465 13.9650601,31.93865 12.4832264,32.03665 C7.27635224,32.38165 3.28238635,29.35415 2.08993433,28.05915 C1.32955906,27.31415 0.72834371,26.39315 0.0482968017,25.56015 C0.0477978678,25.94265 0.115153945,26.40615 0.372603838,26.84665 C0.372603838,26.84665 0.492347974,27.04365 0.653004691,27.22665 C3.67704307,30.67315 7.98533731,32.26415 12.4832264,32.45315 C14.1840921,32.45315 15.8839599,32.11165 17.5853245,31.46865 C21.7803608,29.83965 24.3508682,26.65865 24.4651241,23.02165 C24.7659812,19.38615 21.0254738,16.69715 18.1156913,15.48465" id="Fill-1"></path>
                        <path d="M46.0861753,21.65825 C46.0492542,21.09025 45.9354972,20.52175 45.7454034,19.95475 C44.8393394,16.62125 41.664623,14.15875 38.0732968,14.15875 C35.920397,14.15875 33.9925164,14.99225 32.5181667,16.46925 L32.5181667,0.59875 L34.0673565,0.59875 L34.0673565,0.25875 L26.1298171,0.25875 L26.1298171,0.59875 L27.6800047,0.59875 L27.6800047,32.14975 L26.1298171,32.14975 L26.1298171,32.49125 L34.0673565,32.49125 L34.0673565,32.14975 L32.5181667,32.14975 L32.5181667,16.88625 C33.9166785,15.40825 35.8445591,14.46225 38.0732968,14.46225 C40.8708192,14.46225 41.6267041,18.93075 41.740461,20.55975 L41.740461,32.11175 L40.1528533,32.11175 L40.1528533,32.45275 L47.8249599,32.45275 L47.8249599,32.11175 L46.1620132,32.11175 C46.1620132,22.15025 46.0861753,21.92325 46.0861753,21.65825" id="Fill-3"></path>
                        <path d="M54.4043514,22.87085 C54.5560273,20.40885 54.8204623,18.66585 55.3867522,16.88635 C55.4241723,16.92385 56.2194729,14.15885 58.2216947,13.89385 L58.6752256,13.89385 L59.0903386,13.89385 C60.3381723,14.04485 61.1314772,15.14335 61.5465902,16.01485 C62.4167309,17.98485 62.8697629,20.33285 62.8697629,22.87085 L54.4043514,22.87085 Z M68.0861168,23.17385 C68.0481979,21.65835 67.8970209,21.01485 67.7463429,20.52185 C66.7250252,16.77235 63.7024836,14.46235 60.2618354,13.66685 C59.6950465,13.59085 59.1661765,13.55285 58.6752256,13.55285 C58.3723727,13.55285 57.9946797,13.59085 57.6549058,13.62885 C57.4663087,13.66685 57.2772128,13.66685 57.0876179,13.66685 C52.2878738,14.65135 49.1889953,18.59085 49.1889953,22.98385 C49.1889953,27.37785 52.1356989,31.20335 56.3691531,32.22585 C56.8231829,32.33985 57.9572597,32.49085 58.6752256,32.49085 C62.00062,32.49085 64.9862405,30.82435 66.801362,27.83185 L66.3847522,27.83185 C64.7218055,30.59735 61.8504409,32.14985 58.6752256,32.14985 C54.6308674,32.14985 54.4043514,25.71135 54.4043514,23.17385 L62.9086797,23.17385 L68.0861168,23.17385 Z" id="Fill-5"></path>
                        <path d="M77.9511876,15.26345 C77.1349318,15.70295 76.5347143,16.20495 76.1380618,16.58295 L76.1380618,13.85595 L77.7256695,13.85595 L77.7256695,13.55295 L69.75071,13.55295 L69.75071,13.85595 L71.3003987,13.85595 L71.3003987,32.14995 L69.75071,32.14995 L69.75071,32.45295 L77.7256695,32.45295 L77.7256695,32.14995 L76.1380618,32.14995 L76.1380618,17.03745 C76.5466887,16.59395 77.2027868,15.98545 78.144774,15.47945 C78.9425693,15.05095 79.5283177,14.80745 80.205371,14.67245 C81.4846375,14.45145 81.7405906,14.26895 81.7326077,14.23495 C81.7126503,14.14795 79.7947484,14.26995 77.9511876,15.26345" id="Fill-7"></path>
                        <path d="M103.694032,13.55275 L100.594155,13.55275 L100.594155,13.85575 L101.992667,13.85575 L96.7014729,26.58275 L91.6362959,13.85575 L93.0348077,13.85575 L93.0348077,13.55275 L85.627136,13.55275 L85.627136,13.85575 L87.0261467,13.85575 L94.5475753,32.11175 C93.4189868,34.86725 92.2819164,37.62825 91.1348674,40.39425 C90.7616648,41.29375 90.3355753,42.62975 90.0117672,43.09675 C89.6804751,43.70575 88.3488205,44.86425 87.5170977,45.74825 C88.4246584,44.90175 89.8426286,44.38825 90.5236733,43.39125 L102.538501,13.85575 L103.694032,13.85575 L103.694032,13.55275 Z" id="Fill-9"></path>
                        <path d="M119.267206,29.04445 C117.490003,30.97645 115.109589,32.14995 112.388404,32.14995 C108.193368,32.14995 108.155449,25.52195 108.155449,23.09795 C108.155449,20.06745 108.911832,13.93195 112.388404,13.93195 C115.109589,13.93195 117.490003,15.06845 119.267206,17.00045 L119.267206,29.04445 Z M118.058289,13.89395 L119.267206,13.89395 L119.267206,16.50695 C117.490003,14.68945 115.072668,13.59095 112.388404,13.59095 C111.822114,13.59095 111.369082,13.66695 110.49944,13.85595 C106.114809,14.76495 102.977014,18.62795 102.977014,23.05995 C102.977014,27.41595 105.962634,31.20345 110.574779,32.30195 C111.216907,32.41495 111.784195,32.49095 112.388404,32.49095 C115.109589,32.49095 117.490003,31.39245 119.267206,29.53645 L119.267206,32.11195 L118.058289,32.11195 L118.058289,32.45295 L125.352702,32.45295 L125.352702,32.11195 L124.142788,32.11195 L124.142788,13.89395 L125.352702,13.89395 L125.352702,13.55295 L118.058289,13.55295 L118.058289,13.89395 Z" id="Fill-11"></path>
                        <path d="M148.069462,32.1499 L148.069462,22.3404 C147.768106,17.6054 144.441714,13.7049 139.641471,13.7049 C137.412234,13.7049 135.371096,14.5764 133.896746,16.0529 L133.896746,13.9699 L135.483855,13.9699 L135.483855,13.5909 L127.319799,13.5909 L127.319799,13.9699 L128.908405,13.9699 L128.908405,32.1879 L127.319799,32.1879 L127.319799,32.4909 L135.483855,32.4909 L135.483855,32.1879 L133.896746,32.1879 L133.896746,16.4689 C135.295258,14.9924 137.374814,14.0449 139.641471,14.0449 C142.892524,14.0449 143.345556,19.2724 143.459812,21.3929 L143.459812,32.1499 L141.872204,32.1499 L141.872204,32.4909 L149.732908,32.4909 L149.732908,32.1499 L148.069462,32.1499 Z" id="Fill-13"></path>
                    </g>
                </g>
                <g id="Icon" transform="translate(0.000000, 0.500000)">
                    <path d="M16.874194,71.19525 C11.7152175,67.74925 8.70614712,63.01175 7.84598507,56.98125 C6.98632196,50.95125 8.70614712,44.92125 13.0049616,38.89125 C3.54667164,44.05975 -0.752142857,50.09025 0.107520256,56.98125 C0.967183369,63.87275 6.55624094,68.61075 16.874194,71.19525" id="Fill-27" fill="#DF4249"></path>
                    <path d="M24.20029,6.825 C18.4081663,11.911 16.3355949,22.6875 19.7423156,30.077 C22.8132537,36.7385 31.0471599,40.276 32.5923582,40.9285 C39.9356674,44.029 48.3666525,45.318 53.3095906,47.3875 C59.7942345,50.1025 62.0080043,53.3955 63.0123582,54.88 C65.1103753,57.9805 64.5864947,62.114 61.4392196,67.282 C67.3835181,60.047 68.6947164,52.2965 65.3728145,44.029 C62.7893348,37.5985 57.2192367,32.7945 44.1307036,29.3025 C35.7391343,27.063 31.1933475,22.585 30.4943412,15.8675 C30.3890661,6.2675 35.8429126,1.726 46.8573774,2.2425 C57.8713433,2.759 64.5675352,8.162 66.946452,18.451 C66.7713262,12.767 64.3240554,8.1165 59.6036418,4.4995 C56.1106055,1.823 50.1293859,-0.0005 43.6422473,-1.33226763e-14 C36.9784861,-1.33226763e-14 29.7808657,1.924 24.20029,6.825" id="Fill-30" fill="url(#linearGradient-1)"></path>
                    <path d="M19.8830149,31.0155 C22.4664947,37.4465 28.0355949,42.25 41.1246269,45.7425 C49.5161962,47.9815 54.0619829,52.4595 54.7609893,59.1775 C54.9361151,69.5115 49.5161962,74.42 38.5017313,73.9035 C27.4877655,73.387 21.9446098,67.1425 18.3093774,56.594 C18.4840043,62.2775 20.9322729,66.928 25.6521876,70.545 C32.7325586,75.971 50.0415736,77.891 61.0550405,68.2195 C66.8471642,63.1335 68.9197356,52.357 65.5130149,44.967 C62.4420768,38.306 54.2091684,34.7685 52.6634712,34.116 C45.320162,31.0155 36.889177,29.726 31.9462388,27.657 C25.4615949,24.942 23.2473262,21.6485 22.2429723,20.1645 C20.1449552,17.064 20.0870789,12.9305 23.2343539,7.763 C17.2900554,14.997 16.561113,22.748 19.8830149,31.0155" id="Fill-33" fill="url(#linearGradient-2)"></path>
                    <path d="M19.8830149,63.1745 C22.4664947,69.6055 28.0355949,74.409 41.1246269,77.902 C49.5161962,80.1405 54.0619829,84.619 54.7609893,91.3365 C54.9361151,101.671 49.4124179,105.478 38.3979531,104.961 C27.3839872,104.4445 20.7571471,99.7765 18.3093774,88.7525 C18.4840043,94.437 20.9322729,99.0875 25.6521876,102.7045 C32.7325586,108.1295 50.0415736,110.0505 61.0550405,100.3795 C66.8471642,95.293 68.9197356,84.5165 65.5130149,77.1265 C62.4420768,70.465 54.2091684,66.9275 52.6634712,66.275 C45.320162,63.1745 36.889177,61.886 31.9462388,59.8165 C25.4615949,57.1015 23.2473262,53.808 22.2429723,52.324 C20.1449552,49.2235 20.6693348,45.0895 23.8161109,39.9225 C17.8723113,47.1565 16.561113,54.9075 19.8830149,63.1745" id="Fill-36" fill="url(#linearGradient-2)"></path>
                </g>
            </g>
        </g>
    </g>
</svg>