<?xml version="1.0" encoding="UTF-8"?>
<svg width="24px" height="24px" viewBox="0 0 24 24" version="1.1" xmlns="http://www.w3.org/2000/svg" xmlns:xlink="http://www.w3.org/1999/xlink">
    <!-- Generator: Sketch 48.1 (47250) - http://www.bohemiancoding.com/sketch -->
    <title>Glyphs/Twitter Circle</title>
    <desc>Created with Sketch.</desc>
    <defs>
        <path d="M24,12 C17.3832273,12 12,17.3832273 12,24 C12,30.6162894 17.3832273,36 24,36 C30.6162894,36 36,30.6162894 36,24 C36,17.3832273 30.6172561,12 24,12 Z M29.3532587,21.2535245 C29.3585757,21.3724321 29.3614759,21.4923065 29.3614759,21.6121808 C29.3614759,25.262064 26.5840651,29.4692661 21.5024571,29.4692661 C19.9426408,29.4692661 18.4906147,29.0134536 17.2686699,28.2294369 C17.4847337,28.2550552 17.7046645,28.268106 17.9274954,28.268106 C19.2219447,28.268106 20.4124708,27.8263111 21.3579312,27.0857971 C20.1495207,27.0635624 19.1291388,26.2650447 18.777733,25.1673246 C18.9459438,25.1992266 19.1194715,25.2171111 19.2968662,25.2171111 C19.5486989,25.2171111 19.7932812,25.1842423 20.0248127,25.1209216 C18.7612986,24.8676388 17.8095545,23.7515508 17.8095545,22.4126319 C17.8095545,22.4010312 17.8095545,22.3889471 17.8100379,22.3778297 C18.1822283,22.5842262 18.6080722,22.7089342 19.0605011,22.7229517 C18.3199871,22.2284702 17.8322726,21.3825828 17.8322726,20.4245549 C17.8322726,19.9179892 17.968098,19.4433255 18.2059132,19.0353661 C19.5675501,20.7068396 21.6034802,21.8060098 23.8984935,21.9220172 C23.8511238,21.7194876 23.827439,21.5092242 23.827439,21.2921937 C23.827439,19.7671796 25.0638846,18.5302505 26.5888987,18.5302505 C27.3835495,18.5302505 28.1003786,18.8657053 28.6050109,19.4022396 C29.2348344,19.2784983 29.8245388,19.0493837 30.359623,18.7318134 C30.1517764,19.3771046 29.7152985,19.9179892 29.1434786,20.2602111 C29.702731,20.1935068 30.2363651,20.0455974 30.72988,19.8256666 C30.3615564,20.3786353 29.8931765,20.8653831 29.3532587,21.2535245 Z" id="path-1"></path>
    </defs>
    <g id="Glyphs" stroke="none" stroke-width="1" fill="none" fill-rule="evenodd" transform="translate(-436.000000, -1448.000000)">
        <g id="Social-Media" transform="translate(0.000000, 1308.000000)">
            <g id="Glyphs/Twitter-Circle" transform="translate(424.000000, 128.000000)">
                <mask id="mask-2" fill="white">
                    <use xlink:href="#path-1"></use>
                </mask>
                <use id="Twitter-Circle" fill="#000000" fill-rule="nonzero" xlink:href="#path-1"></use>
                <g id="⮑-Palette" mask="url(#mask-2)" fill="#2B2B2B">
                    <rect id="Color" x="0" y="0" width="48" height="48"></rect>
                </g>
            </g>
        </g>
    </g>
</svg>