<?xml version="1.0" encoding="UTF-8"?>
<svg width="24px" height="24px" viewBox="0 0 24 24" version="1.1" xmlns="http://www.w3.org/2000/svg" xmlns:xlink="http://www.w3.org/1999/xlink">
    <!-- Generator: Sketch 48.1 (47250) - http://www.bohemiancoding.com/sketch -->
    <title>Glyphs/Youtube Circle</title>
    <desc>Created with Sketch.</desc>
    <defs>
        <path d="M24,36 C30.627417,36 36,30.627417 36,24 C36,17.372583 30.627417,12 24,12 C17.372583,12 12,17.372583 12,24 C12,30.627417 17.372583,36 24,36 Z M22.5097403,26.2055503 L22.5097403,21.8723718 L26.3181818,24.0390438 L22.5097403,26.2055503 Z M30.9812045,20.5089497 C30.8136331,19.8779075 30.3198604,19.3809886 29.6929578,19.2123409 C28.5566347,18.9058442 24,18.9058442 24,18.9058442 C24,18.9058442 19.4433653,18.9058442 18.3070422,19.2123409 C17.6801396,19.3809886 17.1863669,19.8779075 17.0187955,20.5089497 C16.7142857,21.6526412 16.7142857,24.038961 16.7142857,24.038961 C16.7142857,24.038961 16.7142857,26.4251981 17.0187955,27.5689724 C17.1863669,28.2000146 17.6801396,28.6969334 18.3070422,28.865664 C19.4433653,29.1720779 24,29.1720779 24,29.1720779 C24,29.1720779 28.5566347,29.1720779 29.6929578,28.865664 C30.3198604,28.6969334 30.8136331,28.2000146 30.9812045,27.5689724 C31.2857143,26.4251981 31.2857143,24.038961 31.2857143,24.038961 C31.2857143,24.038961 31.2857143,21.6526412 30.9812045,20.5089497 Z" id="path-1"></path>
    </defs>
    <g id="Glyphs" stroke="none" stroke-width="1" fill="none" fill-rule="evenodd" transform="translate(-540.000000, -1448.000000)">
        <g id="Social-Media" transform="translate(0.000000, 1308.000000)">
            <g id="Glyphs/Youtube-Circle" transform="translate(528.000000, 128.000000)">
                <mask id="mask-2" fill="white">
                    <use xlink:href="#path-1"></use>
                </mask>
                <use id="Youtube-Circle" fill="#000000" xlink:href="#path-1"></use>
                <g id="⮑-Palette" mask="url(#mask-2)" fill="#2B2B2B">
                    <rect id="Color" x="0" y="0" width="48" height="48"></rect>
                </g>
            </g>
        </g>
    </g>
</svg>